SplineFontDB: 3.0
FontName: FrankHandwritingHeavy
FullName: Frank Handwriting Heavy
FamilyName: Frank Handwriting
Weight: Heavy
Copyright: Created with the help of MyScriptFont.com\nCopyright belongs to the Creator.
Version: 001.000
ItalicAngle: 0
UnderlinePosition: -100
UnderlineWidth: 50
Ascent: 800
Descent: 200
InvalidEm: 0
sfntRevision: 0x00010000
LayerCount: 2
Layer: 0 0 "Back" 1
Layer: 1 0 "Fore" 0
XUID: [1021 668 1240808111 14693389]
StyleMap: 0x0040
FSType: 0
OS2Version: 4
OS2_WeightWidthSlopeOnly: 0
OS2_UseTypoMetrics: 1
CreationTime: 1277802766
ModificationTime: 1491012088
PfmFamily: 17
TTFWeight: 800
TTFWidth: 5
LineGap: 90
VLineGap: 0
Panose: 2 0 6 3 0 0 0 0 0 0
OS2TypoAscent: 800
OS2TypoAOffset: 0
OS2TypoDescent: -200
OS2TypoDOffset: 0
OS2TypoLinegap: 90
OS2WinAscent: 800
OS2WinAOffset: 0
OS2WinDescent: 58
OS2WinDOffset: 0
HheadAscent: 800
HheadAOffset: 0
HheadDescent: -58
HheadDOffset: 0
OS2SubXSize: 650
OS2SubYSize: 700
OS2SubXOff: 0
OS2SubYOff: 140
OS2SupXSize: 650
OS2SupYSize: 700
OS2SupXOff: 0
OS2SupYOff: 480
OS2StrikeYSize: 49
OS2StrikeYPos: 258
OS2CapHeight: 730
OS2XHeight: 527
OS2Vendor: 'XXXX'
OS2CodePages: 00000001.00000000
OS2UnicodeRanges: 80000007.00000002.00000000.00000000
Lookup: 258 0 0 "'kern' Horizontal Kerning in Latin lookup 0" { "'kern' Horizontal Kerning in Latin lookup 0-1" [160,0,2] } ['kern' ('DFLT' <'dflt' > 'latn' <'dflt' > ) ]
MarkAttachClasses: 1
DEI: 91125
KernClass2: 50 44 "'kern' Horizontal Kerning in Latin lookup 0-1"
 1 A
 3 B I
 1 C
 1 D
 1 E
 1 F
 1 G
 1 H
 1 J
 1 K
 1 L
 1 M
 1 N
 1 O
 1 P
 1 Q
 1 R
 1 S
 1 T
 1 U
 1 V
 1 W
 1 X
 1 Y
 1 Z
 3 a z
 1 b
 1 c
 1 d
 1 e
 1 f
 1 g
 1 h
 1 i
 1 j
 1 k
 1 l
 1 m
 1 n
 3 o p
 1 q
 1 r
 1 s
 1 t
 1 u
 1 v
 1 w
 1 x
 1 y
 1 A
 3 B N
 3 C e
 5 D F I
 1 E
 1 G
 1 H
 1 J
 3 K l
 3 L h
 1 M
 1 O
 1 P
 1 Q
 1 R
 1 S
 1 T
 1 U
 1 V
 1 W
 1 X
 1 Y
 1 Z
 5 a o q
 3 b k
 1 c
 1 d
 1 f
 1 g
 1 i
 1 j
 1 m
 1 n
 1 p
 1 r
 1 s
 1 t
 1 u
 1 v
 1 w
 1 x
 1 y
 1 z

StartChar: .notdef
Encoding: 65536 -1 0
Width: 535
Flags: W
HStem: 0 45<115 415> 488 45<115 415>
VStem: 70 45<45 488> 415 45<45 488>
LayerCount: 2
Fore
SplineSet
460 0 m 1
 70 0 l 1
 70 533 l 1
 460 533 l 1
 460 0 l 1
115 45 m 1
 415 45 l 1
 415 488 l 1
 115 488 l 1
 115 45 l 1
EndSplineSet
EndChar

StartChar: exclam
Encoding: 33 33 2
Width: 309
Flags: W
LayerCount: 2
Fore
SplineSet
215.173828125 662.411132812 m 0
 275.145507812 634.200195312 276.245117188 631.000976562 245.731445312 521.196289062 c 0
 221.575195312 432.797851562 203.08984375 346.203125 203.08984375 319.858398438 c 0
 203.08984375 287.313476562 186.442382812 259.26953125 162.090820312 249.123046875 c 0
 138.524414062 239.697265625 135.344726562 241.096679688 100.455078125 285.243164062 c 2
 79.16796875 312.0234375 l 1
 91.033203125 379.72265625 l 2
 106.380859375 470.342773438 116.88671875 511.106445312 136.3984375 596.46484375 c 0
 144.181640625 631.663085938 154.5390625 664.841796875 158.576171875 669.551757812 c 0
 168.124023438 680.44140625 172.91796875 680.622070312 215.173828125 662.411132812 c 0
59.4990234375 110.782226562 m 0
 79.529296875 125.21875 76.7314453125 125.447265625 120.890625 105.350585938 c 0
 163.596679688 86.953125 176.767578125 68.1298828125 173.3125 29.787109375 c 0
 171.227539062 4.912109375 168.669921875 1.1123046875 145.646484375 -10.64453125 c 0
 121.716796875 -21.5751953125 119.11328125 -21.4970703125 100.361328125 -12.05859375 c 0
 85.544921875 -4.1650390625 72.92578125 7.93359375 63.4091796875 21.73046875 c 0
 40.2958984375 54.2412109375 36.396484375 94.72265625 59.4990234375 110.782226562 c 0
EndSplineSet
EndChar

StartChar: quotedbl
Encoding: 34 34 3
Width: 413
Flags: W
VStem: 77.6953 112.107<495.894 621.167> 244.448 112.751<437.474 595.465>
LayerCount: 2
Fore
SplineSet
117.384765625 641.666992188 m 0
 139.4375 650.625976562 138.052734375 651.422851562 165.051757812 625.134765625 c 0
 182.6484375 608.9453125 189.802734375 596.141601562 189.802734375 582.978515625 c 0
 189.802734375 557.5625 147.60546875 423.137695312 135.083007812 408.500976562 c 0
 120.73828125 391.703125 102.975585938 393.515625 79.9326171875 417.73046875 c 0
 55.20703125 444.0546875 54.94921875 455.916992188 77.6953125 543.383789062 c 0
 103.376953125 639.610351562 102.1484375 634.999023438 117.384765625 641.666992188 c 0
277.84765625 616.055664062 m 0
 292.852539062 633.018554688 317.215820312 630.416015625 340.889648438 606.743164062 c 0
 361.178710938 586.331054688 361.439453125 584.466796875 357.19921875 549.626953125 c 0
 354.3515625 529.013671875 350.806640625 490.782226562 348.673828125 463.103515625 c 0
 345.118164062 410.823242188 335.470703125 395.745117188 313.579101562 395.745117188 c 0
 309.927734375 395.745117188 291.25390625 409.5078125 274.262695312 427.643554688 c 0
 247.358398438 457.454101562 244.448242188 462.721679688 244.448242188 493.6171875 c 0
 244.448242188 533.534179688 262.422851562 599.291015625 277.84765625 616.055664062 c 0
EndSplineSet
EndChar

StartChar: numbersign
Encoding: 35 35 4
Width: 757
Flags: W
HStem: 79.0957 122.659<68.9429 131.796>
VStem: 45.002 267.773<161.096 238.299> 110.943 122.629<-54.9801 67.6429> 350.117 124.663<-43.6625 73.2622> 422.09 114.975<275.083 326.105>
LayerCount: 2
Fore
SplineSet
414.416015625 262.760742188 m 0xc8
 415.268554688 267.9375 422.595703125 304.423828125 422.08984375 316.377929688 c 0
 421.686523438 325.922851562 415.173828125 327.075195312 405.521484375 326.610351562 c 0
 381.07421875 325.197265625 341.129882812 316.008789062 334.38671875 307.999023438 c 0
 325.879882812 297.825195312 312.775390625 254.758789062 312.775390625 238.298828125 c 0
 312.775390625 223.732421875 319.876953125 223.15625 352.723632812 227.310546875 c 0
 389.086914062 232.263671875 412.05859375 243.678710938 414.416015625 262.760742188 c 0xc8
485.93359375 602.0390625 m 2
 485.93359375 615.743164062 496.727539062 636.139648438 506.9140625 645.7578125 c 0
 523.8359375 661.734375 541.981445312 657.478515625 567.836914062 628.82421875 c 0
 599.102539062 593.840820312 604.436523438 568.172851562 589.83203125 527.836914062 c 0
 581.25 506.021484375 578.498046875 489.528320312 582.850585938 480.91796875 c 0
 586.42578125 473.842773438 594.372070312 473.733398438 603.286132812 478.651367188 c 0
 627.616210938 491.4921875 645.293945312 486.596679688 673.338867188 457.849609375 c 0
 778.715820312 344.764648438 537.064453125 385.165039062 537.064453125 295.03515625 c 0xc8
 537.064453125 270.89453125 553.749023438 271.9609375 596.192382812 280.524414062 c 0
 633.76171875 287.61328125 641.146484375 287.6328125 666.3125 276.447265625 c 0
 681.565429688 269.514648438 696.8671875 258.138671875 700.626953125 251.967773438 c 0
 709.481445312 234.85546875 707.487304688 207.708007812 699.094726562 200.514648438 c 0
 690.259765625 193.573242188 621.764648438 169.72265625 558.52734375 152.770507812 c 0
 524.122070312 143.53515625 515.158203125 137.858398438 505.060546875 115.963867188 c 0
 498.575195312 102.110351562 493.608398438 82.1904296875 493.608398438 70.921875 c 0
 493.608398438 60.5390625 491.091796875 49.400390625 489.219726562 46.2255859375 c 0
 485.279296875 40.724609375 479.704101562 24.154296875 474.780273438 7.0732421875 c 0
 458.759765625 -49.310546875 451.047851562 -55.65625 406.36328125 -55.65625 c 0
 381.3125 -55.65625 364.00390625 -51.3662109375 360.591796875 -47.326171875 c 0
 350.084960938 -34.7001953125 343.772460938 18.63671875 350.1171875 26.8076171875 c 0
 361.482421875 41.181640625 382.635742188 97.4599609375 377.598632812 105.611328125 c 0
 371.375976562 115.05859375 272.724609375 96.7421875 265.04296875 88.1923828125 c 0
 253.5 74.9560546875 232.8515625 -4.9580078125 233.572265625 -31.2412109375 c 2
 233.572265625 -55.65625 l 1
 175.064453125 -55.65625 l 2
 113.575195312 -55.65625 114.8125 -55.234375 110.943359375 -39.109375 c 0xb0
 106.946289062 -23.7919921875 111.588867188 1.3056640625 128.577148438 45.8994140625 c 0
 136.376953125 65.3994140625 132.698242188 79.095703125 107.80859375 79.095703125 c 0
 77.9345703125 79.095703125 45.3359375 119.529296875 45.001953125 161.095703125 c 0
 44.7626953125 190.525390625 62.3681640625 201.754882812 112.063476562 201.754882812 c 0
 135.560546875 201.754882812 160.337890625 204.286132812 168.545898438 209.155273438 c 0
 168.563476562 209.155273438 168.581054688 209.168945312 168.59765625 209.182617188 c 0
 177.092773438 213.647460938 187.934570312 234.706054688 194.247070312 255.999023438 c 0
 198.369140625 269.493164062 202.491210938 282.986328125 206.612304688 296.48046875 c 1
 194.5703125 308.178710938 182.526367188 319.875976562 170.484375 331.57421875 c 0
 138.6015625 362.8125 135.130859375 368.71484375 135.130859375 394.326171875 c 0
 135.130859375 428.822265625 147.771484375 437.928710938 203.149414062 438.634765625 c 0
 238.596679688 439.337890625 243.956054688 441.239257812 245.515625 459.372070312 c 0
 252.51953125 546.5546875 261.221679688 596.096679688 271.03515625 610.659179688 c 0
 281.921875 627.182617188 284.294921875 627.971679688 305.689453125 623.782226562 c 0
 341.63671875 617.486328125 354.564453125 606.975585938 368.357421875 574.877929688 c 0
 378.744140625 551.051757812 380.075195312 540.00390625 374.486328125 506.072265625 c 0
 370.966796875 483.278320312 369.055664062 460.689453125 371.911132812 454.91015625 c 0
 376.357421875 443.213867188 433.817382812 443.17578125 447.685546875 452.530273438 c 0
 453.068359375 456.162109375 457.791015625 467.299804688 459.955078125 478.248046875 c 0
 464.149414062 500.885742188 484.084960938 575.864257812 485.927734375 601.94921875 c 2
 485.93359375 602.0390625 l 2
168.46875 209.116210938 m 1
 168.4921875 209.130859375 168.515625 209.151367188 168.46875 209.116210938 c 1
168.59765625 209.182617188 m 2
 168.545898438 209.155273438 l 2
 168.563476562 209.165039062 168.581054688 209.173828125 168.59765625 209.182617188 c 2
700.626953125 251.967773438 m 1
 700.626953125 251.967773438 700.65234375 251.92578125 700.665039062 251.905273438 c 2
 700.626953125 251.967773438 l 1
EndSplineSet
EndChar

StartChar: dollar
Encoding: 36 36 5
Width: 598
Flags: W
VStem: 282.345 74.8945<175.783 247.794> 324.087 103.734<614.946 681.866>
LayerCount: 2
Fore
SplineSet
429.87890625 236.560546875 m 0x80
 423.129882812 242.9765625 407.965820312 249.895507812 398.087890625 252.7734375 c 0
 378.4375 257.581054688 376.791992188 253.419921875 365.142578125 190.548828125 c 0
 358.233398438 154.594726562 353.629882812 122.576171875 357.239257812 117.567382812 c 1
 357.370117188 117.0625 l 1
 371.151367188 103.94921875 414.432617188 141.4921875 428.26953125 171.240234375 c 0
 446.0234375 207.458007812 446.498046875 220.696289062 429.87890625 236.560546875 c 0x80
324.086914062 637.588867188 m 0x40
 324.086914062 672.075195312 340.077148438 711.489257812 368.3125 702.848632812 c 0
 398.99609375 694.9296875 423.126953125 671.2265625 427.821289062 646.12109375 c 0x40
 431.5078125 627.075195312 439.545898438 618.754882812 463.190429688 607.098632812 c 0
 508.471679688 583.689453125 522.815429688 566.1953125 522.815429688 539.006835938 c 0
 522.815429688 520.229492188 515.413085938 505.360351562 505.775390625 497.395507812 c 0
 494.748046875 488.283203125 481.0234375 487.91015625 470.4453125 500.952148438 c 0
 463.963867188 508.245117188 451.0546875 511.755859375 437.130859375 510.290039062 c 0
 429.208984375 509.515625 421.282226562 508.747070312 413.364257812 507.969726562 c 1
 410.268554688 482.963867188 407.172851562 457.958984375 404.077148438 432.954101562 c 0
 392.934570312 347.763671875 394.401367188 344.1328125 449.787109375 318.302734375 c 0
 515.931640625 287.341796875 544.091796875 249.29296875 544.091796875 190.071289062 c 0
 544.091796875 143.411132812 523.236328125 99.494140625 481.766601562 60.283203125 c 0
 450.671875 30.76953125 447.005859375 29.1640625 398.631835938 24.11328125 c 0
 338.26953125 18.6787109375 334.993164062 17.20703125 322.155273438 -12.765625 c 0
 312.813476562 -36.21875 301.052734375 -63.4130859375 282.684570312 -60 c 0
 268.86328125 -57.9951171875 251.11328125 -66.1708984375 244.516601562 -62 c 0
 237.860351562 -56.8212890625 224.4375 -1.462890625 202.287109375 1.41796875 c 0
 153.971679688 7.8017578125 94.8115234375 38.572265625 68.431640625 71.6279296875 c 0
 50.92578125 93.8837890625 47.703125 104.491210938 47 135.490234375 c 0
 47 185.069335938 61.646484375 183.037109375 98.798828125 147.840820312 c 0
 145.637695312 100.513671875 170.439453125 85.7802734375 202.671875 85.7802734375 c 0
 222.150390625 85.7802734375 234.080078125 89.5771484375 238.958007812 101.270507812 c 0
 251.952148438 126.565429688 282.344726562 261.381835938 282.344726562 292.908203125 c 0x80
 282.344726562 320.120117188 279.05078125 328.599609375 260.453125 342.456054688 c 0
 249.1484375 350.590820312 231.784179688 372.432617188 222.1953125 389.888671875 c 0
 186.826171875 452.985351562 211.6328125 527.528320312 286.836914062 579.442382812 c 0
 321.651367188 602.744140625 324.086914062 606.333007812 324.086914062 637.588867188 c 0x40
238.985351562 101.389648438 m 2
 238.926757812 101.206054688 l 1
 238.926757812 101.206054688 238.977539062 101.348632812 238.985351562 101.389648438 c 2
EndSplineSet
EndChar

StartChar: percent
Encoding: 37 37 6
Width: 747
Flags: W
HStem: 64.9121 21G<140.854 155.128>
LayerCount: 2
Fore
SplineSet
75.53515625 547.708984375 m 0
 97.1689453125 586.08984375 143.638671875 625.560546875 189.018554688 643.779296875 c 0
 235.408203125 662.708984375 262.092773438 659.247070312 295.770507812 630.712890625 c 0
 340.41796875 592.567382812 345.341796875 583.290039062 348.829101562 523.260742188 c 0
 353.700195312 437.2890625 336.784179688 401.009765625 269.356445312 355.256835938 c 0
 235.387695312 331.390625 199.544921875 320.23046875 159.172851562 320.23046875 c 0
 116.3984375 320.23046875 92.685546875 331.188476562 73.310546875 360.251953125 c 0
 57.9755859375 383.252929688 56 392.811523438 56 448.936523438 c 0
 56 505.713867188 57.9599609375 516.07421875 75.53515625 547.708984375 c 0
251.262695312 436.333984375 m 0
 278.806640625 458.307617188 296.6171875 523.022460938 272.813476562 556.125976562 c 0
 259.803710938 574.21484375 236.8828125 568.208984375 204.846679688 544.56640625 c 0
 178.051757812 524.616210938 154.11328125 489.853515625 142.483398438 460.676757812 c 0
 133.34765625 437.759765625 130.702148438 415.568359375 145.49609375 409.728515625 c 0
 163.470703125 402.6953125 230.924804688 420.153320312 251.262695312 436.333984375 c 0
266.260742188 287.669921875 m 0
 317.2265625 343.765625 471.543945312 517.96875 528.791015625 573.360351562 c 0
 558.952148438 601.865234375 587.517578125 625.79296875 591.26953125 627.287109375 c 0
 602.032226562 626.842773438 609.2109375 604.935546875 602.09375 573.62109375 c 0
 597.279296875 553.673828125 584.016601562 530.504882812 562.362304688 505.197265625 c 0
 544.140625 484.616210938 510.4765625 444.137695312 487.358398438 415.053710938 c 0
 426.537109375 339.309570312 278.680664062 174.6953125 217.90625 115.279296875 c 0
 182.104492188 80.4482421875 160.302734375 64.912109375 149.953125 64.912109375 c 0
 131.754882812 64.912109375 109.19140625 82.9658203125 109.19140625 95.0361328125 c 0
 109.19140625 106.140625 170.84375 182.598632812 266.260742188 287.669921875 c 0
417.25 269.12109375 m 0
 441.661132812 319.966796875 446.798828125 323.934570312 507.703125 348.744140625 c 0
 549.526367188 365.68359375 584.641601562 368.791992188 604.044921875 358.086914062 c 0
 627.7265625 345.231445312 673.955078125 278.770507812 685.110351562 240.422851562 c 0
 695.009765625 207.89453125 695.661132812 196.108398438 688.618164062 166.524414062 c 0
 678.1015625 120.255859375 649.286132812 80.5625 619.151367188 67.548828125 c 0
 581.748046875 51.619140625 474.494140625 51.1025390625 447.037109375 66.0224609375 c 0
 414.162109375 84.7470703125 388.6640625 122.479492188 384.56640625 159.125 c 0
 381.103515625 192.798828125 381.428710938 193.729492188 417.25 269.12109375 c 0
585.700195312 170.545898438 m 0
 609.11328125 193.228515625 612.733398438 215.922851562 599.801757812 254 c 0
 591.608398438 277.89453125 575.693359375 284.51171875 546.051757812 264.501953125 c 0
 521.65625 248.517578125 484.334960938 201.7265625 479.171875 179.327148438 c 0
 471.262695312 148.884765625 485.715820312 142.997070312 525.916015625 146.447265625 c 0
 555.5546875 149.305664062 569.038085938 154.556640625 585.700195312 170.545898438 c 0
EndSplineSet
EndChar

StartChar: ampersand
Encoding: 38 38 7
Width: 414
Flags: W
HStem: 63.5078 104.254<248.099 345.775> 245.357 123.933<197.641 262.707> 457.158 111.95<241.034 346.228>
VStem: 69.6494 124.532<371.191 428.43> 138.524 100.656<570.378 694.673>
LayerCount: 2
Fore
SplineSet
154.795898438 544 m 5xf0
 134.733398438 554.12890625 146.653320312 564.211914062 138.524414062 584.521484375 c 4
 118.645507812 634.188476562 123.629882812 702.619140625 147.924804688 712.336914062 c 4
 179.893554688 724.9765625 219.271484375 705.747070312 239.180664062 666.6953125 c 4xe8
 247.78515625 650.560546875 245.626953125 601.0703125 239.163085938 568.85546875 c 5
 254.579101562 571.4609375 299.150390625 571.81640625 319.009765625 569.108398438 c 4
 336.6953125 566.278320312 359.004882812 536.21484375 359.004882812 512.291015625 c 4
 359.004882812 482.198242188 341.197265625 464.091796875 303.446289062 457.158203125 c 0
 270.955078125 450.96875 194.181640625 426.493164062 194.181640625 411.794921875 c 0
 194.181640625 408.375976562 198.990234375 368.087890625 211.012695312 369.290039062 c 0
 233.647460938 372.30859375 301.306640625 360.620117188 314.546875 345.907226562 c 0
 321.657226562 338.0859375 325.56640625 323.184570312 324.048828125 307.241210938 c 0
 321.831054688 282.106445312 288.158203125 279.06640625 208.981445312 245.357421875 c 0
 185.989257812 235.989257812 178.48828125 193.212890625 180.193359375 183.001953125 c 0
 183.079101562 169.540039062 196.021484375 167.76171875 248.950195312 167.76171875 c 0
 299.739257812 167.76171875 334.413085938 164.557617188 346.859375 153.576171875 c 0
 383.15625 121.137695312 354.895507812 72.326171875 300.516601562 63.5078125 c 0
 270.192382812 58.091796875 246.795898438 48 243.919921875 33.68359375 c 0
 241.813476562 23.197265625 259.852539062 12.4052734375 259.965820312 1.4931640625 c 0
 260.125 -14.2392578125 247.497070312 -46.76953125 203.983398438 -46.76953125 c 0
 189.616210938 -46.76953125 178.78515625 -44.333984375 170.875 -40.2900390625 c 0
 144.774414062 -26.9453125 148.0546875 5.8037109375 163.787109375 35.6943359375 c 0
 167.734375 43.193359375 170.7109375 48.92578125 172.53125 53.654296875 c 0
 178.41796875 68.9384765625 170.399414062 73.3017578125 149.150390625 81.3408203125 c 0
 135.721679688 85.818359375 109.163085938 103.681640625 90.6435546875 119.115234375 c 0
 48.755859375 155.672851562 39.58984375 229.602539062 65.400390625 270.595703125 c 0
 80.4326171875 295.123046875 81.322265625 302.874023438 72.7451171875 341.079101562 c 0
 68.1875 364.6328125 66.6171875 431.546875 69.6494140625 452.76953125 c 0
 75.0498046875 486.712890625 86.3623046875 499.079101562 124.385742188 519.44921875 c 4
 138.083984375 526.787109375 137.42578125 535.932617188 154.795898438 544 c 5xf0
243.919921875 33.68359375 m 1
 243.966796875 33.630859375 l 1
 243.919921875 33.68359375 l 1
EndSplineSet
EndChar

StartChar: parenleft
Encoding: 40 40 8
Width: 378
Flags: W
HStem: 37.293 21G<193.618 287.637>
VStem: 54.8008 279.452
LayerCount: 2
Fore
SplineSet
123.349609375 615.771484375 m 0
 163.713867188 695.791992188 196.87109375 742.237304688 233.28515625 770.94921875 c 0
 250.817382812 784.272460938 272.168945312 795.248046875 279.2734375 795.248046875 c 0
 298.514648438 795.248046875 330.1015625 761.151367188 334.252929688 732.092773438 c 0
 338.342773438 710.280273438 335.72265625 705.263671875 297.995117188 663.264648438 c 0
 245.145507812 605.415039062 181.028320312 482.130859375 181.028320312 438.173828125 c 0
 181.028320312 423.674804688 176.784179688 394.599609375 171.202148438 375.759765625 c 0
 147.883789062 296.62109375 133.375976562 268.368164062 185.19921875 209.5703125 c 0
 198.36328125 194.635742188 211.526367188 179.700195312 224.689453125 164.765625 c 0
 232.14453125 157.663085938 239.59765625 150.559570312 247.051757812 143.456054688 c 0
 271.35546875 120.295898438 306.581054688 112.7578125 301.73046875 98.5556640625 c 2
 280.805664062 37.29296875 l 1
 193.618164062 50.85546875 l 1
 139.37890625 100.063476562 l 1
 137.287109375 103.529296875 115.206054688 140.461914062 109.30078125 158.834960938 c 0
 102.166992188 178.810546875 93.4375 199.493164062 89.017578125 204.995117188 c 0
 77.66796875 219.014648438 59.7080078125 274.385742188 54.80078125 310.131835938 c 0
 47.8447265625 365.0859375 87.4873046875 545.453125 123.349609375 615.771484375 c 0
EndSplineSet
EndChar

StartChar: parenright
Encoding: 41 41 9
Width: 350
Flags: W
VStem: 43.042 255.649
LayerCount: 2
Fore
SplineSet
117.275390625 783.512695312 m 0
 145.228515625 799.850585938 199.294921875 754.502929688 252.514648438 660.15234375 c 0
 295.395507812 584.333984375 299.265625 570.043945312 298.69140625 494.799804688 c 0
 297.8359375 374.434570312 277.434570312 298.787109375 204.346679688 126.986328125 c 2
 172.169921875 50.3984375 l 1
 116.041015625 16.1513671875 l 1
 105.594726562 19.734375 44.1494140625 42.828125 43.0419921875 56.212890625 c 0
 41.759765625 70.7314453125 70.2958984375 139.13671875 94.564453125 176.217773438 c 0
 121.362304688 217.884765625 182.538085938 396.037109375 189.752929688 453.885742188 c 0
 203.305664062 560.810546875 194.28125 597.26953125 137.067382812 662.260742188 c 0
 111.000976562 691.38671875 104.775390625 702.458007812 102.463867188 728.356445312 c 0
 98.92578125 757.107421875 103.887695312 775.133789062 117.275390625 783.512695312 c 0
EndSplineSet
EndChar

StartChar: asterisk
Encoding: 42 42 10
Width: 626
Flags: W
HStem: 206.754 90.793<57.8876 204.609> 270.584 83.6523<449.707 558.108>
VStem: 274.682 69.6914<23.6728 124.678>
LayerCount: 2
Fore
SplineSet
360.583007812 450.204101562 m 0xa0
 370.05859375 444.180664062 397.98828125 479.793945312 436.666992188 532.944335938 c 0
 441.147460938 539.325195312 444.983398438 544.370117188 448.440429688 548.23046875 c 0
 460.702148438 561.842773438 467.05859375 560.881835938 481.553710938 547.459960938 c 0
 496.6015625 533.541992188 497.03515625 506.3515625 479.85546875 484.073242188 c 0
 471.822265625 473.715820312 465.600585938 463.35546875 465.126953125 458.248046875 c 0
 462.598632812 450.521484375 413.829101562 369.645507812 417.838867188 361.384765625 c 0
 420.611328125 355.669921875 448.780273438 354.236328125 479.693359375 354.236328125 c 0
 534.426757812 354.236328125 537.219726562 353.1484375 558.114257812 333.646484375 c 0
 595.532226562 297.564453125 575.661132812 271.288085938 503.09765625 270.583984375 c 0x60
 459.606445312 270.583984375 435.45703125 268.5234375 457.698242188 230.231445312 c 0
 510.877929688 141.709960938 531.1953125 75.587890625 515.984375 66.13671875 c 0
 504.971679688 59.466796875 464.00390625 96.5771484375 424.1796875 158.458984375 c 0
 402.841796875 191.685546875 382.391601562 220.458984375 374.716796875 220.458984375 c 0
 361.491210938 220.458984375 348.463867188 120.24609375 344.373046875 39.03515625 c 0
 342.984375 8.3759765625 342.805664062 9.21875 324.515625 9.21875 c 0
 297.456054688 9.21875 274.681640625 43.771484375 274.681640625 90.0107421875 c 0
 274.681640625 107.744140625 273.458007812 127.740234375 266.646484375 127.740234375 c 0
 258.510742188 127.740234375 242.505859375 107.3125 232.91796875 100.088867188 c 0
 215.168945312 86.71484375 198.440429688 90.404296875 183.587890625 111.590820312 c 2
 169.885742188 131.7578125 l 1
 190.634765625 166.236328125 l 2
 202.723632812 185.580078125 212.991210938 206.662109375 208.604492188 212.19921875 c 0
 204.340820312 217.620117188 191.235351562 216.560546875 176.146484375 213.072265625 c 0
 161.77734375 209.608398438 131.290039062 206.75390625 109.515625 206.75390625 c 0
 71.294921875 206.75390625 70.908203125 207.466796875 56.30859375 229.887695312 c 0
 32.296875 269.370117188 51.2412109375 307.759765625 102.631835938 297.546875 c 0
 131.452148438 291.390625 204.958984375 306.737304688 204.958984375 318.599609375 c 0
 204.958984375 328.888671875 176.665039062 341.262695312 167.455078125 348.935546875 c 0
 130.342773438 379.357421875 104.498046875 437.461914062 119.947265625 456.369140625 c 0
 132.579101562 471.645507812 142.923828125 469.34765625 179.150390625 433.327148438 c 0
 212.131835938 399.515625 267.122070312 362.041992188 280.450195312 370.0390625 c 0
 293.46484375 377.73046875 271.272460938 497.721679688 291.01171875 528.078125 c 0
 313.827148438 563.939453125 342.151367188 540.716796875 349.276367188 488.662109375 c 0
 352.106445312 469.959960938 356.575195312 453.09765625 360.583007812 450.204101562 c 0xa0
280.450195312 368.768554688 m 2
 280.453125 368.768554688 280.45703125 368.77734375 280.4609375 368.77734375 c 2
 280.450195312 368.768554688 l 2
EndSplineSet
EndChar

StartChar: plus
Encoding: 43 43 11
Width: 506
Flags: W
HStem: 82.833 21G<234.214 259.553> 286.373 103.479<92.364 174.13> 312.429 96.0928<294.425 433.502>
VStem: 172.407 86.8076<102.748 291.473> 205.475 88.0459<411.163 537.321>
LayerCount: 2
Fore
SplineSet
205.474609375 433.962890625 m 0xc8
 205.474609375 462.396484375 223.201171875 535.264648438 228.630859375 539.520507812 c 0
 239.001953125 547.686523438 264.118164062 545.5078125 281.607421875 533.04296875 c 0
 298.048828125 522.084960938 298.456054688 521.262695312 295.682617188 469.272460938 c 0
 294.961914062 450.26953125 294.2421875 431.266601562 293.520507812 412.264648438 c 1xc8
 312.819335938 411.014648438 332.122070312 409.76953125 351.421875 408.521484375 c 0
 412.260742188 404.944335938 446.883789062 387.05078125 455.571289062 359.3359375 c 0
 463.30859375 335.1640625 440.989257812 313.08203125 413.240234375 312.428710938 c 0
 398.759765625 312.428710938 361.243164062 308.162109375 330.137695312 303.892578125 c 0
 275.962890625 295.420898438 273.963867188 294.5390625 267.499023438 268.654296875 c 0
 264.624023438 254.590820312 261.240234375 206.609375 260.547851562 161.74609375 c 2
 259.21484375 82.8330078125 l 1
 234.213867188 84.763671875 l 2
 213.3046875 86.15234375 203.249023438 91.3095703125 189.044921875 108.71875 c 0
 170.06640625 131.049804688 169.639648438 130.091796875 172.407226562 207.0234375 c 0xb0
 173.115234375 233.473632812 173.821289062 259.923828125 174.529296875 286.373046875 c 1
 142.500976562 293.841796875 82.7021484375 305.96484375 66.74609375 321.106445312 c 0
 47.234375 339.622070312 41.9912109375 367.732421875 55.5947265625 382.796875 c 0
 64.654296875 393.266601562 71.603515625 394.186523438 119.473632812 389.8515625 c 0
 168.893554688 385.56640625 176.567382812 387.046875 190.296875 401.33984375 c 0
 198.291992188 409.663085938 205.474609375 424.249023438 205.474609375 433.962890625 c 0xc8
EndSplineSet
EndChar

StartChar: comma
Encoding: 44 44 12
Width: 296
Flags: W
VStem: 101.574 130.495<79.7217 196.459>
LayerCount: 2
Fore
SplineSet
112.586914062 221.287109375 m 0
 138.771484375 239.641601562 177.87109375 230.483398438 210.767578125 196.467773438 c 0
 237.5859375 167.627929688 237.026367188 168.76953125 232.069335938 128.259765625 c 0
 225.741210938 74.0068359375 194.33984375 1.2021484375 170.66015625 -16.4248046875 c 0
 140.534179688 -38.3359375 102.208984375 -34.369140625 72.458984375 -6.0029296875 c 0
 55.6240234375 10.939453125 30.9365234375 55.87890625 65.224609375 69.50390625 c 0
 93.328125 79.9248046875 107.28125 121.142578125 101.57421875 170.077148438 c 0
 97.3125 208.334960938 98.58203125 210.92578125 112.586914062 221.287109375 c 0
EndSplineSet
EndChar

StartChar: hyphen
Encoding: 45 45 13
Width: 427
Flags: W
HStem: 185.317 107.928
LayerCount: 2
Fore
SplineSet
58 243.262695312 m 0
 58 256.9453125 62.2587890625 261.576171875 83.412109375 270.7421875 c 0
 128.959960938 288.9609375 167.145507812 291.84375 239.919921875 293.245117188 c 0
 314.354492188 293.954101562 344.633789062 282.66796875 359.606445312 249.3203125 c 0
 366.462890625 234.236328125 366.04296875 231.099609375 354.44140625 219.498046875 c 0
 344.061523438 209.119140625 325.653320312 205.342773438 258.122070312 198.9453125 c 0
 212.584960938 195.387695312 167.432617188 189.155273438 157.454101562 185.317382812 c 0
 115.666015625 169.83984375 58 212.16015625 58 243.262695312 c 0
EndSplineSet
EndChar

StartChar: period
Encoding: 46 46 14
Width: 254
Flags: W
HStem: 94.9473 20G<170.907 170.968> 114.894 21G<170.877 170.96>
LayerCount: 2
Fore
SplineSet
63.6767578125 131.216796875 m 0x00
 72.40625 148.955078125 73.154296875 149.30859375 110.149414062 145.391601562 c 0
 143.950195312 141.774414062 150.568359375 138.010742188 170.920898438 114.9453125 c 0
 182.134765625 100.720703125 191.96875 86.6455078125 192.995117188 83.8095703125 c 0
 192.05859375 80.6884765625 181.420898438 68.0625 168.90234375 55.2861328125 c 0
 137.029296875 22.91015625 114.951171875 22.9931640625 85.966796875 53.8359375 c 0
 58.6484375 81.6552734375 51.615234375 108.595703125 63.6767578125 131.216796875 c 0x00
170.967773438 114.893554688 m 2x40
 170.876953125 114.947265625 l 2x80
 170.936523438 114.927734375 170.952148438 114.911132812 170.967773438 114.893554688 c 2x40
EndSplineSet
EndChar

StartChar: slash
Encoding: 47 47 15
Width: 555
Flags: W
LayerCount: 2
Fore
SplineSet
427.325195312 662.291015625 m 0
 452.202148438 684.201171875 478.95703125 674.5078125 500.057617188 631.7734375 c 0
 518.958984375 594.858398438 518.6171875 591.92578125 487.545898438 552.583007812 c 0
 472.569335938 533.266601562 448.4296875 498.369140625 434.883789062 474.765625 c 0
 420.717773438 451.154296875 336.818359375 313.084960938 309.908203125 265.809570312 c 0
 196.662109375 66.9658203125 134.065429688 -23.2607421875 107.5078125 -32.62890625 c 0
 92.7353515625 -38.1611328125 86.38671875 -36.59765625 65.91015625 -19.8740234375 c 0
 31.7587890625 6.1953125 33.0986328125 20.876953125 77.0029296875 80.62109375 c 0
 101.293945312 111.659179688 166.98828125 229.638671875 189.688476562 259.444335938 c 0
 200.259765625 273.205078125 272.272460938 390.008789062 289.58984375 421.330078125 c 0
 389.642578125 608.599609375 415.366210938 651.575195312 427.325195312 662.291015625 c 0
EndSplineSet
EndChar

StartChar: zero
Encoding: 48 48 16
Width: 561
Flags: W
VStem: 390.655 111.323<267.647 506.475>
LayerCount: 2
Fore
SplineSet
250.623046875 607.805664062 m 0
 301.711914062 635.533203125 361.970703125 605.8515625 412.287109375 590.78515625 c 0
 436.709960938 583.693359375 460.524414062 569.448242188 477.203125 553.205078125 c 2
 503.381835938 525.91015625 l 1
 501.978515625 431.235351562 l 2
 499.8515625 248.084960938 482.918945312 180.607421875 421.033203125 108.510742188 c 0
 378.1796875 58.6904296875 337.28515625 34.759765625 280.279296875 26.2392578125 c 0
 228.094726562 17.63671875 155.306640625 28.6806640625 128.647460938 47.5068359375 c 0
 118.525390625 54.626953125 104.995117188 61.642578125 97.6416015625 64.5390625 c 0
 92.150390625 66.796875 77.634765625 87.4404296875 67.0595703125 109.90625 c 0
 43.2587890625 162.001953125 43.81640625 195.944335938 72.1767578125 302.895507812 c 0
 119.047851562 476.887695312 120.698242188 481.451171875 175.002929688 537.994140625 c 0
 201.888671875 567.862304688 235.953125 599.349609375 250.623046875 607.805664062 c 0
375.045898438 504.471679688 m 0
 350.454101562 513.819335938 342.841796875 512.986328125 316.311523438 500.124023438 c 0
 275.841796875 479.779296875 234.108398438 421.108398438 216.625 360.990234375 c 0
 165.44140625 182.21484375 160.729492188 159.953125 178.428710938 141.124023438 c 0
 203.838867188 115.8359375 286.127929688 135.717773438 321.9140625 173.848632812 c 0
 366.166015625 222.329101562 376.642578125 264.04296875 390.655273438 439.490234375 c 0
 395.576171875 493.618164062 395.341796875 496.881835938 375.045898438 504.471679688 c 0
EndSplineSet
EndChar

StartChar: one
Encoding: 49 49 17
Width: 259
Flags: W
VStem: 83.7334 117.031<293.445 593.842>
LayerCount: 2
Fore
SplineSet
83.7333984375 571.05859375 m 0
 80.9892578125 587.875 84.4755859375 607.041992188 92.8486328125 614.637695312 c 0
 112.114257812 630.434570312 163.470703125 616.786132812 189.227539062 583.694335938 c 0
 201.629882812 567.424804688 203.592773438 559.188476562 200.764648438 524.342773438 c 0
 192.249023438 432.096679688 190.116210938 385.1796875 185.861328125 246.8828125 c 0
 182.307617188 125.537109375 178.978515625 98.1201171875 170.166015625 87.943359375 c 0
 138.143554688 49.86328125 82.9560546875 64.12109375 66.650390625 120.536132812 c 0
 57.6572265625 153.83203125 58.939453125 208.565429688 73.8291015625 388.431640625 c 0
 81.6455078125 476.765625 86.015625 558.095703125 83.7333984375 571.05859375 c 0
EndSplineSet
EndChar

StartChar: two
Encoding: 50 50 18
Width: 597
Flags: W
HStem: 62.0732 126.921<292.303 528.329> 487.321 146.403<165.698 271.861>
LayerCount: 2
Fore
SplineSet
110.782226562 583 m 0
 119.697265625 596.372070312 179.95703125 620.265625 241.125976562 633.724609375 c 0
 326.563476562 652.131835938 383.762695312 651.95703125 422.622070312 633.890625 c 0
 473.045898438 611.127929688 473.490234375 611.080078125 496.08984375 583.537109375 c 0
 513.565429688 561.866210938 516.10546875 553.05859375 516.8125 514.8671875 c 0
 517.51171875 447.66015625 489.01953125 393.103515625 413.5390625 318.075195312 c 0
 381.572265625 284.786132812 340.556640625 246.53125 322.559570312 231.716796875 c 0
 305.178710938 216.837890625 289.65625 200.029296875 289.65625 192.198242188 c 0
 289.65625 178.291015625 303.500976562 179.89453125 470.528320312 188.994140625 c 0
 490.657226562 190.3828125 504.010742188 186.369140625 519.95703125 174.583007812 c 0
 546.126953125 155.299804688 552.779296875 131.84375 541.803710938 103.032226562 c 0
 523.834960938 56.7265625 531.298828125 58.5146484375 368.706054688 62.0732421875 c 0
 268.412109375 64.203125 218.521484375 63.0478515625 203.515625 56.931640625 c 0
 144.163085938 32.90234375 86.2265625 37.9423828125 68.2529296875 65.8994140625 c 0
 51.53515625 91.6728515625 40.9052734375 146.594726562 48.4921875 160.504882812 c 0
 52.189453125 167.283203125 78.42578125 191.002929688 106.64453125 211.461914062 c 0
 174.3203125 262.159179688 356.301757812 441.674804688 373.599609375 473.99609375 c 0
 384.291992188 494.299804688 391.245117188 525.904296875 360.3046875 525.904296875 c 0
 326.85546875 525.904296875 251.84765625 505.333984375 217.206054688 487.321289062 c 0
 171.268554688 462.165039062 152.83203125 466.725585938 125.717773438 509.135742188 c 0
 105.966796875 540.877929688 101.155273438 568.879882812 110.782226562 583 c 0
EndSplineSet
EndChar

StartChar: three
Encoding: 51 51 19
Width: 516
Flags: W
HStem: 310.301 148.22<161.738 267.284> 523.648 20G<112.001 112.042> 528.699 134.767<106.992 273.519> 543.603 21G<111.993 112.034>
VStem: 334.651 114.212<237.219 300.865>
LayerCount: 2
Fore
SplineSet
83.3623046875 642.032226562 m 0x98
 92.0791015625 657.454101562 97.5947265625 659.91015625 137.4296875 663.465820312 c 0
 162.782226562 665.579101562 224.919921875 667.002929688 275.916992188 666.293945312 c 0
 365.0546875 666.293945312 370.31640625 664.986328125 397.516601562 647.549804688 c 0
 441.743164062 618.767578125 458.833984375 591.390625 461.6328125 540.982421875 c 0
 465.866210938 477.489257812 455.53515625 447.520507812 417.146484375 416.112304688 c 0
 405.584960938 406.561523438 394.022460938 397.009765625 382.4609375 387.458984375 c 1
 391.352539062 378.060546875 400.243164062 368.66015625 409.134765625 359.260742188 c 0
 444.369140625 322.616210938 448.86328125 310.443359375 448.86328125 253.900390625 c 0
 448.86328125 181.010742188 416.870117188 130.221679688 350.954101562 96.5625 c 0
 282.375 61.42578125 152.727539062 51.8212890625 105.063476562 77.3798828125 c 0
 67.5 97.552734375 34.8671875 165.491210938 47.9345703125 190.319335938 c 0
 53.72265625 201.251953125 57.3974609375 202.4921875 78.591796875 198.252929688 c 0
 184.713867188 179.05078125 278.836914062 194.290039062 315.037109375 238.80859375 c 0
 327.4140625 253.806640625 334.361328125 266.193359375 334.651367188 276.79296875 c 0
 335.295898438 300.376953125 303.840820312 308.87109375 243.580078125 310.30078125 c 0
 167.857421875 312.423828125 164.89453125 314.208007812 145.955078125 369.625976562 c 0
 128.9140625 417.908203125 128.922851562 418.063476562 149.048828125 442.353515625 c 0
 162.958007812 458.34765625 169.3515625 461.243164062 185.899414062 458.520507812 c 0
 220.416015625 453.530273438 293.981445312 487.788085938 321.0234375 514.235351562 c 0
 329.677734375 522.69921875 335.354492188 532.26953125 328.712890625 539.340820312 c 0
 319.166992188 549.154296875 219.346679688 541.413085938 153.0703125 528.69921875 c 0xa8
 134.572265625 525.2734375 128.833007812 527.516601562 112.041992188 543.602539062 c 0
 101.795898438 554.55859375 88.3671875 577.849609375 82.8544921875 594.388671875 c 0
 74.37109375 620.545898438 74.4462890625 626.258789062 83.3623046875 642.032226562 c 0x98
112.041992188 543.602539062 m 0x98
 112.025390625 543.6171875 112.009765625 543.6328125 111.993164062 543.6484375 c 2xc8
 112.041992188 543.602539062 l 0x98
EndSplineSet
EndChar

StartChar: four
Encoding: 52 52 20
Width: 536
Flags: W
HStem: 51.8057 21G<359.773 402.681>
VStem: 334.224 124.874<79.9996 204.095> 349.424 115.349<335.911 468.215>
LayerCount: 2
Fore
SplineSet
276.875976562 614.2109375 m 0xc0
 300.130859375 638.48046875 323.11328125 657.618164062 326.30859375 658.159179688 c 0
 359.141601562 657.569335938 429.759765625 601.05859375 436.45703125 570.231445312 c 0
 451.31640625 500.70703125 461.946289062 419.697265625 464.772460938 359.470703125 c 0xa0
 466.19140625 319.728515625 470.493164062 283.532226562 476.01953125 277.086914062 c 0
 479.658203125 272.927734375 479.13671875 259.840820312 471.26171875 233.350585938 c 0
 464.743164062 212.333007812 459.811523438 170.46484375 459.09765625 139.700195312 c 0
 458.390625 66.220703125 449.434570312 53.189453125 402.680664062 52.482421875 c 2
 369.49609375 51.8056640625 l 1
 350.547851562 90.7802734375 l 2
 335.422851562 121.518554688 332.177734375 136.5 334.223632812 163.44140625 c 0
 335.579101562 181.622070312 334.591796875 200.749023438 328.901367188 204.271484375 c 0
 316.821289062 214.630859375 218.3203125 207.81640625 189.458984375 195.745117188 c 0
 156.05859375 184.739257812 104.887695312 194.453125 82.4130859375 216.078125 c 0
 71.6357421875 225.5078125 58.9296875 246.557617188 53.3916015625 265.248046875 c 0
 38.8515625 314.409179688 49.9560546875 340.099609375 133.752929688 438.810546875 c 0
 213.826171875 535.092773438 207.198242188 537.93359375 276.875976562 614.2109375 c 0xc0
349.423828125 415.1171875 m 0
 346.770507812 447.803710938 342.8359375 469.166992188 333.8671875 469.166992188 c 0
 320.98828125 469.166992188 227.083007812 357.072265625 227.083007812 343.971679688 c 0
 227.083007812 330.732421875 298.5546875 332.046875 325.763671875 334.713867188 c 0
 357.926757812 337.869140625 355.166992188 354.038085938 349.423828125 415.1171875 c 0
200.857421875 317.73046875 m 0
 200.857421875 323.28125 196.919921875 327.322265625 191.510742188 327.322265625 c 0
 186.838867188 327.322265625 182.1640625 323.5 182.1640625 317.73046875 c 0
 182.1640625 312.7109375 186.620117188 308.138671875 191.510742188 308.138671875 c 0
 197.1328125 308.138671875 200.857421875 312.935546875 200.857421875 317.73046875 c 0
EndSplineSet
EndChar

StartChar: five
Encoding: 53 53 21
Width: 537
Flags: W
LayerCount: 2
Fore
SplineSet
353.548828125 678.723632812 m 0
 388.521484375 682.168945312 417.307617188 684.61328125 419.82421875 685.833984375 c 0
 424.87109375 688.172851562 468.650390625 663.294921875 480.609375 647.517578125 c 0
 500.630859375 622.130859375 499.986328125 609.357421875 475.998046875 588.923828125 c 0
 458.203125 574.266601562 447.118164062 572.245117188 376.04296875 567.40234375 c 0
 250.388671875 559.294921875 249.334960938 559.252929688 239.385742188 506.893554688 c 0
 233.375976562 478.176757812 231.849609375 463.1640625 241.004882812 460.0390625 c 0
 245.458007812 458.51953125 267.453125 452.907226562 291.106445312 447.208984375 c 0
 377.427734375 427.42578125 426.614257812 390.994140625 441.875 336.193359375 c 0
 460.225585938 271.545898438 462.756835938 201.14453125 449.822265625 173.049804688 c 0
 424.171875 118.302734375 330.241210938 63.1376953125 252.68359375 57.447265625 c 0
 205.483398438 53.8916015625 148.060546875 70.4140625 117.55859375 96.451171875 c 0
 105.344726562 106.900390625 92.849609375 123.375976562 81.7998046875 142.041015625 c 0
 52.1279296875 192.00390625 35.703125 253.381835938 50.5654296875 262.395507812 c 0
 59.078125 267.502929688 110.341796875 250.922851562 122.689453125 236.530273438 c 0
 129.462890625 229.756835938 137.959960938 217.047851562 142.079101562 208.810546875 c 0
 162.28125 163.16796875 232.078125 156.056640625 292.704101562 189.099609375 c 0
 338.197265625 211.915039062 348.224609375 228.764648438 341.866210938 274.821289062 c 0
 334.1640625 330.02734375 322.366210938 341.506835938 274.334960938 341.506835938 c 0
 239.584960938 341.506835938 228.729492188 338.333984375 206.3046875 319.678710938 c 0
 171.653320312 291.159179688 144.59375 291.993164062 117.774414062 321.564453125 c 0
 84.0087890625 356.736328125 77.533203125 380.967773438 89.90625 413.275390625 c 0
 112.716796875 471.728515625 129.793945312 549.10546875 129.793945312 594.326171875 c 0
 129.793945312 664.475585938 131.953125 666.559570312 219.002929688 670.212890625 c 0
 258.544921875 671.630859375 319.493164062 675.170898438 353.548828125 678.723632812 c 0
EndSplineSet
EndChar

StartChar: six
Encoding: 54 54 22
Width: 605
Flags: W
HStem: 389.734 94.001<267.165 432.867>
LayerCount: 2
Fore
SplineSet
123.921875 513.475585938 m 0
 123.921875 527.849609375 237.346679688 640.509765625 269.533203125 655.166992188 c 0
 313.7109375 675.569335938 354.198242188 674.359375 374.715820312 652.778320312 c 0
 384.065429688 643.930664062 391.329101562 629.268554688 391.329101562 622.6953125 c 0
 391.329101562 598.32421875 371.6484375 568.520507812 348.98046875 558.328125 c 0
 331.962890625 551.1875 296.771484375 522.946289062 278.15234375 504.08984375 c 0
 271.36328125 497.212890625 261.389648438 487.640625 267.165039062 483.735351562 c 0
 271.233398438 480.971679688 296.73828125 484.052734375 326.5859375 487.58984375 c 0
 373.947265625 493.978515625 384.836914062 493.307617188 415.926757812 482.041015625 c 0
 471.311523438 462.290039062 501.889648438 439.998046875 529.244140625 400.018554688 c 0
 546.131835938 374.6875 553.638671875 355.262695312 553.638671875 338.297851562 c 0
 553.638671875 308.123046875 526.872070312 245.100585938 501.026367188 214.366210938 c 0
 483.610351562 193.466796875 413.95703125 142.92578125 404.916015625 142.92578125 c 0
 401.333007812 142.92578125 372.237304688 132.206054688 338.623046875 118.645507812 c 0
 272.111328125 92.5185546875 203.03125 85.7490234375 167.799804688 101.587890625 c 0
 95.666015625 131.701171875 53 198.778320312 53 280.141601562 c 0
 53 349.08984375 80.76171875 448.213867188 109.204101562 484.98046875 c 0
 117.15234375 495.096679688 123.921875 507.125 123.921875 513.475585938 c 0
437.9296875 336.048828125 m 0
 445.11328125 357.600585938 444.3046875 364.234375 433.190429688 376.840820312 c 0
 426.3515625 384.5859375 416.055664062 390.15234375 408.0078125 389.734375 c 0
 402.188476562 389.734375 375.162109375 386.138671875 348.231445312 382.620117188 c 0
 321.87109375 379.084960938 276.669921875 374.83203125 248.83984375 372.704101562 c 0
 231.423828125 371.245117188 214.008789062 369.78515625 196.592773438 368.327148438 c 1
 191.754882812 357.231445312 186.915039062 346.13671875 182.077148438 335.041015625 c 0
 163.662109375 291.427734375 163.635742188 238.537109375 183.368164062 220.137695312 c 0
 198.095703125 206.629882812 202.6015625 206.84765625 262.7109375 218.818359375 c 0
 330.173828125 231.578125 340.913085938 236.249023438 384.796875 269.616210938 c 0
 418.971679688 295.206054688 426.58984375 305.211914062 437.9296875 336.048828125 c 0
EndSplineSet
EndChar

StartChar: seven
Encoding: 55 55 23
Width: 517
Flags: W
LayerCount: 2
Fore
SplineSet
106.854492188 659.911132812 m 0
 144.123046875 660.627929688 257.1953125 676.240234375 336.765625 690.448242188 c 0
 400.107421875 702.500976562 409.78125 700.571289062 439.813476562 671.935546875 c 0
 473.314453125 640.52734375 482.65625 603.434570312 466.942382812 571.325195312 c 0
 388.802734375 413.838867188 334.759765625 297.391601562 285.05859375 178.317382812 c 0
 273.879882812 153.212890625 265.146484375 131.418945312 264.802734375 126.193359375 c 0
 263.825195312 121.116210938 237.895507812 91.1513671875 227.249023438 82.9423828125 c 0
 203.244140625 64.43359375 182.525390625 67.994140625 163.41796875 94.40625 c 0
 132.788085938 134.782226562 133.23046875 155.759765625 168.56640625 223.685546875 c 0
 185.185546875 257.1015625 207.266601562 305.275390625 218.370117188 330.926757812 c 0
 228.698242188 356.375 241.225585938 381.954101562 245.012695312 387.140625 c 0
 258.577148438 405.244140625 315.102539062 550.86328125 307.657226562 558.504882812 c 0
 302.904296875 563.384765625 267.10546875 558.42578125 226.803710938 552.114257812 c 0
 95.2705078125 530.043945312 99.869140625 530.197265625 74.3955078125 551.540039062 c 0
 54.017578125 569.567382812 47.478515625 586.485351562 47.0087890625 622.068359375 c 0
 46.6162109375 652.005859375 59.236328125 659.301757812 106.854492188 659.911132812 c 0
EndSplineSet
EndChar

StartChar: eight
Encoding: 56 56 24
Width: 596
Flags: W
HStem: 112.995 118.405<169.117 331.882>
LayerCount: 2
Fore
SplineSet
164.106445312 607.413085938 m 0
 198.630859375 646.728515625 272.465820312 696.873046875 301.875 701.642578125 c 0
 365.166992188 711.462890625 441.069335938 685.223632812 467.94140625 645.259765625 c 0
 502.366210938 595.37890625 508.1328125 533.40234375 483.64453125 502.112304688 c 0
 476.977539062 493.626953125 468.688476562 483.627929688 474.145507812 479.9453125 c 0
 473.665039062 477.232421875 472.599609375 474.461914062 470.608398438 470.479492188 c 0
 464.776367188 458.815429688 470.580078125 448.942382812 492.369140625 427.15234375 c 0
 531.010742188 389.213867188 549.643554688 344.532226562 544.12890625 307.303710938 c 0
 540.065429688 278.861328125 511.00390625 244.368164062 432.21484375 177.646484375 c 0
 380.501953125 132.775390625 306.725585938 110.877929688 215.98828125 112.995117188 c 0
 120.604492188 115.120117188 93.7880859375 127.450195312 67.30078125 179.727539062 c 0
 32.39453125 247.4453125 48.3408203125 329.955078125 107.302734375 390.3203125 c 0
 136.274414062 420.705078125 140.794921875 427.834960938 135.6015625 449.349609375 c 0
 117.219726562 534.895507812 122.024414062 560.421875 164.106445312 607.413085938 c 0
303.328125 513.709960938 m 0
 342.930664062 521.051757812 407.127929688 561.780273438 393.649414062 587.505859375 c 0
 385.948242188 602.208007812 364.400390625 594.708007812 321.197265625 570.849609375 c 0
 280.2578125 548.19140625 257.350585938 530.569335938 259.123046875 519.064453125 c 0
 260.669921875 509.018554688 277.818359375 509.034179688 303.328125 513.709960938 c 0
443.650390625 356.360351562 m 1
 437.357421875 361.341796875 431.06640625 366.325195312 424.774414062 371.307617188 c 0
 404.203125 388.53515625 358.895507812 389.680664062 327.571289062 375.165039062 c 0
 313.544921875 368.014648438 266.739257812 347.424804688 242.91796875 334.084960938 c 0
 194.977539062 307.236328125 158.251953125 268.137695312 169.953125 246.896484375 c 0
 176.942382812 233.435546875 187.079101562 231.400390625 229.84765625 231.400390625 c 0
 257.912109375 231.400390625 291.219726562 234.904296875 304.92578125 238.581054688 c 0
 333.15234375 246.697265625 404.588867188 302.004882812 427.3515625 333.853515625 c 0
 432.784179688 341.35546875 438.215820312 348.859375 443.650390625 356.360351562 c 1
EndSplineSet
EndChar

StartChar: nine
Encoding: 57 57 25
Width: 537
Flags: W
LayerCount: 2
Fore
SplineSet
298.806640625 676.157226562 m 0
 373.358398438 684.172851562 420.776367188 667.97265625 439.170898438 630.056640625 c 0
 445.068359375 618.5078125 458.625 601.7578125 471.01953125 591.762695312 c 0
 491.08203125 574.666992188 490.701171875 575.142578125 487.142578125 524.57421875 c 0
 485.034179688 497.174804688 470.130859375 394.90625 454.544921875 297.137695312 c 0
 438.208007812 199.827148438 425.432617188 111.543945312 425.432617188 100.978515625 c 0
 425.432617188 81.041015625 404.720703125 49.1982421875 383.50390625 37.8486328125 c 0
 367.24609375 28.8310546875 321.115234375 52.7919921875 309.028320312 78.970703125 c 0
 294.462890625 107.948242188 290.083007812 135.900390625 295.625 143.2421875 c 0
 304.7890625 154.94140625 329.302734375 277.458007812 321.885742188 286.9375 c 0
 317.428710938 292.654296875 300.196289062 289.79296875 278.577148438 284.249023438 c 0
 236.1640625 272.317382812 166.895507812 271.045898438 138.775390625 281.333984375 c 0
 127.930664062 285.400390625 109.583984375 297.365234375 99.2109375 307.739257812 c 0
 65.669921875 339.184570312 56 368.568359375 56 435.021484375 c 0
 56 490.361328125 57.8525390625 497.701171875 79.779296875 535.19140625 c 0
 118.296875 604.34375 216.65234375 666.862304688 298.806640625 676.157226562 c 0
327.091796875 564.86328125 m 0
 288.341796875 577.458984375 191.12109375 501.620117188 173.794921875 441.393554688 c 0
 163.537109375 406.134765625 169.608398438 386.337890625 212.868164062 387.130859375 c 0
 256.577148438 387.85546875 307.634765625 415.11328125 332.321289062 450.571289062 c 0
 350.387695312 475.51953125 352.860351562 483.986328125 348.659179688 512.720703125 c 0
 345.862304688 531.2578125 341.286132812 550.971679688 337.174804688 557.076171875 c 1
 336.286132812 560.884765625 329.92578125 563.852539062 327.091796875 564.86328125 c 0
EndSplineSet
EndChar

StartChar: colon
Encoding: 58 58 26
Width: 295
Flags: W
LayerCount: 2
Fore
SplineSet
142.37109375 468.798828125 m 0
 149.666015625 469.97265625 156.092773438 471.760742188 158.360351562 472.612304688 c 0
 173.94921875 465.872070312 207.099609375 449.026367188 219.731445312 437.057617188 c 0
 246.393554688 411.696289062 250.588867188 380.926757812 228.765625 357.034179688 c 0
 206.568359375 333.491210938 180.131835938 336.2578125 148.649414062 367.739257812 c 0
 130.056640625 386.1875 119.1875 406.106445312 115.96875 423.162109375 c 0
 111.708007812 446.580078125 120.432617188 464.447265625 142.37109375 468.798828125 c 0
65.3798828125 170.3125 m 0
 85.3046875 184.924804688 125.993164062 179.909179688 156.009765625 156.17578125 c 0
 175.67578125 141.42578125 179.857421875 134.044921875 179.857421875 115.602539062 c 0
 179.857421875 79.8681640625 174.89453125 71.0654296875 149.381835938 58.1416015625 c 0
 127.717773438 48.244140625 125.787109375 48.1845703125 101.875976562 59.5673828125 c 0
 87.1142578125 66.8154296875 74.83203125 78.115234375 65.9306640625 90.974609375 c 0
 45.9501953125 119.615234375 43.662109375 154.642578125 65.3798828125 170.3125 c 0
EndSplineSet
EndChar

StartChar: semicolon
Encoding: 59 59 27
Width: 323
Flags: W
HStem: -58.1562 21G<92.7412 134.189>
VStem: 89.2207 133.298<31.2324 154.931> 155.624 116.54<377.132 455.408>
LayerCount: 2
Fore
SplineSet
161.852539062 467.376953125 m 0xa0
 214.041015625 482.102539062 272.1640625 460.857421875 272.1640625 414.184570312 c 0
 272.1640625 391.881835938 262.578125 378.663085938 232.364257812 363.205078125 c 0
 209.455078125 350.427734375 173.782226562 369.206054688 155.624023438 405.799804688 c 0
 144.771484375 427.491210938 135.108398438 459.739257812 161.852539062 467.376953125 c 0xa0
105.3046875 167.551757812 m 0
 125.64453125 183.823242188 146.963867188 184.100585938 181.329101562 166.567382812 c 0
 214.080078125 149.84375 222.518554688 136.227539062 222.518554688 98.58203125 c 0
 222.518554688 42.927734375 208.454101562 -0.1982421875 181.3359375 -29.794921875 c 0
 156.674804688 -57.3466796875 154.70703125 -58.15625 113.670898438 -58.15625 c 0
 71.8115234375 -58.15625 71.583984375 -58.208984375 57.669921875 -32.6533203125 c 0
 38.078125 -0.6982421875 38.4833984375 1.2998046875 65.8232421875 29.140625 c 0
 87.3876953125 51.939453125 89.220703125 58.5712890625 89.220703125 106.362304688 c 0xc0
 89.931640625 149.75 91.93359375 156.85546875 105.3046875 167.551757812 c 0
EndSplineSet
EndChar

StartChar: less
Encoding: 60 60 28
Width: 536
Flags: W
HStem: 156.773 82.5732<356.902 473.371>
LayerCount: 2
Fore
SplineSet
147.654296875 424.119140625 m 0
 153.916992188 424.645507812 218.795898438 467.967773438 322.227539062 540.142578125 c 0
 357.13671875 564.025390625 375.584960938 563.456054688 392.983398438 541.373046875 c 0
 421.368164062 505.5546875 407.76953125 476.94140625 336.078125 426.549804688 c 0
 294.645507812 397.49609375 278.21484375 387.663085938 240.94140625 367.12109375 c 0
 213.274414062 352.360351562 197.612304688 339.306640625 229.720703125 318.826171875 c 0
 243.244140625 310.060546875 254.74609375 304.006835938 258.638671875 303.520507812 c 0
 261.303710938 302.9296875 287.415039062 291.744140625 315.692382812 278.248046875 c 0
 345.646484375 263.950195312 389.108398438 249.063476562 413.62109375 244.015625 c 0
 421.094726562 242.69140625 427.833984375 241.1484375 434.065429688 239.346679688 c 0
 474.416015625 227.68359375 489.228515625 206.68359375 480.483398438 176.950195312 c 0
 474.380859375 155.25 476.026367188 156.059570312 432.569335938 156.7734375 c 0
 385.53515625 157.474609375 355.805664062 167.155273438 257.614257812 213.989257812 c 0
 221.517578125 231.0859375 170.384765625 250.930664062 143.166992188 258.80859375 c 0
 85.060546875 274.399414062 61.5673828125 291.032226562 54.12890625 318.754882812 c 0
 47.220703125 344.317382812 58.0625 373.9296875 73.1865234375 379.6015625 c 0
 80.79296875 382.643554688 99.802734375 393.962890625 115.514648438 404.674804688 c 0
 130.936523438 414.733398438 145.891601562 423.568359375 147.654296875 424.119140625 c 0
EndSplineSet
EndChar

StartChar: equal
Encoding: 61 61 29
Width: 634
Flags: W
HStem: 227.312 92.8828<139.65 426.518> 367.035 103.515<127.481 509.856>
LayerCount: 2
Fore
SplineSet
83.2177734375 430.017578125 m 0
 89.9423828125 442.244140625 132.110351562 454.93359375 205.630859375 463.475585938 c 0
 231.83203125 466.984375 317.663085938 469.841796875 396.34375 470.549804688 c 0
 528.721679688 471.259765625 542.213867188 469.708007812 562.666015625 457.435546875 c 0
 582.068359375 445.693359375 593.142578125 433.34375 568.56640625 409.560546875 c 0
 556.555664062 396.881835938 539.022460938 391.866210938 465.765625 382.620117188 c 0
 417.70703125 376.249023438 364.690429688 371.306640625 347.583984375 372.00390625 c 0
 329.956054688 372.00390625 271.495117188 370.5859375 216.342773438 367.03515625 c 0
 120.318359375 362.056640625 115.807617188 362.821289062 96.6484375 376.506835938 c 0
 75.513671875 391.505859375 71.6923828125 408.32421875 83.2177734375 430.017578125 c 0
63.2431640625 306.422851562 m 0
 66.123046875 308.342773438 101.20703125 313.827148438 137.899414062 315.943359375 c 0
 174.708007812 318.067382812 245.80859375 320.1953125 296.6640625 320.1953125 c 0
 404.651367188 320.908203125 431.065429688 311.4609375 434.317382812 277.05078125 c 0
 437.565429688 244.659179688 421.666015625 235.157226562 338.955078125 227.3125 c 0
 299.225585938 223.767578125 234.396484375 218.09375 194.658203125 214.546875 c 0
 114.049804688 207.448242188 96.4541015625 210.905273438 70.8583984375 241.34375 c 0
 54.14453125 260.84375 51.423828125 298.740234375 63.2431640625 306.422851562 c 0
EndSplineSet
EndChar

StartChar: greater
Encoding: 62 62 30
Width: 555
Flags: W
HStem: 524.681 20G<126.581 142.224>
LayerCount: 2
Fore
SplineSet
126.966796875 458.018554688 m 0
 104.572265625 483.911132812 98.8349609375 508.329101562 108.891601562 529.11328125 c 0
 113.549804688 539.760742188 121.009765625 544.680664062 132.15234375 544.680664062 c 0
 152.294921875 544.680664062 363.623046875 490.50390625 378.547851562 481.875 c 0
 385.27734375 478.06640625 402.240234375 472.4453125 416.791015625 470.25 c 0
 430.169921875 467.547851562 454.891601562 453.538085938 473 437.51953125 c 0
 500.6328125 412.720703125 504.084960938 406.83203125 504.084960938 383.350585938 c 0
 504.084960938 334.860351562 479.5625 302.419921875 416.79296875 270.682617188 c 0
 397.51953125 260.688476562 369.514648438 244.3984375 354.805664062 234.3671875 c 0
 340.317382812 224.486328125 325.33203125 216.34765625 323.575195312 216.34765625 c 0
 313.743164062 216.34765625 163.560546875 122.443359375 129.25390625 96.712890625 c 0
 111.61328125 84.01171875 105.22265625 82.626953125 95.736328125 87.6865234375 c 0
 73.75 99.3662109375 46 137.495117188 46 152.854492188 c 0
 46 171.609375 53.53125 178.7890625 147.639648438 236.536132812 c 0
 282.583984375 320.517578125 353.751953125 366.711914062 353.751953125 378.38671875 c 0
 353.751953125 391.928710938 302.053710938 408.0078125 244.955078125 418.438476562 c 0
 148.579101562 435.513671875 144.194335938 437.345703125 126.966796875 458.018554688 c 0
416.762695312 467.75390625 m 1
 416.752929688 467.755859375 416.743164062 467.759765625 416.733398438 467.76171875 c 1
 416.743164062 467.76171875 416.752929688 467.75390625 416.762695312 467.75390625 c 1
416.807617188 467.748046875 m 1
 416.822265625 467.748046875 416.837890625 467.740234375 416.807617188 467.748046875 c 1
EndSplineSet
EndChar

StartChar: question
Encoding: 63 63 31
Width: 491
Flags: W
HStem: -32.9697 115.272<126.416 198.557> 500.913 139.883<121.786 196.678>
LayerCount: 2
Fore
SplineSet
49.4658203125 566.739257812 m 0
 67.3388671875 598.216796875 128.814453125 630.189453125 194.439453125 640.795898438 c 0
 242.793945312 649.227539062 263.790039062 644.561523438 339.868164062 606.959960938 c 0
 352.822265625 600.82421875 382.67578125 578.857421875 405.931640625 557.715820312 c 0
 448.584960938 519.328125 447.611328125 520.286132812 444.125976562 488.915039062 c 0
 441.33984375 461.0546875 436.412109375 452.907226562 402.359375 421.692382812 c 0
 380.526367188 401.267578125 336.603515625 367.255859375 304.756835938 346.0546875 c 0
 225.127929688 291.520507812 199.213867188 263.245117188 198.499023438 224.877929688 c 0
 197.831054688 193.873046875 178.568359375 171.293945312 155.8671875 171.293945312 c 0
 153.59765625 171.293945312 150.747070312 171.8984375 147.524414062 173.125976562 c 0
 117.495117188 184.560546875 64.5205078125 244.490234375 80.8935546875 286.3359375 c 0
 88.55859375 306.544921875 210.307617188 427.954101562 220.9765625 428.708984375 c 0
 223.961914062 428.86328125 227.400390625 430.895507812 231.7578125 433.872070312 c 0
 256.462890625 450.74609375 320.5625 512.615234375 313.633789062 523.3359375 c 0
 297.713867188 549.9296875 229.701171875 540.35546875 156.236328125 505.815429688 c 0
 119.360351562 488.795898438 119.018554688 488.920898438 89.39453125 500.913085938 c 0
 64.7763671875 510.056640625 58.0107421875 516.36328125 51.861328125 534.814453125 c 0
 47.599609375 548.306640625 46.96484375 563.211914062 49.4658203125 566.739257812 c 0
120.321289062 -2.814453125 m 0
 97.625 29.8115234375 92.98828125 72.5712890625 107.5859375 82.302734375 c 0
 113.8125 86.2646484375 153.365234375 86.5302734375 173.658203125 82.09765625 c 0
 176.25 79.7939453125 186.921875 70.6982421875 199.326171875 59.8212890625 c 0
 226.787109375 34.2529296875 229.87890625 10.4951171875 208.645507812 -16.8876953125 c 0
 196.61328125 -32.751953125 191.166015625 -35.0673828125 168.1328125 -32.9697265625 c 0
 143.802734375 -30.8837890625 137.869140625 -27.3818359375 120.321289062 -2.814453125 c 0
EndSplineSet
EndChar

StartChar: at
Encoding: 64 64 32
Width: 824
Flags: W
HStem: -55.6562 104.348<226.854 420.013>
LayerCount: 2
Fore
SplineSet
297.385742188 555.265625 m 0
 331.892578125 574.7890625 424.572265625 601.107421875 485.987304688 608.864257812 c 0
 498.990234375 610.24609375 539.103515625 610.973632812 573.415039062 610.265625 c 0
 623.243164062 609.556640625 642.233398438 606.016601562 660.009765625 595.01953125 c 0
 708.647460938 566.53125 762.440429688 472.048828125 770.870117188 398.29296875 c 0
 774.297851562 368.80859375 755.319335938 288.618164062 730.629882812 231.48046875 c 0
 701.208984375 162.833007812 623.33984375 100.158203125 549.825195312 86.1435546875 c 0
 524.122070312 81.2314453125 512.350585938 82.5732421875 490.224609375 92.353515625 c 0
 457.55078125 107.103515625 450.745117188 114.58203125 438.919921875 150.420898438 c 0
 431.442382812 174.096679688 417.66015625 197.208984375 390.677734375 172.76953125 c 0
 342.575195312 128.477539062 269.9765625 130.307617188 233.797851562 200.430664062 c 0
 204.266601562 258.717773438 221.008789062 316.27734375 290.245117188 389.763671875 c 0
 306.548828125 407.0390625 316.18359375 415.643554688 314.598632812 420.424804688 c 0
 312.752929688 425.9921875 304.1875 420.067382812 298.568359375 417.124023438 c 0
 242.326171875 388.3515625 131.881835938 249.458007812 131.881835938 204.96484375 c 0
 131.881835938 162.068359375 204.5390625 71.837890625 258.643554688 46.6640625 c 0
 292.490234375 30.9892578125 299.340820312 30.1494140625 350.548828125 36.5283203125 c 0
 380.889648438 40.8056640625 411.625976562 46.435546875 419.801757812 48.69140625 c 0
 436.768554688 54.4072265625 453.947265625 41.333984375 459.412109375 15.1083984375 c 0
 462.764648438 -2.5 459.875976562 -9.8173828125 441.727539062 -30.974609375 c 2
 420.012695312 -55.65625 l 1
 341.1015625 -55.65625 l 2
 263.698242188 -55.65625 260.729492188 -55.171875 225.840820312 -34.0205078125 c 0
 181.318359375 -7.3125 141.970703125 32.837890625 105.973632812 86.4814453125 c 0
 28.3134765625 204.3828125 28.369140625 265.104492188 107.99609375 368.690429688 c 0
 131.388671875 399.171875 151.06640625 425.373046875 151.06640625 430.44140625 c 0
 151.65625 444.012695312 241.90234375 524.044921875 297.385742188 555.265625 c 0
677.735351562 440.798828125 m 0
 669.125976562 458.733398438 656.559570312 479.317382812 648.077148438 486.28515625 c 0
 628.564453125 504.483398438 565.255859375 506.709960938 487.426757812 493.25 c 0
 473.26171875 491.206054688 462.46484375 485.971679688 462.045898438 479.161132812 c 0
 461.684570312 473.26953125 468.71875 471.258789062 477.282226562 471.258789062 c 0
 499.009765625 471.258789062 518.329101562 451.837890625 518.329101562 428.369140625 c 0
 518.329101562 415.965820312 521.62109375 401.3125 527.4765625 395.395507812 c 0
 537.659179688 385.107421875 535.23046875 298.462890625 521.990234375 261.147460938 c 0
 513.405273438 238.223632812 508.666015625 223.849609375 508.838867188 214.298828125 c 0
 509.083984375 200.712890625 519.950195312 198.52734375 537.025390625 198.918945312 c 0
 555.338867188 199.66015625 576.72265625 208.422851562 603.6015625 226.288085938 c 0
 636.112304688 248.423828125 646.525390625 261.212890625 664.985351562 301.08203125 c 0
 694.15234375 364.39453125 697.98046875 398.860351562 677.735351562 440.798828125 c 0
334.784179688 244.30859375 m 0
 351.559570312 244.30859375 417.983398438 311.432617188 417.983398438 328.369140625 c 0
 417.983398438 352.659179688 393.5 338.245117188 373.206054688 321.064453125 c 0
 351.262695312 302.469726562 321.780273438 265.139648438 321.780273438 252.482421875 c 0
 321.780273438 246.263671875 329.234375 244.30859375 334.784179688 244.30859375 c 0
EndSplineSet
EndChar

StartChar: A
Encoding: 65 65 33
Width: 588
Flags: W
LayerCount: 2
Fore
SplineSet
337.188476562 741.151367188 m 0
 357.620117188 751.848632812 366.021484375 742.91015625 386.076171875 737.592773438 c 0
 400.94140625 733.534179688 411.083984375 722.244140625 430.272460938 684.421875 c 0
 446.318359375 655.141601562 480.296875 530.275390625 477.169921875 520.376953125 c 0
 466.650390625 503.276367188 491.736328125 307.966796875 515.154296875 213.701171875 c 0
 524.340820312 173.724609375 522.668945312 107.645507812 514.399414062 99.291015625 c 0
 496.536132812 81.2890625 447.793945312 97.09765625 421.013671875 134.030273438 c 0
 408.44921875 151.145507812 405.95703125 160.045898438 410.107421875 179.83203125 c 0
 415.286132812 207.33984375 402.982421875 279.32421875 390.856445312 287.893554688 c 0
 384.4609375 292.055664062 352.356445312 286.009765625 315.428710938 277.622070312 c 0
 278.90234375 269.872070312 239.713867188 265.084960938 230.44140625 266.981445312 c 0
 212.192382812 271.458007812 207.001953125 267.275390625 197.850585938 246.405273438 c 0
 192.40625 233.65234375 175.688476562 201.76953125 160.86328125 175.88671875 c 0
 136.682617188 134.30859375 131.28515625 129.73828125 111.672851562 127.657226562 c 0
 87.9375 124.603515625 57 143.623046875 57 156.737304688 c 0
 57 172.916992188 103.640625 280.603515625 140.353515625 344.850585938 c 0
 161.67578125 382.099609375 195.314453125 447.16015625 215.44921875 488.65234375 c 0
 250.145507812 558.825195312 260.626953125 582.379882812 304.32421875 690.071289062 c 0
 314.661132812 716.080078125 328.5859375 736.641601562 337.188476562 741.151367188 c 0
375.276367188 469.50390625 m 0
 375.276367188 511.313476562 374.03125 544.14453125 366.520507812 546.727539062 c 0
 355.41796875 549.05859375 289.94140625 414.51953125 292.403320312 397.375976562 c 0
 294.401367188 383.462890625 312.139648438 386.649414062 339.231445312 391.149414062 c 0
 351.24609375 393.155273438 363.26171875 395.16015625 375.276367188 397.166015625 c 1
 375.276367188 421.278320312 375.276367188 445.391601562 375.276367188 469.50390625 c 0
EndSplineSet
EndChar

StartChar: B
Encoding: 66 66 34
Width: 543
Flags: W
HStem: 107.128 110.236<187.24 318.992>
LayerCount: 2
Fore
SplineSet
132.3125 695.28125 m 0
 150.409179688 703.633789062 184.365234375 714.998046875 206.818359375 719.19140625 c 0
 327.961914062 742.517578125 408.633789062 720.56640625 458.25390625 651.377929688 c 0
 499.940429688 594.40625 490.321289062 492.715820312 437.125976562 431.8203125 c 0
 425.772460938 419.047851562 415.927734375 406.829101562 415.927734375 402.5 c 0
 415.927734375 397.791992188 424.009765625 385.030273438 432.595703125 370.005859375 c 0
 457.869140625 329.990234375 468.251953125 278.821289062 458.569335938 242.168945312 c 0
 433.24609375 150.01953125 382.51953125 107.127929688 300.294921875 107.127929688 c 0
 111.603515625 107.127929688 88.275390625 114.2109375 67.6005859375 168.65625 c 0
 56.228515625 197.084960938 56.376953125 198.796875 66.607421875 213.118164062 c 0
 73.4423828125 222.9921875 78.41015625 240.95703125 78.41015625 254.982421875 c 0
 78.41015625 267.43359375 81.23828125 291.555664062 84.7353515625 307.642578125 c 0
 95.7373046875 358.251953125 107.094726562 484.495117188 113.852539062 542.615234375 c 0
 119.520507812 587.9609375 118.892578125 603.684570312 110.075195312 621.322265625 c 0
 104.580078125 632.999023438 99.6875 650.6640625 99.6875 661.365234375 c 0
 99.6875 676.424804688 103.939453125 681.094726562 132.3125 695.28125 c 0
363.21484375 547.0546875 m 0
 381.560546875 581.678710938 383.25390625 599.697265625 363.61328125 610.704101562 c 0
 341.638671875 622.741210938 256.979492188 613.662109375 241.254882812 597.512695312 c 0
 234.796875 590.87890625 212.870117188 497.705078125 216.368164062 475.754882812 c 0
 219.206054688 457.952148438 233.616210938 457.526367188 258.5859375 462.076171875 c 0
 306.953125 470.71484375 336.069335938 494.157226562 363.21484375 547.0546875 c 0
317.821289062 237.162109375 m 0
 339.693359375 258.17578125 356.01953125 307.225585938 345.19140625 324.702148438 c 0
 336.294921875 340.483398438 277.448242188 343.54296875 226.71875 335.09375 c 0
 216.918945312 333.584960938 207.120117188 332.075195312 197.321289062 330.56640625 c 1
 193.836914062 305.91015625 185.642578125 262.7890625 187.041015625 240.3046875 c 0
 188.631835938 214.73828125 205.703125 214.4375 247.97265625 217.364257812 c 0
 289.419921875 220.202148438 304.063476562 224.520507812 317.821289062 237.162109375 c 0
EndSplineSet
EndChar

StartChar: C
Encoding: 67 67 35
Width: 682
Flags: W
HStem: 119.521 110.603<158.637 323.275> 586.184 102.243<420.542 564.244>
LayerCount: 2
Fore
SplineSet
235.607421875 602.202148438 m 0
 308.903320312 653.962890625 337.1328125 669.336914062 388.638671875 688.426757812 c 0
 439.998046875 706.756835938 525.1875 710.237304688 541.950195312 697.341796875 c 0
 558.920898438 683.086914062 582.15234375 638.435546875 582.15234375 621.276367188 c 0
 582.15234375 596.462890625 569.931640625 589.03515625 510.046875 586.18359375 c 0
 464.950195312 583.333007812 445.420898438 577.4453125 395.123046875 552.608398438 c 0
 329.951171875 521.288085938 266.922851562 476.544921875 235.108398438 438.485351562 c 0
 212.947265625 411.616210938 166.099609375 313.346679688 158.12890625 277.116210938 c 0
 150.703125 242.208984375 164.942382812 230.124023438 209.068359375 230.124023438 c 0
 263.708007812 230.124023438 492.938476562 294.216796875 519.043945312 316.671875 c 0
 521.368164062 318.99609375 535.848632812 322.322265625 551.319335938 322.322265625 c 0
 570.44140625 322.322265625 587.7578125 313.231445312 599.985351562 300.270507812 c 0
 619.6796875 279.39453125 625.348632812 249.705078125 606.407226562 232.375 c 0
 594.017578125 221.943359375 444.336914062 164.202148438 428.3046875 164.202148438 c 0
 421.986328125 164.202148438 414.71484375 161.236328125 410.611328125 157.896484375 c 0
 399.37890625 147.755859375 281.073242188 120.219726562 242.537109375 119.521484375 c 0
 164.290039062 118.106445312 139.28125 126.991210938 100.021484375 169.7578125 c 0
 68.638671875 204.625976562 58.1220703125 243.436523438 61.65234375 310.495117188 c 0
 65.1689453125 371.704101562 85.51953125 427.239257812 127.197265625 490.108398438 c 0
 167.622070312 551.099609375 176.91015625 561.078125 235.607421875 602.202148438 c 0
EndSplineSet
EndChar

StartChar: D
Encoding: 68 68 36
Width: 604
Flags: W
LayerCount: 2
Fore
SplineSet
203.506835938 163.765625 m 1
 199.264648438 167.073242188 193.137695312 172.216796875 189.565429688 167.798828125 c 1
 189.38671875 168.084960938 l 1
 188.75 166.783203125 183.059570312 155.93359375 177.41796875 143.924804688 c 0
 155.522460938 100.25390625 108.452148438 102.713867188 83.3388671875 158.15625 c 0
 56.16015625 216.237304688 58.71875 313.33984375 94.1787109375 522.6953125 c 0
 99.8837890625 555.373046875 104.143554688 601.978515625 104.143554688 626.241210938 c 0
 104.143554688 660.934570312 107.176757812 673.697265625 116.0703125 680.850585938 c 0
 127.875 691.579101562 176.014648438 706.352539062 211.264648438 709.223632812 c 0
 252.975585938 714.29296875 271.56640625 716.643554688 321.75 707.096679688 c 0
 402.911132812 693.631835938 482.715820312 632.556640625 519.924804688 556.04296875 c 0
 549.34765625 494.782226562 550.64453125 391.93359375 523.525390625 340.91015625 c 0
 506.09765625 308.173828125 407.383789062 218.439453125 390.93359375 218.439453125 c 0
 384.948242188 218.439453125 365.349609375 206.216796875 344.400390625 192.181640625 c 0
 283.848632812 148.540039062 260.54296875 140.08984375 234.72265625 148.936523438 c 0
 222.397460938 153.268554688 207.801757812 160.021484375 203.588867188 163.830078125 c 1
 203.506835938 163.765625 l 1
367.333984375 583.509765625 m 0
 318.65625 603.67578125 241.240234375 604.208984375 227.204101562 580.518554688 c 0
 210.750976562 560.548828125 177.157226562 371.805664062 177.157226562 305.673828125 c 0
 177.157226562 297.098632812 178.538085938 290.083007812 181.684570312 284.725585938 c 0
 194.98828125 261.7109375 234.338867188 275.169921875 301.911132812 317.017578125 c 0
 422.12109375 392.26953125 444.58203125 421.879882812 440.276367188 505.909179688 c 0
 439.500976562 529.086914062 395.21875 574.486328125 367.333984375 583.509765625 c 0
EndSplineSet
EndChar

StartChar: E
Encoding: 69 69 37
Width: 632
Flags: W
HStem: 191.514 114.093<384.953 455.082> 489.22 20G<393.246 409.991> 600.034 112.734<253.426 557.086>
LayerCount: 2
Fore
SplineSet
369.587890625 712.768554688 m 0
 412.4609375 714.916015625 446.780273438 717.161132812 450.3359375 719.626953125 c 0
 453.727539062 722.586914062 494.383789062 722.735351562 519.146484375 717.782226562 c 0
 555.436523438 710.250976562 589.028320312 653.493164062 572.93359375 631.604492188 c 0
 563.424804688 617.659179688 503.255859375 602.161132812 442.53515625 600.034179688 c 0
 376.126953125 597.899414062 275.264648438 585.930664062 249.624023438 577.229492188 c 0
 229.303710938 571.318359375 224.962890625 564.030273438 218.681640625 531.342773438 c 0
 213.091796875 501.86328125 212.9453125 466.3359375 240.813476562 477.484375 c 0
 255.333984375 483.53125 385.676757812 509.219726562 400.815429688 509.219726562 c 0
 419.166992188 509.219726562 459.987304688 470.358398438 464.724609375 446.671875 c 0
 472.047851562 412.720703125 452.829101562 397.19140625 384.416992188 386.53125 c 0
 309.087890625 374.600585938 304.870117188 366.03125 236.525390625 348.190429688 c 0
 183.5546875 335.416992188 175.344726562 328.502929688 175.344726562 293.280273438 c 0
 175.344726562 284.7578125 175.344726562 276.234375 175.344726562 267.711914062 c 1
 211.513671875 272.794921875 240.03515625 276.857421875 279.48828125 286.594726562 c 0
 302.23828125 292.209960938 349.583007812 299.305664062 384.953125 301.422851562 c 2
 447.94921875 305.606445312 l 1
 476.038085938 278.041015625 l 2
 496.469726562 256.904296875 503.677734375 244.022460938 503.677734375 229.450195312 c 0
 503.677734375 203.080078125 494.978515625 197.93359375 428.453125 191.513671875 c 0
 382.8515625 187.228515625 292.348632812 168.075195312 211.35546875 145.328125 c 0
 197.784179688 141.182617188 172.638671875 138.333007812 155.149414062 138.333007812 c 0
 129.272460938 138.333007812 121.978515625 141.352539062 103.758789062 160.97265625 c 0
 92.125 172.606445312 76.525390625 200.166992188 69.58203125 220.301757812 c 0
 59.0234375 254.088867188 58.3212890625 264.47265625 66.845703125 318.462890625 c 0
 71.09765625 352.474609375 78.1953125 389.9921875 81.666015625 401.095703125 c 0
 90.333984375 433.60546875 123.607421875 626.481445312 123.607421875 647.889648438 c 0
 123.607421875 657.022460938 129.123046875 671.6171875 135.80078125 679.631835938 c 0
 147.888671875 694.262695312 213.26953125 704.2421875 369.587890625 712.768554688 c 0
EndSplineSet
EndChar

StartChar: F
Encoding: 70 70 38
Width: 622
Flags: W
HStem: 388.687 117.714<182.803 442.747> 634.077 111.317<287.555 539.379>
VStem: 66.0059 109.199<177.963 381.774>
LayerCount: 2
Fore
SplineSet
224.23046875 718.489257812 m 0
 270.112304688 728.40625 332.680664062 738.323242188 363.263671875 742.572265625 c 0
 392.9375 746.088867188 441.672851562 747.505859375 470.416015625 745.39453125 c 0
 520.885742188 742.551757812 523.626953125 741.635742188 545.314453125 717.849609375 c 0
 563.228515625 697.640625 579.26953125 662.541015625 552.21484375 645.03515625 c 0
 541.7890625 638.518554688 517.96484375 634.78515625 480.44921875 634.077148438 c 0
 418.017578125 632.61328125 311.4609375 614.702148438 258.959960938 608.529296875 c 0
 228.78515625 604.954101562 223.123046875 601.258789062 213.8203125 577.923828125 c 0
 208.134765625 564.166992188 203.192382812 544.2578125 203.192382812 532.99609375 c 0
 203.192382812 513.052734375 207.732421875 510.624023438 245.731445312 506.400390625 c 0
 269.86328125 503.506835938 319.282226562 506.385742188 367.4453125 512.786132812 c 0
 400.715820312 517.126953125 426.250976562 519.5859375 445.614257812 519.587890625 c 0
 493.079101562 519.59375 503.538085938 506.404296875 503.538085938 469.875976562 c 0
 503.538085938 455.103515625 498.5703125 446.123046875 481.833984375 433.5703125 c 0
 440.010742188 401.397460938 397.666015625 391.522460938 289.80859375 388.686523438 c 0
 234.65625 387.264648438 187.9375 385.0859375 182.802734375 381.948242188 c 0
 177.021484375 378.48046875 175.205078125 358.892578125 175.205078125 339.379882812 c 0
 175.205078125 270.759765625 161.124023438 184.336914062 150.3046875 172.24609375 c 0
 135.609375 155.70703125 98.57421875 154.82421875 86.197265625 174.764648438 c 0
 63.8271484375 209.020507812 58.9326171875 238.556640625 66.005859375 300.095703125 c 0
 74.6015625 377.463867188 86.8876953125 499.30859375 100.018554688 571.529296875 c 0
 106.3984375 602.720703125 112.79296875 638.225585938 114.225585938 649.682617188 c 0
 120.40234375 692.234375 132.627929688 700.72265625 224.23046875 718.489257812 c 0
EndSplineSet
EndChar

StartChar: G
Encoding: 71 71 39
Width: 726
Flags: W
HStem: 371.875 104.73<407.912 516.011> 604.273 117.003<472.45 584.361>
LayerCount: 2
Fore
SplineSet
215.303710938 582.9609375 m 0
 277.904296875 644.327148438 346.553710938 678.844726562 478.592773438 714.267578125 c 0
 491.590820312 717.736328125 516.7109375 721.276367188 533.248046875 721.276367188 c 0
 558.409179688 721.975585938 565.686523438 718.948242188 585.321289062 699.314453125 c 0
 619.12890625 665.506835938 634.616210938 611.807617188 567.647460938 604.2734375 c 0
 501.71875 596.419921875 403.905273438 565.484375 377.766601562 544.131835938 c 0
 372.329101562 539.305664062 364.625 535.49609375 363.265625 535.49609375 c 0
 332.7421875 535.49609375 215.677734375 405.202148438 179.234375 334.151367188 c 0
 172.939453125 322.06640625 166.645507812 309.981445312 160.3515625 297.896484375 c 1
 166.059570312 294.907226562 171.767578125 291.916992188 177.475585938 288.926757812 c 0
 186.883789062 284.174804688 227.1328125 277.338867188 269.298828125 273.063476562 c 0
 357.662109375 263.817382812 409.38671875 271.678710938 472.06640625 302.388671875 c 0
 504.936523438 319.41015625 511.7734375 326.022460938 513.985351562 346.216796875 c 0
 514.776367188 354.76953125 515.565429688 363.323242188 516.357421875 371.875 c 1
 502.58203125 370.857421875 488.8046875 369.842773438 475.028320312 368.826171875 c 0
 439.563476562 367.416015625 436.081054688 368.338867188 409.629882812 391.633789062 c 0
 358.516601562 435.3125 346.91796875 468.65234375 441.814453125 476.60546875 c 0
 471.266601562 479.450195312 513.924804688 484.409179688 535.759765625 488.69140625 c 0
 581.942382812 496.389648438 605.5 488.241210938 631.2109375 455.58203125 c 0
 642.9765625 440.354492188 645.545898438 430.772460938 642.770507812 410.655273438 c 0
 640.568359375 395.239257812 642.681640625 372.465820312 647.151367188 359.80078125 c 0
 657.756835938 331.520507812 656.763671875 154.0625 649.098632812 145.342773438 c 0
 637.793945312 134.807617188 608.782226562 146.794921875 591.28125 171.99609375 c 0
 587.862304688 177.076171875 584.661132812 181.609375 581.669921875 185.52734375 c 0
 562.674804688 210.3984375 549.737304688 211.79296875 528.256835938 195.294921875 c 0
 517.053710938 187.276367188 479.82421875 172.204101562 445.8359375 162.357421875 c 0
 392.747070312 147.48046875 374.46875 145.428710938 325.666992188 148.256835938 c 0
 271.959960938 152.500976562 240.0703125 158.118164062 174.274414062 175.842773438 c 0
 129.512695312 187.033203125 94.69921875 214.9140625 75.1669921875 253.284179688 c 0
 59.64453125 283.62109375 57.7109375 293.137695312 61.9501953125 329.887695312 c 0
 66.8388671875 377.368164062 98.4873046875 441.587890625 144.358398438 495.926757812 c 0
 159.481445312 513.931640625 172.004882812 530.79296875 172.611328125 536.38671875 c 0
 173.997070312 540.129882812 192.876953125 561.555664062 215.303710938 582.9609375 c 0
EndSplineSet
EndChar

StartChar: H
Encoding: 72 72 40
Width: 618
Flags: W
HStem: 404.367 117.619<216.791 421.33>
VStem: 429.406 105.642<191.271 403.719>
LayerCount: 2
Fore
SplineSet
123.756835938 624.926757812 m 0
 129.405273438 677.176757812 137.6015625 725.15234375 139.708984375 728.841796875 c 0
 147.37109375 739.0859375 162.750976562 738.508789062 185.783203125 723.103515625 c 0
 223.263671875 698.07421875 225.697265625 689.969726562 220.827148438 601.947265625 c 0
 219.149414062 574.553710938 217.470703125 547.159179688 215.79296875 519.765625 c 1
 237.078125 520.505859375 258.364257812 521.24609375 279.649414062 521.986328125 c 0
 375.381835938 524.796875 416.401367188 529.325195312 421.599609375 543.465820312 c 0
 424.275390625 550.744140625 419.643554688 583.737304688 412.671875 618.5859375 c 0
 402.928710938 668.997070312 402.470703125 684.68359375 408.338867188 698.653320312 c 0
 422.40234375 730.217773438 468.307617188 711.97265625 498.6640625 671.928710938 c 0
 519.053710938 644.0625 532.211914062 549.247070312 535.047851562 384.001953125 c 0
 536.469726562 323.599609375 540.677734375 257.760742188 545.029296875 237.456054688 c 0
 555.393554688 187.228515625 545.125 157.493164062 512.77734375 142.703125 c 0
 490.600585938 132.565429688 472.33984375 143.493164062 455.427734375 181.544921875 c 0
 439.313476562 216.577148438 435.084960938 243.65625 429.40625 362.918945312 c 0
 428.665039062 376.735351562 427.922851562 390.549804688 427.182617188 404.3671875 c 1
 371.321289062 402.56640625 294.860351562 400.443359375 247.340820312 395.056640625 c 0
 231.641601562 393.33203125 215.943359375 391.606445312 200.244140625 389.881835938 c 1
 193.349609375 337.15234375 188.549804688 294.258789062 183.985351562 223.249023438 c 0
 179.056640625 161.487304688 174.573242188 140.768554688 165.5 130.399414062 c 0
 137.458007812 98.7607421875 96.11328125 126.630859375 80.40234375 177.688476562 c 0
 73.478515625 201.233398438 74.0859375 219.075195312 84.025390625 282.264648438 c 0
 98.1748046875 374.940429688 98.59375 398.55859375 84.9951171875 417.446289062 c 0
 79.73046875 424.68359375 71.8408203125 444.5234375 66.919921875 460.693359375 c 0
 56.5478515625 493.881835938 61.3330078125 503.409179688 93.275390625 518.685546875 c 0
 112.37109375 527.852539062 113.888671875 533.99609375 123.756835938 624.926757812 c 0
EndSplineSet
EndChar

StartChar: I
Encoding: 73 73 41
Width: 270
Flags: W
LayerCount: 2
Fore
SplineSet
104.791992188 651.7734375 m 0
 104.791992188 718.229492188 116.3828125 762.961914062 176.547851562 711.358398438 c 0
 213.321289062 679.815429688 216.848632812 659.256835938 203.360351562 555.98046875 c 0
 191.420898438 466.342773438 170.155273438 348.724609375 172.131835938 251.739257812 c 0
 172.844726562 198.08203125 171.4140625 186.135742188 159.172851562 170.192382812 c 0
 130.373046875 130.001953125 84.94140625 150.063476562 69.2412109375 207.79296875 c 0
 60.251953125 240.399414062 62.947265625 318.653320312 76.3955078125 409.556640625 c 0
 99.7958984375 564.853515625 104.791992188 604.717773438 104.791992188 651.7734375 c 0
EndSplineSet
EndChar

StartChar: J
Encoding: 74 74 42
Width: 664
Flags: W
HStem: 117.057 21G<216.247 247.407> 602.872 128.36<218.165 351.875 458.703 558.938>
VStem: 61.7949 58.2197<273.676 334.843> 354.021 103.26<337.151 602.787>
LayerCount: 2
Fore
SplineSet
209.41015625 640.924804688 m 0
 194.259765625 685.3984375 199.120117188 724.37109375 248.627929688 731.232421875 c 0
 261.315429688 733.267578125 336.997070312 733.331054688 415.7109375 731.916015625 c 2
 558.938476562 728.393554688 l 1
 580.924804688 707.094726562 l 2
 611.706054688 677.012695312 617.10546875 644.634765625 597.172851562 623.373046875 c 0
 583.587890625 609.108398438 575.676757812 606.420898438 521.591796875 604.998046875 c 0
 500.62890625 604.260742188 479.665039062 603.525390625 458.703125 602.787109375 c 1
 458.229492188 562.508789062 457.75390625 522.23046875 457.280273438 481.952148438 c 0
 455.883789062 301.857421875 440.772460938 254.895507812 366.669921875 186.631835938 c 0
 318.778320312 143.607421875 266.086914062 117.056640625 228.7265625 117.056640625 c 0
 203.766601562 117.056640625 129.44921875 139.88671875 111.163085938 153.431640625 c 0
 94.0068359375 166.62890625 65.2958984375 238.716796875 61.794921875 282.130859375 c 0
 58.2333984375 327.013671875 58.404296875 325.397460938 77.216796875 332.7890625 c 0
 100.806640625 341.55078125 113.203125 334.833007812 120.014648438 309.629882812 c 0
 128.764648438 278.275390625 147.546875 261.8359375 183.013671875 256.762695312 c 0
 227.802734375 250.260742188 266.370117188 264.883789062 305.828125 304.263671875 c 0
 349.66015625 348.086914062 356.811523438 376.372070312 354.020507812 501.135742188 c 0
 353.305664062 535.047851562 352.588867188 568.958984375 351.875 602.872070312 c 1
 333.625 602.872070312 315.374023438 602.872070312 297.123046875 602.872070312 c 0
 237.176757812 602.872070312 220.0859375 611.091796875 209.41015625 640.924804688 c 0
EndSplineSet
EndChar

StartChar: K
Encoding: 75 75 43
Width: 632
Flags: W
HStem: 694.898 20G<455.888 467.882>
LayerCount: 2
Fore
SplineSet
132.921875 686.897460938 m 0
 132.921875 710.3359375 135.815429688 730.599609375 137.86328125 732.647460938 c 0
 139.19140625 733.975585938 154.930664062 736.189453125 172.69140625 734.059570312 c 0
 196.791992188 731.274414062 207.044921875 725.419921875 225.666015625 705.055664062 c 0
 251.751953125 676.400390625 250.162109375 689.8125 236.176757812 570.90625 c 0
 230.194335938 527.251953125 255.170898438 547.546875 284.774414062 572.930664062 c 0
 404.0546875 675.42578125 452.96875 714.088867188 458.806640625 714.8984375 c 0
 476.958007812 714.392578125 518.764648438 686.665039062 525.978515625 670.268554688 c 0
 537.783203125 644.575195312 536.07421875 615.16796875 522.849609375 600.62109375 c 0
 507.603515625 583.294921875 431.311523438 519.265625 380.622070312 479.673828125 c 0
 299.12890625 417.08984375 298.166015625 416.284179688 313.885742188 391.893554688 c 0
 320.98046875 381.05859375 339.086914062 357.670898438 354.466796875 339.876953125 c 0
 369.017578125 322.23828125 404.5625 277.533203125 431.689453125 240.705078125 c 0
 459.734375 203.65234375 492.815429688 166.790039062 507.137695312 158.499023438 c 0
 548.74609375 133.815429688 576.823242188 100.109375 576.823242188 76.9677734375 c 0
 576.823242188 49.9033203125 552.919921875 24.8583984375 528.258789062 24.8583984375 c 0
 500.504882812 24.8583984375 429.331054688 86.2822265625 368.708984375 165.745117188 c 0
 340.81640625 201.954101562 303.913085938 248.044921875 286.392578125 267.311523438 c 0
 276.05859375 278.76953125 208.109375 343.299804688 196.098632812 322.922851562 c 0
 185.625976562 304.641601562 168.982421875 184.625976562 172.619140625 150.448242188 c 0
 176.862304688 114.373046875 175.939453125 112.564453125 155.668945312 93.69140625 c 0
 130.703125 70.47265625 109.811523438 64.9921875 82.8076171875 103.249023438 c 0
 63.8271484375 129.259765625 62 135.791015625 62 185.478515625 c 0
 62 214.963867188 68.375 273.849609375 76.8447265625 316.903320312 c 0
 98.2763671875 424.061523438 109.467773438 492.8984375 125.796875 600.677734375 c 0
 130.08203125 624.958984375 132.921875 663.323242188 132.921875 686.897460938 c 0
EndSplineSet
EndChar

StartChar: L
Encoding: 76 76 44
Width: 519
Flags: W
HStem: 120.939 126.948<195.054 404.945>
VStem: 141.167 105.031<498.045 671.497>
LayerCount: 2
Fore
SplineSet
141.166992188 633.135742188 m 0
 144.0078125 671.494140625 148.244140625 684.662109375 158.744140625 693.849609375 c 0
 176.401367188 708.790039062 175.473632812 709.346679688 207.967773438 685.208984375 c 0
 259.553710938 646.669921875 265.342773438 627.176757812 246.198242188 548.833007812 c 0
 230.329101562 483.305664062 193.962890625 295.853515625 192.541992188 275.31640625 c 0
 192.280273438 268.5546875 192.018554688 261.79296875 191.756835938 255.03125 c 1
 262.08203125 252.635742188 332.689453125 250.24609375 404.9453125 247.887695312 c 1
 430.487304688 222.345703125 l 2
 461.107421875 191.7265625 463.467773438 164.446289062 439.631835938 138.569335938 c 0
 424.879882812 122.474609375 423.504882812 122.364257812 297.98828125 120.939453125 c 0
 86.9716796875 118.806640625 87.3564453125 119.288085938 67.98828125 176.702148438 c 0
 55.4833984375 212.129882812 57.3623046875 226.134765625 93.5908203125 380.98828125 c 0
 124.092773438 510.802734375 136.181640625 574.03125 141.166992188 633.135742188 c 0
EndSplineSet
EndChar

StartChar: M
Encoding: 77 77 45
Width: 756
Flags: W
VStem: 66.6729 105.047<91.3153 173.051> 561.888 111.218<139.469 384.984>
LayerCount: 2
Fore
SplineSet
534.68359375 677.3046875 m 0
 538.298828125 682.0234375 546.8984375 686.524414062 553.817382812 686.524414062 c 0
 567.052734375 686.524414062 623.217773438 655.5703125 634.662109375 641.145507812 c 0
 650.44140625 621.994140625 667.430664062 475.262695312 673.10546875 281.469726562 c 0
 675.241210938 232.038085938 680.100585938 177.983398438 685.270507812 161.627929688 c 0
 696.3359375 123.591796875 684.671875 93.2978515625 653.2734375 78.0029296875 c 0
 631.469726562 65.7939453125 630.627929688 65.7958984375 617.694335938 80.1416015625 c 0
 579.079101562 114.834960938 568.1953125 172.345703125 561.887695312 380.888671875 c 0
 561.887695312 383.958984375 562.209960938 387.805664062 559.278320312 389.458984375 c 0
 550.918945312 394.176757812 532.133789062 356.126953125 470.408203125 237.34765625 c 0
 443.112304688 183.64453125 427.118164062 168.793945312 399.056640625 168.793945312 c 0
 367.54296875 168.793945312 340.338867188 193.942382812 330.690429688 234.751953125 c 1
 318.708984375 274.813476562 297.9765625 348.942382812 288.711914062 391.370117188 c 0
 283.48046875 411.500976562 279.19921875 424.034179688 272.900390625 425.294921875 c 0
 265.5078125 426.774414062 262.939453125 413.997070312 260.760742188 398.232421875 c 0
 255.158203125 360.642578125 224.748046875 249.7890625 219.440429688 244.321289062 c 0
 215.9140625 240.750976562 213.81640625 233.919921875 213.81640625 228.369140625 c 0
 213.81640625 223.883789062 204.869140625 198.19140625 193.032226562 172.314453125 c 0
 181.744140625 147.10546875 171.719726562 124.135742188 171.719726562 119.858398438 c 0
 171.719726562 118.092773438 163.735351562 104.193359375 153.866210938 91.4892578125 c 0
 139.103515625 73.0576171875 133.331054688 70.30078125 119.493164062 73.755859375 c 0
 91.3759765625 80.7978515625 79.359375 94.8818359375 66.6728515625 136.862304688 c 0
 54.62109375 173.548828125 54.55859375 173.29296875 70.091796875 207.021484375 c 0
 94.591796875 256.5390625 92.802734375 258.139648438 115.543945312 313.953125 c 0
 135.559570312 363.352539062 170.977539062 501.05859375 183.009765625 580.155273438 c 0
 188.737304688 615.827148438 194.5078125 640.416992188 201.870117188 655.499023438 c 0
 213.852539062 682.950195312 229.62890625 683.650390625 261.375 665.254882812 c 0
 291.755859375 648.961914062 297.376953125 642.013671875 328.227539062 580.15234375 c 0
 360.321289062 515.434570312 388.884765625 432.498046875 388.884765625 402.836914062 c 0
 388.884765625 394.06640625 390.119140625 388.018554688 394.735351562 386.327148438 c 0
 410.481445312 380.556640625 442.431640625 446.599609375 442.431640625 446.599609375 c 1
 444.344726562 453.120117188 454.170898438 475.424804688 467.122070312 504.254882812 c 0
 480.48046875 533.374023438 500.08984375 582.180664062 509.946289062 612.765625 c 0
 519.69140625 643.487304688 531.271484375 673.219726562 534.68359375 677.3046875 c 0
EndSplineSet
EndChar

StartChar: N
Encoding: 78 78 46
Width: 653
Flags: W
HStem: 74.5039 21G<446.642 476.138>
LayerCount: 2
Fore
SplineSet
456.366210938 670.916992188 m 0
 448.649414062 733.721679688 448.689453125 733.173828125 463.83984375 745.235351562 c 0
 483.6328125 761.813476562 504.522460938 757.323242188 538.456054688 724.096679688 c 0
 589.302734375 676.732421875 598.698242188 616.338867188 582.372070312 429.651367188 c 0
 573.169921875 315.680664062 551.795898438 196.453125 532.923828125 151.720703125 c 0
 527.123046875 138.66796875 522.790039062 121.680664062 522.790039062 114.556640625 c 0
 522.790039062 96.4013671875 490.676757812 74.50390625 461.599609375 74.50390625 c 0
 431.68359375 74.50390625 426.362304688 80.4072265625 394.163085938 161.58203125 c 0
 347.409179688 280.838867188 312.666992188 355.95703125 292.73828125 382.745117188 c 0
 283.590820312 394.709960938 276.341796875 407.302734375 275.829101562 408.982421875 c 0
 275.4921875 413.301757812 273.354492188 416.76171875 270.043945312 421.8671875 c 0
 259.051757812 438.828125 230.567382812 472.225585938 222.549804688 467.02734375 c 0
 216.810546875 463.415039062 215.126953125 440.999023438 215.126953125 417.393554688 c 0
 215.126953125 321.25 171.021484375 128.615234375 145.740234375 107.991210938 c 0
 109.938476562 79.0703125 69.3369140625 103.500976562 61.1279296875 158.9140625 c 0
 57.6865234375 180.940429688 61.78515625 207.536132812 78.087890625 266.369140625 c 0
 111.482421875 386.44921875 117.876953125 457.163085938 121.44140625 719.4453125 c 0
 122.384765625 721.301757812 128.1640625 725.490234375 135.438476562 728.533203125 c 0
 161.692382812 737.634765625 212.834960938 705.185546875 237.05078125 659.4375 c 0
 244.75390625 645.901367188 254.466796875 628.24609375 259.42578125 620.319335938 c 0
 305.467773438 545.805664062 327.682617188 511.119140625 340.564453125 496.560546875 c 0
 348.764648438 487.5234375 354.564453125 476.083984375 354.564453125 474.130859375 c 0
 354.564453125 468.126953125 363.390625 454.943359375 373.169921875 441.442382812 c 0
 382.69140625 428.295898438 401.54296875 392.83984375 414.033203125 363.194335938 c 0
 427.190429688 333.607421875 439.889648438 306.650390625 445.815429688 304.997070312 c 0
 458.3828125 303.157226562 477.629882812 410.4296875 483.100585938 476.764648438 c 0
 485.954101562 511.7265625 483.813476562 539.025390625 475.921875 567.71875 c 0
 469.612304688 589.45703125 461.227539062 636.305664062 456.366210938 670.916992188 c 0
135.438476562 728.533203125 m 1
 135.438476562 728.533203125 135.483398438 728.551757812 135.505859375 728.561523438 c 2
 135.438476562 728.533203125 l 1
222.549804688 464.52734375 m 1
 222.549804688 464.52734375 222.512695312 464.50390625 222.495117188 464.491210938 c 2
 222.549804688 464.52734375 l 1
EndSplineSet
EndChar

StartChar: O
Encoding: 79 79 47
Width: 733
Flags: W
LayerCount: 2
Fore
SplineSet
371.301757812 707.802734375 m 0
 431.885742188 714.923828125 467.54296875 709.3046875 521.109375 684.403320312 c 0
 576.6015625 657.993164062 589.26953125 647.260742188 627.5078125 589.361328125 c 0
 656.870117188 545.017578125 668.931640625 486.356445312 668.22265625 385.836914062 c 0
 667.516601562 302.255859375 655.111328125 268.23046875 604.447265625 218.439453125 c 0
 564.525390625 179.69921875 452.97265625 116.203125 403.340820312 104.958984375 c 0
 344.008789062 90.791015625 179.587890625 114.068359375 146.038085938 140.42578125 c 0
 113.2265625 165.987304688 88.6630859375 205.83203125 73.8642578125 258.16015625 c 0
 59.6865234375 304.234375 59.041015625 311.643554688 67.5634765625 374.143554688 c 0
 77.484375 454.20703125 85.6416015625 475.432617188 128.143554688 537.6015625 c 0
 173.618164062 604.825195312 171.3515625 602.540039062 228.946289062 641.139648438 c 0
 299.575195312 688.915039062 330.538085938 702.870117188 371.301757812 707.802734375 c 0
492.043945312 561.58984375 m 0
 488.586914062 568.290039062 462.15234375 571.046875 435.338867188 570.247070312 c 0
 369.595703125 569.525390625 317.775390625 544.044921875 259.412109375 484.374023438 c 0
 207.34375 430.3359375 181.0625 375.911132812 177.483398438 309.374023438 c 0
 173.861328125 250.697265625 175.602539062 249.270507812 279.782226562 237.232421875 c 0
 348.252929688 229.44140625 351.5859375 230.28125 401.97265625 249.434570312 c 0
 459.7734375 271.583984375 528.008789062 321.853515625 543.96484375 355.672851562 c 0
 549.581054688 367.731445312 556.657226562 382.588867188 560.204101562 389.68359375 c 0
 568.030273438 406.243164062 561.993164062 491.708007812 551.0546875 519.623046875 c 0
 542.606445312 540.858398438 512.51953125 567.96484375 499.184570312 559.606445312 c 0
 497.1015625 558.690429688 494.376953125 559.021484375 492.043945312 561.58984375 c 0
EndSplineSet
EndChar

StartChar: P
Encoding: 80 80 48
Width: 589
Flags: W
HStem: 703.04 20G<98.29 98.3198>
LayerCount: 2
Fore
SplineSet
407.736328125 549.365234375 m 0
 392.21484375 580.373046875 380.060546875 589.572265625 330.0390625 607.32421875 c 0
 297.658203125 619.045898438 225.379882812 623.696289062 218.791015625 610.337890625 c 0
 215.775390625 604.171875 201.639648438 454.709960938 197.280273438 445.798828125 c 0
 194.999023438 441.135742188 198.017578125 435.393554688 201.962890625 432.845703125 c 0
 213.641601562 425.500976562 331.564453125 440.596679688 349.049804688 449.533203125 c 0
 426.486328125 488.564453125 433.16015625 498.436523438 407.736328125 549.365234375 c 0
98.2900390625 722.989257812 m 0
 105.705078125 732.3984375 120.291992188 742.094726562 130.905273438 744.748046875 c 0
 141.479492188 747.391601562 192.623046875 748.932617188 242.438476562 747.518554688 c 0
 332.860351562 746.096679688 332.293945312 745.653320312 377.307617188 720.173828125 c 0
 451.188476562 678.655273438 491.818359375 622.698242188 515.81640625 528.823242188 c 0
 535.65234375 452.3125 534.04296875 425.172851562 511.313476562 394.836914062 c 0
 500.270507812 381.748046875 478.377929688 364.80859375 462.59375 357.259765625 c 0
 418.515625 338.369140625 333.716796875 322.008789062 259.032226562 319.181640625 c 0
 214.458007812 317.079101562 190.895507812 314.430664062 186.234375 305.85546875 c 0
 182.716796875 299.57421875 177.509765625 257.579101562 172.521484375 211.260742188 c 0
 165.40234375 135.083007812 162.65625 125.657226562 147.072265625 111.428710938 c 0
 126.412109375 92.146484375 117.029296875 91.4677734375 92.060546875 109.501953125 c 0
 61.66796875 131.114257812 55.46484375 178.518554688 71.8095703125 289.373046875 c 0
 98.771484375 473.848632812 105.219726562 580.377929688 93.7890625 653.962890625 c 0
 85.96875 702.306640625 86.67578125 706.586914062 98.2900390625 722.989257812 c 0
98.2900390625 722.989257812 m 1
 98.2900390625 722.989257812 98.3134765625 723.0234375 98.326171875 723.040039062 c 2
 98.2900390625 722.989257812 l 1
511.313476562 392.336914062 m 1
 511.313476562 392.336914062 511.28515625 392.298828125 511.271484375 392.280273438 c 2
 511.313476562 392.336914062 l 1
EndSplineSet
EndChar

StartChar: Q
Encoding: 81 81 49
Width: 717
Flags: W
LayerCount: 2
Fore
SplineSet
376.461914062 704.966796875 m 0
 407.014648438 714.170898438 441.346679688 719.703125 452.2890625 717.734375 c 0
 509.162109375 708.618164062 604.278320312 630.307617188 635.111328125 567.375976562 c 0
 653.431640625 530.384765625 654.704101562 521.349609375 654.704101562 448.954101562 c 0
 653.998046875 346.456054688 635.197265625 297.149414062 573.1953125 237.965820312 c 0
 550.734375 216.206054688 530.6484375 195.041015625 530.6484375 189.361328125 c 0
 530.6484375 184.265625 537.143554688 168.649414062 545.047851562 152.342773438 c 0
 565.420898438 111.8515625 562.908203125 87.158203125 539.448242188 70.212890625 c 0
 522.873046875 57.828125 517.311523438 56.6865234375 500.971679688 63.1201171875 c 1
 484.037109375 68.4912109375 457.495117188 97.5078125 437.340820312 132.610351562 c 0
 431.463867188 139.234375 422.333007812 139.284179688 392.6953125 134.751953125 c 0
 264.092773438 103.76953125 133.951171875 152.216796875 86.41796875 247.944335938 c 0
 32.470703125 354.283203125 69.421875 494.28515625 182.3515625 602.127929688 c 0
 228.130859375 645.989257812 292.092773438 680.075195312 376.461914062 704.966796875 c 0
536.299804688 564.506835938 m 0
 522.17578125 579.20703125 506.174804688 591.524414062 498.1484375 591.524414062 c 2
 498.03515625 591.524414062 l 1
 497.922851562 591.50390625 l 1
 429.322265625 585.0625 392.073242188 577.951171875 371.291015625 568.426757812 c 0
 358.077148438 562.796875 336.33984375 553.57421875 323.171875 548.665039062 c 0
 287.798828125 535.24609375 222.116210938 465.692382812 198.750976562 418.163085938 c 0
 185.293945312 391.587890625 178.1796875 363.615234375 175.315429688 332.115234375 c 0
 170.982421875 270.00390625 184.797851562 256.401367188 253.947265625 252.823242188 c 0
 304.571289062 249.446289062 315.961914062 253.993164062 290.336914062 289.432617188 c 0
 266.13671875 322.158203125 266.522460938 362.986328125 286.477539062 384.565429688 c 0
 302.809570312 402.236328125 322.163085938 392.328125 382.456054688 334.365234375 c 0
 433.244140625 285.00390625 448.216796875 284.1015625 492.932617188 330.890625 c 0
 528.884765625 368.783203125 554.591796875 415.22265625 561.799804688 457.755859375 c 0
 570.358398438 511.421875 565.158203125 533.6953125 536.299804688 564.506835938 c 0
EndSplineSet
EndChar

StartChar: R
Encoding: 82 82 50
Width: 585
Flags: W
VStem: 71.0488 105.665<146.466 251.851>
LayerCount: 2
Fore
SplineSet
181.649414062 756.739257812 m 0
 222.5390625 761.662109375 238.107421875 761.673828125 325.504882812 754.610351562 c 0
 411.455078125 747.485351562 489.102539062 687.5390625 504.392578125 617.034179688 c 0
 514.1953125 570.30859375 507.243164062 524.327148438 483.309570312 475.94921875 c 0
 464.509765625 436.625976562 395.102539062 361.466796875 364.82421875 345.500976562 c 0
 339.369140625 332.875976562 343.833984375 316.3046875 372.364257812 300.64453125 c 0
 400.82421875 284.5 484.676757812 208.893554688 509.109375 177.084960938 c 2
 525.965820312 154.859375 l 1
 513.041992188 124.1015625 l 2
 501.095703125 94.8349609375 496.4296875 90.806640625 474.48046875 86.521484375 c 0
 450.342773438 82.2626953125 448.430664062 82.767578125 421.465820312 114.172851562 c 0
 367.337890625 175.678710938 265.969726562 239.127929688 206.794921875 247.15625 c 0
 196.766601562 248.719726562 186.751953125 250.296875 176.713867188 251.850585938 c 1
 176.713867188 235.749023438 176.713867188 219.647460938 176.713867188 203.545898438 c 0
 176.713867188 166.327148438 174.0078125 155.818359375 161.783203125 142.540039062 c 0
 128.413085938 104.469726562 79.611328125 137.930664062 71.048828125 195.012695312 c 0
 60.521484375 267.419921875 78.91796875 588.926757812 100.819335938 712.056640625 c 0
 104.696289062 733.711914062 132.704101562 750.052734375 181.649414062 756.739257812 c 0
390.44921875 613.537109375 m 0
 384.693359375 619.784179688 345.110351562 624.772460938 300.833007812 626.2734375 c 0
 239.150390625 629.623046875 218.884765625 629.5 215.900390625 616.442382812 c 0
 189.294921875 536.538085938 170.311523438 417.669921875 189.623046875 409.723632812 c 0
 207.415039062 402.956054688 294.790039062 455.212890625 334.286132812 493.627929688 c 0
 364.201171875 520.999023438 377.806640625 540.418945312 386.25390625 566.6953125 c 0
 395.16015625 593.15625 397.40625 606.274414062 390.44921875 613.537109375 c 0
EndSplineSet
EndChar

StartChar: S
Encoding: 83 83 51
Width: 675
Flags: W
HStem: 585.851 128.353<333.185 537.675>
LayerCount: 2
Fore
SplineSet
174.237304688 615.123046875 m 0
 219.883789062 671.983398438 281.318359375 703.620117188 368.126953125 714.203125 c 0
 422.197265625 721.24609375 499.827148438 715.33203125 522.1640625 703.826171875 c 0
 528.947265625 700.313476562 534.974609375 695.583984375 540.142578125 690.01953125 c 0
 564.256835938 664.059570312 568.930664062 620.927734375 546.424804688 600.068359375 c 0
 532.9375 587.254882812 524.250976562 585.138671875 464.20703125 585.850585938 c 0
 427.696289062 586.564453125 385.158203125 583.110351562 369.8515625 577.92578125 c 0
 306.912109375 557.46484375 248.91796875 530.64453125 324.184570312 519.17578125 c 0
 375.991210938 511.456054688 489.2265625 470.1875 521.86328125 446.5625 c 0
 563.736328125 416.754882812 570.377929688 410.767578125 593.712890625 382.484375 c 0
 611.94921875 360.038085938 613.026367188 357.387695312 608.063476562 317.684570312 c 0
 602.471679688 266.659179688 570.899414062 210.384765625 524.458984375 167.4609375 c 0
 498.393554688 143.509765625 488.034179688 138.987304688 454.06640625 134.056640625 c 0
 372.997070312 124.202148438 228.505859375 139.774414062 133.313476562 169.424804688 c 0
 116.997070312 174.524414062 102.0625 183.552734375 89.8173828125 194.502929688 c 0
 60.0830078125 221.092773438 47.525390625 257.486328125 64.927734375 276.719726562 c 0
 75.9033203125 288.985351562 79.0078125 289.532226562 164.666992188 271.686523438 c 0
 230.0859375 257.436523438 324.41015625 251.032226562 379.951171875 257.4609375 c 0
 422.58203125 261.720703125 430.85546875 265.834960938 454.743164062 290.81640625 c 0
 469.357421875 305.663085938 481.979492188 320.920898438 481.979492188 326.61328125 c 0
 481.979492188 340.232421875 449.581054688 356.111328125 417.25 363.799804688 c 0
 237.723632812 406.379882812 215.809570312 413.469726562 189.193359375 433.578125 c 0
 158.87890625 456.458984375 139.32421875 496.875 139.32421875 537.9609375 c 0
 139.32421875 567.97265625 143.014648438 575.384765625 174.237304688 615.123046875 c 0
EndSplineSet
EndChar

StartChar: T
Encoding: 84 84 52
Width: 653
Flags: W
HStem: 556.233 21G<90.5166 190.469> 616.342 129.765<409.692 562.711>
VStem: 279.006 88.0957<324.098 509.071>
LayerCount: 2
Fore
SplineSet
199.724609375 714.215820312 m 0
 274.28125 726.2578125 389.375 740.440429688 463.215820312 746.106445312 c 0
 534.083984375 751.034179688 575.760742188 730.126953125 591.627929688 681.141601562 c 0
 600.782226562 653.684570312 600.365234375 653.53515625 584.431640625 637.600585938 c 0
 570.206054688 623.375976562 560.732421875 620.611328125 492.411132812 616.341796875 c 0
 410.68359375 610.677734375 407.790039062 609.603515625 398.538085938 561.858398438 c 0
 378.297851562 459.678710938 371.987304688 408.35546875 367.1015625 305.451171875 c 0
 362.913085938 212.510742188 359.1640625 183.633789062 350.748046875 169.813476562 c 0
 331.100585938 140.158203125 286.64453125 137.764648438 265.673828125 177.463867188 c 0
 251.134765625 204.338867188 254.107421875 332.03515625 274.331054688 495.092773438 c 0
 279.198242188 533.987304688 282.30859375 570.796875 279.005859375 578.015625 c 0
 273.651367188 589.810546875 261.147460938 587.682617188 190.46875 573.033203125 c 2
 109.493164062 556.233398438 l 1
 90.5166015625 569.788085938 l 2
 71.97265625 582.922851562 57.140625 619.53515625 57.0009765625 650.8984375 c 0
 56.8779296875 678.651367188 67.69140625 700.708984375 95.4541015625 700.708984375 c 0
 107.315429688 700.708984375 153.874023438 707.102539062 199.724609375 714.215820312 c 0
EndSplineSet
EndChar

StartChar: U
Encoding: 85 85 53
Width: 614
Flags: W
HStem: 34.043 136.844<217.086 269.916>
VStem: 90.7646 118.021<436.102 654.409>
LayerCount: 2
Fore
SplineSet
105.029296875 674.485351562 m 0
 123.08984375 695.162109375 163.732421875 683.693359375 197.45703125 643.990234375 c 0
 216.203125 620.5546875 220.505859375 586.424804688 208.786132812 539.576171875 c 0
 180.11328125 429.141601562 167.1328125 308.291992188 179.475585938 263.171875 c 0
 187.931640625 231.086914062 224.999023438 170.88671875 241.059570312 170.88671875 c 0
 256.194335938 170.88671875 318.306640625 243.133789062 350.19921875 293.655273438 c 0
 384.456054688 346.5859375 408.212890625 405.967773438 427.723632812 485.815429688 c 0
 443.739257812 550.649414062 446.8125 575.665039062 434.729492188 587.932617188 c 0
 424.952148438 597.87890625 424.6875 648.737304688 434.211914062 661.009765625 c 0
 460.051757812 695.837890625 523.413085938 655.725585938 544.099609375 607.091796875 c 0
 563 563.413085938 561.73046875 546.74609375 536.879882812 449.567382812 c 0
 515.603515625 368.010742188 510.80078125 355.688476562 470.352539062 266.275390625 c 0
 419.013671875 150.30078125 311.921875 34.04296875 259.140625 34.04296875 c 0
 197.436523438 34.04296875 94.177734375 163.618164062 72.28125 274.255859375 c 0
 61.736328125 326.376953125 62.408203125 409.313476562 75.8447265625 487.963867188 c 0
 81.537109375 524.893554688 88.6220703125 579.303710938 90.7646484375 608.530273438 c 0
 92.8857421875 641.805664062 98.904296875 667.591796875 105.029296875 674.485351562 c 0
EndSplineSet
EndChar

StartChar: V
Encoding: 86 86 54
Width: 595
Flags: W
VStem: 414.489 119.322<585.406 725.162>
LayerCount: 2
Fore
SplineSet
433.041992188 738.4296875 m 0
 444.961914062 750.452148438 471.366210938 748.450195312 505.736328125 729.797851562 c 0
 534.8828125 712.669921875 549.581054688 660.209960938 533.811523438 626.254882812 c 0
 527.2890625 612.390625 517.388671875 583.158203125 511.661132812 560.809570312 c 0
 480.546875 436.40625 399.135742188 238.1328125 349.627929688 167.376953125 c 0
 343.8984375 158.409179688 338.741210938 147.57421875 338.741210938 141.135742188 c 0
 338.741210938 136.747070312 330.866210938 121.736328125 320.50390625 110.615234375 c 0
 296.806640625 85.28125 259.170898438 84.0224609375 235.65625 107.802734375 c 0
 220.62109375 123.098632812 177.31640625 240.329101562 129.670898438 400.010742188 c 0
 119.081054688 436.201171875 100.16796875 481.534179688 87.2890625 501.33984375 c 0
 74.173828125 521.294921875 62.3408203125 550.512695312 59.6103515625 568.885742188 c 0
 54.7177734375 599.358398438 55.8876953125 604.318359375 70.193359375 619.875976562 c 0
 90.1318359375 640.166992188 113.6171875 639.383789062 148.979492188 614.90625 c 0
 179.350585938 591.483398438 192.961914062 567.8203125 201.31640625 519.859375 c 0
 204.16796875 504.41015625 208.907226562 489.282226562 212.212890625 484.3984375 c 1
 212.272460938 484.483398438 l 1
 216.8671875 478.625 241.334960938 377.775390625 248.108398438 369.360351562 c 0
 251.723632812 364.790039062 259.885742188 315.23046875 275.287109375 315.23046875 c 0
 303.548828125 315.23046875 397.793945312 564.602539062 414.489257812 672.357421875 c 0
 419.358398438 701.771484375 428.162109375 732.208984375 433.041992188 738.4296875 c 0
EndSplineSet
EndChar

StartChar: W
Encoding: 87 87 55
Width: 830
Flags: W
VStem: 107.741 107.389<329.421 521.019> 330.938 138.286<511.593 593.347>
LayerCount: 2
Fore
SplineSet
661.864257812 766.666992188 m 1
 665.982421875 773.12109375 680.108398438 778.723632812 692.440429688 778.723632812 c 0
 709.9765625 778.723632812 719.6953125 772.990234375 743.805664062 746.099609375 c 2
 773.55859375 714.26953125 l 1
 767.958007812 631.5234375 l 2
 765.836914062 587.297851562 760.0234375 542.806640625 756.772460938 534.418945312 c 0
 751.185546875 519.826171875 707.015625 346.145507812 700.84765625 333.75390625 c 0
 686.563476562 305.897460938 672.209960938 270.064453125 672.209960938 259.57421875 c 0
 672.209960938 254.599609375 669.344726562 247.940429688 666.5234375 244.28515625 c 0
 662.053710938 239.735351562 654.659179688 219.651367188 647.578125 198.556640625 c 0
 628.638671875 138.041992188 579.36328125 92.28515625 551.111328125 102.8359375 c 0
 500.450195312 121.743164062 445.838867188 197.7421875 413.643554688 297.251953125 c 0
 405.325195312 321.770507812 395.350585938 344.99609375 388.168945312 347.069335938 c 0
 380.333007812 349.709960938 361.342773438 315.240234375 341.701171875 274.860351562 c 0
 267.85546875 120.78125 239.504882812 85.0166015625 193.5703125 81.5595703125 c 0
 168.938476562 80.1279296875 167.633789062 81.1015625 148.530273438 114.166015625 c 0
 127.689453125 150.53515625 107.741210938 241.87890625 107.741210938 306.3828125 c 0
 107.741210938 375.077148438 87.23828125 537.646484375 72.880859375 585.875 c 0
 58.376953125 632.2265625 54.744140625 665.330078125 60.810546875 684.041992188 c 0
 66.65625 703.999023438 81.2783203125 710.32421875 107.309570312 700.715820312 c 0
 140.331054688 690.20703125 164.69921875 660.043945312 180.143554688 612.072265625 c 0
 194.719726562 564.94140625 210.216796875 446.786132812 215.129882812 344.431640625 c 0
 215.798828125 337.66796875 218.25 329.415039062 223.908203125 329.415039062 c 0
 245.870117188 329.415039062 321.900390625 524.694335938 330.9375 590.813476562 c 0
 333.000976562 610.206054688 340.625976562 627.985351562 349.806640625 636.890625 c 0
 364.080078125 651.3046875 365.754882812 651.916992188 392.32421875 642.552734375 c 0
 436.736328125 628.534179688 453.80078125 600.50390625 469.223632812 513.475585938 c 0
 483.313476562 435.002929688 513.110351562 309.0625 520.833984375 295.776367188 c 0
 523.922851562 291.094726562 529.221679688 286.861328125 534.12109375 286.861328125 c 0
 548.193359375 286.861328125 590.146484375 389.661132812 614.392578125 468.067382812 c 0
 626.3046875 508.143554688 638.282226562 546.2578125 640.306640625 551.7734375 c 0
 648.255859375 572.80859375 650.29296875 599.108398438 651.697265625 676.608398438 c 0
 652.403320312 732.53515625 655.708007812 760.112304688 661.7734375 766.78515625 c 1
 661.864257812 766.666992188 l 1
EndSplineSet
EndChar

StartChar: X
Encoding: 88 88 56
Width: 591
Flags: W
HStem: 709.078 20G<398.823 411.043>
LayerCount: 2
Fore
SplineSet
274.655273438 558.865234375 m 1
 282.264648438 559.98828125 303.651367188 590.58984375 326.506835938 627.401367188 c 0
 349.383789062 664.24609375 373.709960938 702.599609375 380.5546875 712.39453125 c 0
 387.359375 722.129882812 396.877929688 729.078125 400.767578125 729.078125 c 0
 421.319335938 729.078125 457.168945312 706.833007812 472.3203125 684.794921875 c 0
 495.686523438 649.05859375 489.822265625 614.322265625 453.420898438 574.419921875 c 0
 437.64453125 557.926757812 409.954101562 520.982421875 391.7890625 492.532226562 c 0
 380.599609375 475.255859375 369.411132812 457.98046875 358.221679688 440.704101562 c 1
 406.981445312 374.62890625 463.177734375 309.516601562 505.588867188 238.092773438 c 0
 527.581054688 201.909179688 529.256835938 193.87890625 524.450195312 172.592773438 c 0
 519.654296875 154.094726562 512.576171875 145.646484375 493.079101562 135.202148438 c 0
 462.235351562 118.752929688 455.020507812 121.162109375 423.9375 164.25390625 c 0
 412.5625 179.89453125 391.6484375 208.221679688 378.470703125 227.361328125 c 0
 365.329101562 245.741210938 352.827148438 264.502929688 351.727539062 267.874023438 c 0
 345.284179688 285.434570312 307.552734375 329.822265625 296.685546875 329.822265625 c 0
 279.427734375 329.822265625 201.271484375 179.608398438 200.565429688 152.178710938 c 0
 200.565429688 149.928710938 191.65234375 137.684570312 179.912109375 127.106445312 c 0
 161.739257812 112.427734375 154.465820312 110.0625 137.404296875 114.15625 c 0
 92.126953125 124.07421875 28.01171875 159.012695312 78.462890625 215.770507812 c 0
 85.1962890625 224 102.064453125 250.768554688 115.66015625 276.52734375 c 0
 145.416992188 333.916015625 170.956054688 379.315429688 189.828125 411.118164062 c 0
 198.278320312 424.79296875 205.45703125 441.762695312 205.45703125 449.30859375 c 0
 205.45703125 458.275390625 188.248046875 483.518554688 167.833984375 507.657226562 c 0
 96.896484375 592.782226562 83.91015625 616.146484375 74.7646484375 668.908203125 c 0
 70.587890625 690.487304688 72.1083984375 693.682617188 87.8564453125 703.952148438 c 0
 103.8125 714.358398438 107.8984375 714.9296875 126.693359375 707.271484375 c 0
 156.513671875 695.482421875 180.94921875 672.607421875 226.047851562 611.619140625 c 0
 247.331054688 583.551757812 267.008789062 558.865234375 274.48046875 558.865234375 c 2
 274.655273438 558.865234375 l 1
EndSplineSet
EndChar

StartChar: Y
Encoding: 89 89 57
Width: 559
Flags: W
VStem: 174.664 115.738<40.4572 221.648> 388.88 94.29<682.029 753.212>
LayerCount: 2
Fore
SplineSet
388.879882812 741.84375 m 0
 388.879882812 778.815429688 433.62109375 777.201171875 462.06640625 753.21484375 c 0
 474.091796875 742.569335938 483.169921875 728.831054688 483.169921875 725.532226562 c 0
 483.169921875 719.84375 488.646484375 712.599609375 494.6953125 707.829101562 c 0
 511.858398438 693.770507812 505.836914062 666.708007812 464.37890625 593.408203125 c 0
 459.176757812 585.1484375 450.053710938 564.564453125 442.247070312 546.694335938 c 0
 434.461914062 528.813476562 415.2890625 485.760742188 399.703125 449.96484375 c 0
 325.90234375 283.13671875 298.751953125 199.0703125 290.40234375 108.501953125 c 0
 285.284179688 49.4453125 273.671875 25.2705078125 242.608398438 17.49609375 c 0
 212.446289062 10.087890625 188.237304688 36.501953125 174.6640625 98.58203125 c 0
 169.12890625 122.124023438 171.141601562 144.393554688 181.662109375 199.728515625 c 0
 189.241210938 238.774414062 199.157226562 276.875 202.189453125 282.498046875 c 0
 216.791992188 310.916015625 207.52734375 337.692382812 165.106445312 404.19921875 c 0
 109.788085938 489.810546875 92.1953125 520.96484375 66.7099609375 577.938476562 c 1
 66.7099609375 577.938476562 66.6748046875 578.166015625 66.6357421875 578.240234375 c 0
 61.388671875 587.875976562 57 614.21484375 57 634.751953125 c 0
 57 681.669921875 61.4072265625 694.512695312 112.13671875 671.640625 c 0
 139.453125 655.986328125 148.755859375 645.259765625 169.28515625 603.545898438 c 0
 199.967773438 540.584960938 251.821289062 454.490234375 263.963867188 458.671875 c 0
 269.591796875 461.024414062 280.572265625 485.4375 292.978515625 512.8046875 c 0
 315.161132812 565.33203125 335.895507812 611.33203125 368.454101562 684.397460938 c 0
 379.591796875 708.905273438 388.879882812 733.813476562 388.879882812 741.84375 c 0
464.348632812 593.305664062 m 2
 464.412109375 593.46484375 l 1
 464.412109375 593.46484375 464.358398438 593.33984375 464.348632812 593.305664062 c 2
EndSplineSet
EndChar

StartChar: Z
Encoding: 90 90 58
Width: 854
Flags: W
HStem: 103.209 121.951<348.57 779.44>
LayerCount: 2
Fore
SplineSet
362.5859375 674.135742188 m 0
 393.321289062 679.78125 451.609375 686.877929688 492.248046875 690.41796875 c 0
 601.267578125 700.364257812 635.328125 696.46484375 656.046875 676.88671875 c 0
 692.630859375 642.977539062 699.602539062 627.129882812 694.159179688 599.83984375 c 0
 690.668945312 585.919921875 683.288085938 570.651367188 679.313476562 566.388671875 c 0
 597.107421875 494.459960938 329.78515625 244.459960938 340.440429688 229.0859375 c 0
 344.954101562 222.248046875 405.762695312 222.342773438 510.348632812 225.16015625 c 0
 645.7265625 228.703125 676.932617188 230.456054688 693.021484375 241.182617188 c 0
 707.4609375 250.80859375 713.170898438 251.418945312 732.692382812 245.14453125 c 0
 761.08984375 235.448242188 773.821289062 222.154296875 785.733398438 188.520507812 c 0
 796.1171875 159.447265625 790.475585938 131.580078125 771.553710938 115.362304688 c 0
 760.797851562 105.87109375 738.758789062 103.918945312 577.686523438 103.208984375 c 0
 478.599609375 103.208984375 365.612304688 98.96875 326.73828125 93.970703125 c 0
 242.037109375 84.0712890625 155.5703125 66.6689453125 148.375976562 55.8701171875 c 0
 140.325195312 42.0693359375 114.678710938 50.6455078125 86.4833984375 83.1796875 c 0
 62.423828125 111.482421875 58 121.096679688 58 146.099609375 c 0
 58 165.708007812 62.2587890625 178.264648438 69.8828125 184.618164062 c 0
 200.658203125 295.794921875 445.358398438 529.677734375 445.358398438 546.099609375 c 0
 445.358398438 561.51953125 357.12109375 538.701171875 315.514648438 520.020507812 c 0
 282.40234375 505.387695312 262.0625 508.155273438 239.5859375 530.171875 c 0
 233.122070312 536.4453125 227.553710938 544.2578125 222.995117188 552.935546875 c 0
 202.811523438 591.346679688 203.579101562 643.901367188 226.399414062 655.951171875 c 0
 233.33984375 659.774414062 254.305664062 663.45703125 272.975585938 663.45703125 c 0
 291.578125 663.45703125 331.552734375 668.436523438 362.5859375 674.135742188 c 0
694.159179688 599.83984375 m 1
 694.147460938 599.78125 l 1
 694.159179688 599.83984375 l 1
EndSplineSet
EndChar

StartChar: bracketleft
Encoding: 91 91 59
Width: 400
Flags: W
HStem: 12 98.9502<161.22 282.413>
VStem: 47.0693 312.03
LayerCount: 2
Fore
SplineSet
271.697265625 777.153320312 m 0
 277.244140625 782.668945312 295.190429688 780.060546875 326.423828125 764.80859375 c 0
 355.951171875 749.341796875 357.001953125 748.014648438 359.099609375 717.94140625 c 0
 361.842773438 675.114257812 350.428710938 665.599609375 291.975585938 662.762695312 c 0
 275.904296875 662.015625 259.83203125 661.26953125 243.76171875 660.521484375 c 1
 233.84765625 577.2734375 197.19921875 290.921875 163.486328125 156.900390625 c 0
 159.952148438 140.524414062 157.501953125 123.114257812 161.002929688 117.784179688 c 0
 165.29296875 111.303710938 191.346679688 109.544921875 222.737304688 110.950195312 c 0
 260.189453125 111.661132812 282.654296875 108.80078125 293.698242188 102.030273438 c 0
 297.612304688 99.630859375 302.405273438 89.8662109375 302.624023438 77.1767578125 c 0
 303.078125 50.77734375 284.743164062 12.7998046875 206.974609375 12 c 0
 142.461914062 11.3408203125 58.2568359375 19.46484375 47.0693359375 21.5263671875 c 1
 45.0859375 48.09765625 86.1787109375 341.73828125 101.416992188 399.58984375 c 0
 129.203125 505.083007812 127.515625 629.51953125 120.8203125 696.954101562 c 0
 114.888671875 756.692382812 117.62109375 764.451171875 203.591796875 769.508789062 c 0
 238.8515625 771.666992188 267.748046875 774.514648438 271.697265625 777.153320312 c 0
EndSplineSet
EndChar

StartChar: bracketright
Encoding: 93 93 60
Width: 414
Flags: W
HStem: -16 110.143<46.9307 180.405> 653.377 115.423<127.951 225.564>
LayerCount: 2
Fore
SplineSet
182.555664062 768.799804688 m 0
 215.021484375 766.661132812 243.15625 773.999023438 255.127929688 771.814453125 c 0
 287 766 317.973632812 777.71875 354.504882812 739.783203125 c 0
 376.322265625 716.440429688 376.672851562 699.561523438 354.678710938 640.979492188 c 0
 347.979492188 622.239257812 336.119140625 516.624023438 329.017578125 465.140625 c 0
 310.5078125 341.119140625 333.46875 143.690429688 307.670898438 88.4873046875 c 0
 301.646484375 75.5966796875 290.083984375 21.9287109375 287.002929688 17.7060546875 c 0
 284.123046875 13.7587890625 253.143554688 -16 171 -16 c 4
 60.48828125 -16 43 5.8212890625 43 10 c 0
 43 15.3828125 43.068359375 72.18359375 46.33203125 74.7353515625 c 0
 58.3388671875 84.123046875 119.7421875 96.2314453125 147.393554688 94.142578125 c 0
 160.237304688 93.419921875 175.565429688 95.7900390625 180.650390625 100.474609375 c 0
 193.350585938 112.274414062 184.743164062 192.0703125 197.255859375 241.717773438 c 0
 202.715820312 263.462890625 211.51953125 336.022460938 216.725585938 353.296875 c 0
 228.510742188 390.838867188 221.419921875 534.477539062 223.432617188 604.334960938 c 0
 224.143554688 620.682617188 224.853515625 637.030273438 225.564453125 653.376953125 c 1
 214.65234375 653.376953125 203.739257812 653.376953125 192.826171875 653.376953125 c 0
 137.581054688 654.122070312 87.2744140625 698.259765625 94.955078125 732.428710938 c 0
 103.0703125 766.239257812 120.024414062 773.763671875 182.555664062 768.799804688 c 0
EndSplineSet
EndChar

StartChar: a
Encoding: 97 97 61
Width: 635
Flags: W
HStem: 499.646 20G<353.734 457.841>
LayerCount: 2
Fore
SplineSet
168.51171875 454.856445312 m 4
 206.8984375 481.70703125 222.6875 490.073242188 276.8515625 513.431640625 c 4
 285.502929688 516.577148438 331.23828125 519.645507812 376.229492188 519.645507812 c 6
 457.840820312 518.948242188 l 5
 476.265625 489.604492188 l 6
 493.040039062 463.045898438 495.734375 451.934570312 499.286132812 375.9296875 c 4
 503.543945312 284.399414062 512.94921875 252.1875 546.70703125 214.120117188 c 4
 568.405273438 189.220703125 576.274414062 160.65625 572.588867188 140.297851562 c 4
 569.096679688 121.008789062 555.677734375 108.995117188 532.716796875 113.258789062 c 4
 501.981445312 118.723632812 485.58203125 136.736328125 459.375976562 192.690429688 c 4
 447.790039062 218.8203125 435.619140625 243.084960938 429.178710938 243.084960938 c 4
 424.114257812 243.084960938 416.6015625 234.029296875 410.407226562 224.21875 c 4
 391.5390625 194.709960938 344.884765625 170.645507812 278.932617188 156.505859375 c 4
 150.935546875 128.84375 111.744140625 136.752929688 77.734375 195.75 c 4
 56.185546875 231.896484375 55.341796875 267.705078125 75.81640625 326.303710938 c 4
 96.9833984375 388.393554688 119.938476562 419.659179688 168.51171875 454.856445312 c 4
378.40234375 358.16015625 m 4
 394.366210938 387.84765625 395.59375 393.938476562 385.212890625 409.041015625 c 4
 373.4921875 425.452148438 369.359375 426.323242188 331.184570312 418.548828125 c 4
 272.510742188 406.310546875 195.504882812 347.880859375 169.1015625 295.260742188 c 4
 160.315429688 278.255859375 154.841796875 267.572265625 155.50390625 260.090820312 c 4
 156.623046875 247.442382812 173.875976562 249.384765625 203.77734375 252.619140625 c 4
 294.790039062 261.88671875 341.098632812 290.067382812 378.40234375 358.16015625 c 4
EndSplineSet
EndChar

StartChar: b
Encoding: 98 98 62
Width: 506
Flags: W
HStem: 427.482 108.475<236.232 335.61>
VStem: 166.759 86.0635<582.93 748.652> 349.729 90.0361<310.764 414.389>
LayerCount: 2
Fore
SplineSet
349.728515625 366.1171875 m 4
 349.728515625 391.727539062 346.3046875 406.180664062 336.122070312 414.796875 c 4
 325.310546875 424.8359375 307.822265625 427.482421875 264.80078125 427.482421875 c 4
 245.55859375 427.482421875 226.315429688 427.482421875 207.073242188 427.482421875 c 5
 203.66015625 419.40234375 200.247070312 411.323242188 196.834960938 403.243164062 c 4
 185.646484375 373.548828125 169.073242188 272.594726562 175.4296875 256.703125 c 4
 180.708007812 242.560546875 211.071289062 241.87890625 229.650390625 251.857421875 c 4
 235.661132812 255.31640625 254.0703125 263.801757812 269.830078125 270.188476562 c 4
 285.9921875 277.466796875 309.958984375 293.0625 323.396484375 306.126953125 c 4
 346.26171875 326.848632812 349.728515625 334.651367188 349.728515625 366.1171875 c 4
166.758789062 678.520507812 m 4
 171.708007812 714.579101562 180.708984375 749.40625 184.47265625 753.862304688 c 4
 207.719726562 783.205078125 247.599609375 743.524414062 252.822265625 702.655273438 c 4
 254.77734375 688.486328125 250.75 649.3671875 244.634765625 618.40625 c 4
 239.25390625 592.8203125 236.095703125 575.28515625 236.03515625 563.02734375 c 4
 235.920898438 539.883789062 248.021484375 535.95703125 272.33203125 535.95703125 c 4
 317.74609375 535.95703125 348.774414062 524.206054688 383.879882812 493.313476562 c 4
 422.890625 459.1796875 439.057617188 412.631835938 439.764648438 332.745117188 c 4
 440.473632812 286.689453125 437.84765625 275.672851562 420.9609375 247.526367188 c 4
 410.456054688 229.317382812 394.107421875 210.401367188 385.74609375 205.899414062 c 4
 309.485351562 163.326171875 291.08984375 153.463867188 270.114257812 145.053710938 c 4
 248.229492188 136.810546875 189.881835938 131.89453125 169.147460938 137.336914062 c 4
 161.275390625 139.3046875 151.506835938 130.526367188 146.423828125 118.962890625 c 4
 131.78125 90.431640625 106.712890625 77.0322265625 87.982421875 85.4287109375 c 4
 67.341796875 94.458984375 52.75390625 149.765625 63.7890625 179.419921875 c 4
 82.5048828125 229.090820312 107.313476562 408.7421875 101.513671875 453.692382812 c 4
 98.7109375 474.010742188 100.845703125 484.361328125 108.720703125 493.548828125 c 4
 127.318359375 514.377929688 155.36328125 605.154296875 166.758789062 678.520507812 c 4
146.423828125 116.462890625 m 5
 146.423828125 116.462890625 146.40234375 116.415039062 146.392578125 116.391601562 c 6
 146.423828125 116.462890625 l 5
EndSplineSet
EndChar

StartChar: c
Encoding: 99 99 63
Width: 485
Flags: W
HStem: 129.52 119.404<175.871 398.447> 435.866 113.62<314.03 391.868>
LayerCount: 2
Fore
SplineSet
75.0546875 357.936523438 m 4
 115.778320312 442.19140625 216.516601562 519.161132812 315.862304688 543.109375 c 4
 329.239257812 545.924804688 343.525390625 548.8125 346.340820312 549.486328125 c 4
 363.774414062 551.627929688 400.064453125 527.147460938 410.220703125 505.482421875 c 4
 420.8203125 482.8671875 421.323242188 479.524414062 412.446289062 463.8203125 c 4
 405.83984375 452.58984375 390.801757812 442.143554688 371.272460938 435.866210938 c 4
 265.510742188 400.37890625 221.973632812 374.52734375 181.499023438 323.037109375 c 4
 154.296875 290.3046875 156.342773438 274.23828125 208.369140625 254.549804688 c 4
 257.010742188 235.98046875 299.180664062 233.690429688 335.451171875 248.923828125 c 4
 379.504882812 267.720703125 412.112304688 260.841796875 412.112304688 199.450195312 c 4
 412.112304688 159.1640625 398.146484375 139.911132812 360.041992188 129.51953125 c 4
 322.592773438 119.116210938 229.701171875 124.830078125 197.922851562 139.323242188 c 4
 185.501953125 145.079101562 167.251953125 151.478515625 156.272460938 153.674804688 c 4
 146.899414062 155.548828125 121.912109375 173.73046875 102.194335938 192.743164062 c 4
 66.80078125 226.720703125 66.7783203125 228.096679688 62.5283203125 275.547851562 c 4
 58.990234375 317.30078125 60.982421875 328.384765625 75.0546875 357.936523438 c 4
EndSplineSet
EndChar

StartChar: d
Encoding: 100 100 64
Width: 539
Flags: W
HStem: 720 20G<402.043 451.915>
LayerCount: 2
Fore
SplineSet
400.452148438 706.666992188 m 6
 404.428710938 740 l 5
 432.723632812 740 l 6
 471.10546875 740 479.189453125 730.280273438 482.7109375 673.34375 c 4
 485.524414062 626.333984375 479.239257812 584.997070312 453.008789062 489.552734375 c 4
 423.885742188 383.446289062 416.727539062 314.034179688 425.985351562 229.780273438 c 4
 436.626953125 136.724609375 434.624023438 133.611328125 382.05859375 127.232421875 c 4
 329.374023438 120.619140625 269.608398438 108.688476562 214.657226562 119.1328125 c 4
 118.05078125 137.24609375 46.8037109375 206.568359375 60.74609375 282.79296875 c 4
 69.14453125 326.201171875 84.92578125 351.461914062 133.004882812 395.319335938 c 4
 184.989257812 442.137695312 276.879882812 491.7734375 310.745117188 491.7734375 c 4
 333.787109375 491.7734375 352.655273438 504.067382812 363.319335938 525.86328125 c 4
 373.69921875 545.047851562 391.20703125 634.477539062 400.452148438 706.666992188 c 6
331.823242188 316.606445312 m 4
 332.235351562 349.470703125 333.834960938 390.389648438 321.102539062 390.389648438 c 4
 314.313476562 390.389648438 306.880859375 384.182617188 303.094726562 376.471679688 c 4
 300.322265625 371.461914062 276.174804688 353.008789062 250.768554688 337.154296875 c 4
 225.06640625 320.078125 195.975585938 296.536132812 186.583007812 282.63671875 c 4
 180.112304688 274.2734375 173.671875 265.879882812 167.180664062 257.538085938 c 5
 175.341796875 253.57421875 183.4453125 249.552734375 191.583007812 245.565429688 c 4
 213.962890625 233.701171875 278.278320312 231.01953125 311.411132812 240.431640625 c 4
 329.624023438 245.892578125 330.455078125 250.556640625 331.823242188 316.606445312 c 4
EndSplineSet
EndChar

StartChar: e
Encoding: 101 101 65
Width: 530
Flags: W
HStem: 135.02 119.235<319.403 417.141>
VStem: 395.239 64.5049<431.133 469.814>
LayerCount: 2
Fore
SplineSet
166.615234375 524.258789062 m 4
 194.305664062 545.328125 243.338867188 571.334960938 263.109375 576.28515625 c 4
 270.724609375 577.592773438 300.69140625 578.36328125 327.2734375 577.661132812 c 4
 369.838867188 575.5390625 381.704101562 572.211914062 406.21484375 555.405273438 c 4
 449.025390625 525.9296875 461.838867188 501.520507812 459.744140625 455.435546875 c 4
 459.026367188 433.889648438 461.15625 399.877929688 464.0234375 379.805664062 c 4
 468.973632812 345.158203125 468.822265625 344.92578125 447.86328125 327.458984375 c 4
 433.284179688 314.961914062 418.301757812 308.900390625 402.66796875 308.900390625 c 4
 388.681640625 308.900390625 365.86328125 303.884765625 350.647460938 297.362304688 c 4
 334.020507812 290.55859375 298.975585938 286.202148438 243.3046875 284.786132812 c 4
 173.268554688 282.69140625 158.314453125 281.396484375 155.57421875 268.609375 c 4
 150.88671875 245.168945312 174.713867188 221.827148438 206.893554688 212.51171875 c 4
 235.620117188 203.850585938 242.325195312 205.540039062 304.125976562 228.884765625 c 4
 340.430664062 242.998046875 377.540039062 254.254882812 384.228515625 254.254882812 c 4
 405.223632812 254.254882812 425.877929688 232.83203125 430.697265625 205.2890625 c 4
 436.161132812 169.088867188 421.877929688 150.424804688 376.364257812 135.01953125 c 4
 355.72265625 128.61328125 328.576171875 117.96484375 316.020507812 112.216796875 c 4
 281.268554688 95.0048828125 218.62109375 102.4453125 162.686523438 131.33203125 c 4
 109.235351562 158.057617188 78.673828125 192.912109375 66.1083984375 239.682617188 c 4
 55.693359375 277.873046875 62.0869140625 360.08984375 77.314453125 394.005859375 c 4
 101.974609375 446.14453125 143.970703125 507.104492188 166.615234375 524.258789062 c 4
395.239257812 454.254882812 m 4
 395.239257812 459.239257812 383.57421875 466.580078125 371.13671875 472.108398438 c 4
 345.634765625 485.583984375 347.70703125 485.618164062 305.297851562 471.53515625 c 4
 267.765625 459.796875 206.868164062 423.240234375 211.462890625 408.096679688 c 4
 214.888671875 397.5078125 214.39453125 397.952148438 284.186523438 403.536132812 c 4
 335.759765625 407.786132812 349.873046875 411.502929688 370.194335938 428.194335938 c 4
 383.440429688 438.653320312 395.239257812 448.96484375 395.239257812 454.254882812 c 4
EndSplineSet
EndChar

StartChar: f
Encoding: 102 102 66
Width: 534
Flags: W
VStem: 180.539 94.5273<41.0388 312.951>
LayerCount: 2
Fore
SplineSet
274.319335938 707.4765625 m 4
 283.630859375 716.359375 309.87109375 734.143554688 332.444335938 746.091796875 c 4
 390.918945312 776.421875 425.489257812 776.059570312 457.129882812 744.419921875 c 4
 471.106445312 730.443359375 480.510742188 713.674804688 480.510742188 705.052734375 c 4
 480.510742188 681.459960938 450.340820312 658.7421875 439.96484375 662.694335938 c 4
 420.3671875 670.861328125 341.22265625 618.08203125 323.0546875 588.642578125 c 4
 307.10546875 562.280273438 303.422851562 551.709960938 295.135742188 514.1015625 c 4
 293.537109375 506.434570312 291.938476562 498.766601562 290.338867188 491.100585938 c 5
 305.17578125 491.608398438 320.01171875 492.1171875 334.848632812 492.625 c 4
 386.032226562 494.028320312 409.982421875 479.057617188 419.59765625 440.595703125 c 4
 428.974609375 405.764648438 415.286132812 393.357421875 339.736328125 374.859375 c 4
 250.311523438 352.778320312 251.565429688 354.092773438 262.655273438 262.209960938 c 4
 267.477539062 219.735351562 273.000976562 154.46484375 275.06640625 116.978515625 c 4
 278.53515625 49.23828125 278.69140625 50.3896484375 260.810546875 36.0986328125 c 4
 235.995117188 16.1123046875 224.852539062 16.615234375 201.28125 42.220703125 c 4
 182.379882812 63.0302734375 181.924804688 62.212890625 180.5390625 151.896484375 c 4
 179.846679688 202.415039062 174.950195312 259.107421875 169.157226562 281.556640625 c 4
 159.231445312 320.55078125 157.557617188 322.518554688 131.038085938 320.30859375 c 4
 118.00390625 318.935546875 99.8017578125 321.84375 92.7294921875 325.701171875 c 4
 73.3291015625 335.735351562 56.5634765625 370.311523438 59.29296875 394.87890625 c 4
 61.2763671875 418.01953125 76.4697265625 428.844726562 129.041015625 442.34375 c 4
 171.2421875 452.529296875 172.813476562 455.943359375 201.170898438 572.5234375 c 4
 212.076171875 616.647460938 247.268554688 681.764648438 274.319335938 707.4765625 c 4
EndSplineSet
EndChar

StartChar: g
Encoding: 103 103 67
Width: 523
Flags: W
HStem: -16.3125 122.312<107.873 288.906> 410.811 122.522<255.816 349.368>
LayerCount: 2
Fore
SplineSet
274.361328125 105.18359375 m 4
 289.13671875 111.571289062 l 1
 293.9375 116.984375 300.052734375 124.216796875 295.893554688 127.390625 c 0
 293.106445312 129.516601562 288.932617188 133.98046875 285.006835938 134 c 0
 261.1484375 134.119140625 196.5546875 122.762695312 140.006835938 130 c 0
 107.828125 134.118164062 61.384765625 191.7734375 60.0068359375 232.666992188 c 0
 59.240234375 255.416015625 119.591796875 407.516601562 143.251953125 441.849609375 c 0
 157.123046875 462.295898438 175.0625 476.407226562 210.053710938 493.6171875 c 0
 236.903320312 506.381835938 265.697265625 521.206054688 275.46875 526.95703125 c 0
 287.131835938 533.986328125 303.026367188 536.30078125 332.44140625 533.333007812 c 0
 395.912109375 527.6640625 423.297851562 500.8125 447.274414062 419.865234375 c 0
 456.895507812 387.431640625 453.53515625 251.153320312 440.102539062 154.610351562 c 0
 429.508789062 78.140625 411.572265625 44.7451171875 359.602539062 9.2099609375 c 0
 313.999023438 -23.52734375 276.5625 -29.2734375 181.19140625 -16.3125 c 0
 125.805664062 -9.009765625 117.013671875 -5.6435546875 100.484375 12.7587890625 c 0
 77.28515625 38.03125 68.8818359375 79.0087890625 81.9482421875 91.435546875 c 0
 86.6865234375 95.94140625 115.97265625 110.484375 134.006835938 106 c 4
 187.4921875 92.69921875 205.748046875 95.75390625 274.361328125 105.18359375 c 4
346.19921875 410.90625 m 1
 334.635742188 412.728515625 325.137695312 412.663085938 286.203125 410.810546875 c 1
 243.711914062 387.362304688 208.3203125 343.489257812 189.604492188 289.529296875 c 0
 181.364257812 267.404296875 176.856445312 252.633789062 178.815429688 242.994140625 c 0
 181.958984375 227.20703125 200.600585938 228.853515625 232.875 235.848632812 c 0
 289.956054688 247.922851562 321.6484375 262.823242188 335.448242188 284.443359375 c 0
 351.005859375 308.380859375 357.517578125 388.814453125 346.19921875 410.90625 c 1
EndSplineSet
EndChar

StartChar: h
Encoding: 104 104 68
Width: 476
Flags: W
VStem: 136.084 94.7471<522.854 733.48> 312.25 93.2695<127.761 404.795>
LayerCount: 2
Fore
SplineSet
151.081054688 745.396484375 m 0
 164.208984375 758.455078125 178.59765625 758.297851562 199.939453125 743.262695312 c 0
 223.21875 724.02734375 230.831054688 690.737304688 230.831054688 599.291015625 c 0
 230.831054688 573.370117188 230.831054688 547.450195312 230.831054688 521.529296875 c 1
 240.318359375 523.099609375 249.803710938 524.672851562 259.291015625 526.244140625 c 0
 291.6015625 531.130859375 324.80859375 514.48046875 354.24609375 475.1953125 c 0
 387.7421875 430.235351562 405.51953125 353.677734375 405.51953125 246.099609375 c 0
 405.51953125 169.708007812 400.4453125 144.810546875 383.489257812 126.916992188 c 0
 366.798828125 108.448242188 342.39453125 109.483398438 321.84375 129.787109375 c 0
 297.685546875 154.40625 293.51171875 176.190429688 304.071289062 224.256835938 c 0
 309.692382812 248.471679688 312.232421875 275.018554688 312.25 300.323242188 c 0
 312.287109375 358.749023438 299.90234375 414.928710938 276.534179688 414.928710938 c 0
 268.025390625 414.928710938 250.4609375 400.3515625 235.534179688 382.868164062 c 0
 206.061523438 350.217773438 195.67578125 323.586914062 170.1640625 211.939453125 c 0
 157.801757812 159.986328125 132.02734375 90.5693359375 79.365234375 145.380859375 c 0
 49.4365234375 176.899414062 51.45703125 196.698242188 120.404296875 472.35546875 c 0
 126.903320312 496.8203125 133.952148438 565.338867188 136.083984375 624.822265625 c 0
 139.63671875 707.579101562 143.641601562 736.604492188 151.081054688 745.396484375 c 0
EndSplineSet
EndChar

StartChar: i
Encoding: 105 105 69
Width: 315
Flags: W
HStem: 555.557 112.123<173.746 242.595>
LayerCount: 2
Fore
SplineSet
197.26171875 555.556640625 m 4
 165.716796875 572.249023438 144.451171875 623.483398438 163.182617188 658.344726562 c 4
 168.943359375 669.225585938 173.450195312 670.513671875 196.826171875 667.6796875 c 4
 232.071289062 662.842773438 255.104492188 641.692382812 259.208007812 609.545898438 c 4
 264.494140625 569.909179688 236.09765625 535.008789062 197.26171875 555.556640625 c 4
66.2705078125 223.93359375 m 4
 88.2109375 340.008789062 121.481445312 481.010742188 127.479492188 488.806640625 c 4
 137.609375 499.525390625 166.859375 499.716796875 184.375976562 487.58984375 c 4
 192.500976562 481.965820312 201.13671875 463.375 206.768554688 440.140625 c 4
 214.455078125 405.904296875 213.176757812 393.169921875 189.733398438 283.05859375 c 4
 176.2265625 217.654296875 164.859375 154.918945312 164.859375 143.545898438 c 4
 164.859375 126.919921875 156.698242188 114.001953125 145.283203125 106.30078125 c 4
 127.014648438 93.9765625 100.825195312 95.22265625 86.4443359375 116.58984375 c 4
 58.9736328125 156.737304688 56.3837890625 168.856445312 66.2705078125 223.93359375 c 4
EndSplineSet
EndChar

StartChar: j
Encoding: 106 106 70
Width: 398
Flags: W
HStem: -70.7402 124.653<123.977 198.32>
VStem: 214.999 109.114<69.8374 100 337.926 436.605>
LayerCount: 2
Fore
SplineSet
220.668945312 337.92578125 m 0
 221.508789062 437.028320312 222.275390625 442.518554688 234.028320312 451.487304688 c 0
 251.653320312 463.676757812 255.361328125 463.77734375 259.9140625 455.809570312 c 0
 265.262695312 446.89453125 274.779296875 453.307617188 283.424804688 453.080078125 c 0
 308.541015625 452.409179688 328.74609375 380.608398438 324.11328125 281.307617188 c 0
 317.736328125 149.514648438 348.106445312 118.561523438 273.95703125 -13.3251953125 c 1
 251.342773438 -54.666015625 l 1
 208.590820312 -70.740234375 l 2
 142.288085938 -73.556640625 130.063476562 -59.81640625 87.1787109375 -11.30859375 c 0
 57.4345703125 22.685546875 48.498046875 59.8779296875 55.0126953125 77.466796875 c 0
 57.8671875 84.8896484375 61.9365234375 86.5732421875 82.6826171875 82.28125 c 0
 117.272460938 75.693359375 115.860351562 61.232421875 150.624023438 53.9130859375 c 0
 173.1875 49.546875 178.852539062 52.9736328125 195.463867188 72.474609375 c 0
 205.759765625 84.5615234375 214.791992188 94.0263671875 214.999023438 100 c 0
 215.098632812 102.872070312 213.306640625 113.72265625 214.186523438 122.080078125 c 0
 215.1640625 131.372070312 220.021484375 154.4296875 222.029296875 183.147460938 c 0
 225.16796875 228.038085938 219.864257812 242.973632812 220.668945312 337.92578125 c 0
236.106445312 591.874023438 m 0
 220.073242188 615.575195312 215.3359375 651.43359375 225.333984375 663.305664062 c 0
 231.610351562 670.837890625 240.25 673.051757812 260.65234375 670.23828125 c 0
 294.25 665.438476562 311.71875 644.6796875 312.407226562 609.567382812 c 0
 312.407226562 588.051757812 309.525390625 583.078125 294.61328125 574.936523438 c 0
 272.334960938 564.16015625 251.798828125 570.041015625 236.106445312 591.874023438 c 0
294.61328125 574.936523438 m 1
 294.560546875 574.907226562 l 1
 294.61328125 574.936523438 l 1
EndSplineSet
EndChar

StartChar: k
Encoding: 107 107 71
Width: 563
Flags: W
VStem: 65.0996 90.6357<76.7178 232>
LayerCount: 2
Fore
SplineSet
151.138671875 699.532226562 m 4
 170.908203125 725.68359375 211.671875 700.05078125 226.6171875 661.915039062 c 4
 242.866210938 622.283203125 240.330078125 571.793945312 216.114257812 472.326171875 c 4
 196.897460938 393.092773438 265.666015625 461.680664062 348.153320312 539.928710938 c 4
 375.004882812 565.504882812 404.9375 590.640625 412.82421875 595.272460938 c 4
 449.623046875 615.861328125 473.474609375 578.138671875 471.521484375 522.3828125 c 4
 470.14453125 485.708007812 464.915039062 480.364257812 356.709960938 390.59375 c 4
 329.264648438 366.530273438 306.001953125 344.194335938 306.001953125 336.3828125 c 4
 306.001953125 328.9453125 329.795898438 317.422851562 355.291992188 307.107421875 c 4
 431.883789062 276.643554688 466.454101562 251.44140625 481.645507812 214.841796875 c 4
 505.936523438 156.813476562 505.806640625 151.291015625 486.817382812 138.5 c 4
 464.694335938 123.66015625 446.434570312 127.721679688 406.77734375 159.787109375 c 4
 389.635742188 173.069335938 370.165039062 184.610351562 362.4140625 184.610351562 c 4
 356.655273438 184.610351562 350.454101562 189.560546875 349.272460938 191.620117188 c 4
 345.1015625 197.413085938 324.809570312 204.807617188 300.838867188 211.827148438 c 4
 276.861328125 219.551757812 243.560546875 233.077148438 227.272460938 242.119140625 c 4
 197.809570312 258.974609375 193.889648438 259.703125 183.974609375 245.6328125 c 4
 178.796875 238.09375 174.391601562 226.5390625 174.391601562 217.943359375 c 4
 174.391601562 212.916015625 163.055664062 153.854492188 155.735351562 125.995117188 c 4
 141.330078125 69.603515625 130.494140625 60.7109375 100.205078125 69.0068359375 c 4
 69.25 77.0263671875 50.3603515625 135.428710938 65.099609375 185.99609375 c 4
 84.3798828125 249.696289062 121.206054688 475.62890625 136.115234375 623.637695312 c 4
 140.357421875 660.352539062 147.33984375 695.112304688 151.138671875 699.532226562 c 4
EndSplineSet
EndChar

StartChar: l
Encoding: 108 108 72
Width: 318
Flags: W
VStem: 62 197.86
LayerCount: 2
Fore
SplineSet
151.340820312 673.333007812 m 4
 157.116210938 718.209960938 161.151367188 730.09765625 180.486328125 741.61328125 c 4
 202.627929688 754.7734375 227.071289062 746.067382812 242.420898438 717.3046875 c 4
 260.147460938 685.579101562 268.568359375 629.499023438 259.860351562 620.83984375 c 4
 255.353515625 616.049804688 252.036132812 602.819335938 252.036132812 591.063476562 c 4
 252.036132812 581.502929688 248.47265625 572.614257812 247.461914062 571.745117188 c 4
 241.709960938 567.276367188 236.427734375 547.163085938 231.526367188 524.046875 c 4
 226.580078125 501.504882812 218.076171875 469.015625 212.432617188 451.434570312 c 4
 198.099609375 403.984375 166.248046875 220.740234375 163.387695312 166.2265625 c 4
 158.40625 87.271484375 152.50390625 66.2421875 136.172851562 55.6025390625 c 4
 113.854492188 40.73828125 93.5009765625 45.435546875 76.39453125 69.068359375 c 4
 64.119140625 85.71875 62 97.6982421875 62 157.73046875 c 4
 62 252.130859375 75.146484375 292.6328125 90.330078125 375.471679688 c 4
 107.345703125 470.5703125 122.227539062 540.782226562 134.256835938 584.697265625 c 4
 139.978515625 606.075195312 147.776367188 646.340820312 151.340820312 673.333007812 c 4
EndSplineSet
EndChar

StartChar: m
Encoding: 109 109 73
Width: 662
Flags: W
HStem: 118.687 21G<82.0289 139.587> 526.303 20.0088G<158.574 164.282 277.407 294.643 468.878 499.032>
VStem: 286.604 95.6348<147.392 248.12> 484.146 104.957<124.222 378.038>
LayerCount: 2
Fore
SplineSet
118.233398438 456.313476562 m 4
 123.182617188 497.322265625 129.323242188 514.228515625 147.416992188 535.10546875 c 4
 152.166992188 540.450195312 157.811523438 545.348632812 159.336914062 546.302734375 c 4
 169.2265625 545.296875 202.66015625 523.033203125 211.071289062 511.1875 c 4
 215.001953125 505.588867188 218.932617188 499.990234375 222.86328125 494.391601562 c 5
 237.858398438 503.8125 268.538085938 525.034179688 286.275390625 525.034179688 c 4
 303.009765625 525.034179688 358.422851562 488.173828125 363.50390625 473.340820312 c 4
 367.516601562 464.0078125 392.692382812 452.551757812 394.041992188 470.12109375 c 4
 394.880859375 473.256835938 408.986328125 492.211914062 425.44140625 510.959960938 c 4
 450.551757812 538.631835938 461.7578125 546.311523438 475.999023438 546.311523438 c 4
 522.064453125 546.311523438 558.88671875 512.78125 578.5859375 450.16796875 c 4
 591.255859375 412.15625 592.654296875 392.994140625 589.103515625 292.139648438 c 4
 585.549804688 157.81640625 582.576171875 140.393554688 563.508789062 119.284179688 c 4
 546.200195312 100.188476562 519.627929688 97.861328125 499.9921875 124.770507812 c 4
 478.458984375 153.25 474.94140625 176.905273438 484.146484375 234.26171875 c 4
 487.7109375 260.63671875 493.375 309.478515625 496.220703125 341.512695312 c 4
 498.778320312 374.755859375 505.518554688 405.622070312 484.754882812 400.916015625 c 4
 462.424804688 396.821289062 415.436523438 291.260742188 382.239257812 183.614257812 c 4
 372.659179688 153.6875 350.903320312 132.87109375 330.198242188 132.87109375 c 4
 308.6171875 132.87109375 302.829101562 136.927734375 286.953125 161.501953125 c 4
 272.951171875 184.563476562 272.649414062 214.2734375 286.604492188 295.8984375 c 4
 294.513671875 341.87890625 297.874023438 367.4921875 290.06640625 373.251953125 c 4
 282.529296875 378.8125 271.522460938 364.561523438 257.078125 343.87109375 c 4
 216.495117188 285.506835938 180.782226562 215.32421875 175.686523438 179.65625 c 4
 168.659179688 129.7578125 157.749023438 118.686523438 121.424804688 118.686523438 c 6
 91.1201171875 118.686523438 l 5
 74.0634765625 156.209960938 l 6
 59.9609375 188.645507812 58.72265625 199.02734375 63.5615234375 220.516601562 c 4
 74.65625 257.547851562 112.58203125 412.518554688 118.233398438 456.313476562 c 4
63.5517578125 217.974609375 m 6
 63.5361328125 217.932617188 l 6
 63.5400390625 217.947265625 63.546875 217.9609375 63.5517578125 217.974609375 c 6
63.5625 218.034179688 m 5
 63.5625 218.05078125 63.5712890625 218.06640625 63.5625 218.034179688 c 5
63.576171875 218.083007812 m 5
 63.576171875 218.088867188 63.580078125 218.094726562 63.576171875 218.083007812 c 5
EndSplineSet
EndChar

StartChar: n
Encoding: 110 110 74
Width: 476
Flags: W
HStem: 109.965 21G<110.118 128.625> 510.496 20G<178.193 188.906>
VStem: 72.7783 90.1904<117.434 234.631> 154.742 70.0156<478.505 520.38>
LayerCount: 2
Fore
SplineSet
129.625 431.09765625 m 0xe0
 135.973632812 464.955078125 147.538085938 501.866210938 154.7421875 511.69140625 c 0
 162.291015625 522.669921875 174.640625 530.49609375 181.74609375 530.49609375 c 0
 196.065429688 530.49609375 224.7578125 504.572265625 224.7578125 493.280273438 c 0xd0
 224.7578125 473.104492188 240.689453125 474.6875 264.640625 484.583007812 c 0
 295.006835938 497.8671875 322.44140625 497.787109375 347.997070312 484.6640625 c 0
 400.993164062 458.510742188 418.266601562 392.1328125 402.670898438 272.329101562 c 0
 391.326171875 185.826171875 381.362304688 150.849609375 363.458984375 127.4375 c 0
 345.93359375 105.194335938 328.912109375 104.967773438 306.208007812 127.671875 c 0
 287.345703125 146.573242188 287.000976562 153.360351562 307.591796875 252.318359375 c 0
 314.017578125 280.166015625 318.274414062 315.596679688 318.997070312 332.944335938 c 0
 318.997070312 359.907226562 316.646484375 365.283203125 299.475585938 365.283203125 c 0
 287.622070312 365.283203125 274.274414062 356.104492188 263.2421875 341.669921875 c 0
 253.092773438 328.921875 232.736328125 302.647460938 217.169921875 282.811523438 c 0
 182.42578125 238.604492188 163.696289062 197.759765625 162.96875 162.809570312 c 0
 162.96875 129.163085938 144.264648438 109.96484375 112.986328125 109.96484375 c 0
 107.249023438 109.96484375 101.96484375 110.922851562 97.1279296875 112.717773438 c 0
 62.796875 125.455078125 49.2587890625 182.384765625 72.7783203125 244.895507812 c 0
 83.1025390625 273.28515625 101.39453125 331.858398438 110.994140625 356.034179688 c 0
 115.186523438 364.061523438 122.552734375 396.442382812 129.625 431.09765625 c 0xe0
EndSplineSet
EndChar

StartChar: o
Encoding: 111 111 75
Width: 521
Flags: W
HStem: 443.652 77.3584<300.827 357.188> 520.909 21G<357.194 357.232>
LayerCount: 2
Fore
SplineSet
336.69140625 431.983398438 m 4x80
 329.141601562 438.4609375 313.026367188 443.65234375 300.827148438 443.65234375 c 4
 278.235351562 443.934570312 250.625 417.0078125 226.314453125 382.37890625 c 4
 184.186523438 322.850585938 147.064453125 233.94140625 176.971679688 211.817382812 c 4
 218.21875 180.536132812 319.676757812 223.241210938 356.427734375 284.139648438 c 4
 380.516601562 323.358398438 369.993164062 406.4765625 336.69140625 431.983398438 c 4x80
223.668945312 540.780273438 m 4
 263.068359375 560.954101562 292.666992188 561.366210938 319.283203125 542.22265625 c 4
 331.8203125 533.045898438 347.818359375 523.270507812 357.188476562 521.010742188 c 4
 395.765625 509.270507812 446.203125 421.887695312 453.948242188 349.723632812 c 4
 466.571289062 235.018554688 387.197265625 120.866210938 278.28515625 93.9716796875 c 4
 224.825195312 80.82421875 204.525390625 81.5673828125 168.130859375 98.9365234375 c 4
 113.549804688 123.849609375 76.4755859375 171.479492188 62.4541015625 233.52734375 c 4
 56.326171875 260.97265625 70.30078125 333.173828125 90.640625 378.412109375 c 4
 98.435546875 393.982421875 109.12890625 418.1875 115.479492188 432.28515625 c 4
 129.966796875 463.658203125 184.341796875 518.142578125 223.668945312 540.780273438 c 4
357.188476562 521.010742188 m 6
 357.157226562 521.018554688 l 6
 357.16796875 521.018554688 357.178710938 521.010742188 357.188476562 521.010742188 c 6
357.194335938 521.010742188 m 6
 357.209960938 521.010742188 357.224609375 520.9453125 357.239257812 520.909179688 c 6x40
 357.194335938 521.010742188 l 6
EndSplineSet
EndChar

StartChar: p
Encoding: 112 112 76
Width: 525
Flags: W
HStem: -58.1562 21G<60 170.491>
VStem: 60 110.491<-58.1562 149.894>
LayerCount: 2
Fore
SplineSet
235.349609375 482.979492188 m 0
 304.234375 491.559570312 374.041992188 470.65625 407.9921875 433.341796875 c 0
 445.99609375 391.259765625 457.690429688 360.541015625 457.690429688 305.693359375 c 0
 456.983398438 261.090820312 454.348632812 249.975585938 437.498046875 222.591796875 c 0
 410.314453125 177.440429688 354.24609375 142.010742188 293.817382812 132.62109375 c 0
 252.50390625 125.291992188 246.237304688 125.921875 221.028320312 139.701171875 c 0
 206.172851562 147.33984375 191.067382812 155.818359375 187.3046875 151.7734375 c 0
 178.791992188 143.134765625 170.491210938 61.943359375 170.491210938 8.5107421875 c 2
 170.491210938 -58.15625 l 1
 60 -58.15625 l 1
 64.142578125 39.5087890625 l 2
 66.263671875 92.5751953125 75.4794921875 180.538085938 84.6796875 234.348632812 c 0
 97.4052734375 313.072265625 99.427734375 336.659179688 91.3837890625 348.873046875 c 0
 87.646484375 355.569335938 81.7529296875 374.014648438 79 388.141601562 c 0
 74.8369140625 414.01953125 76.2060546875 415.977539062 97.1845703125 432.641601562 c 0
 122.7109375 451.443359375 198.143554688 478.75390625 235.349609375 482.979492188 c 0
347.614257812 357.735351562 m 0
 328.159179688 375.912109375 266.40625 377.7265625 232.817382812 362.8125 c 0
 216.283203125 355.692382812 212.029296875 347.987304688 212.029296875 325.532226562 c 0
 212.029296875 311.685546875 208.6171875 286.223632812 204.528320312 269.352539062 c 0
 201.1171875 252.461914062 199.369140625 234.721679688 203.802734375 230.147460938 c 0
 214.32421875 219.29296875 278.071289062 242.888671875 308.619140625 264.6015625 c 0
 324.166015625 275.536132812 342.9609375 296.884765625 351.044921875 311.581054688 c 2
 365.240234375 339.716796875 l 1
 366.181640625 342.262695312 l 1
 359.993164062 347.420898438 353.803710938 352.578125 347.614257812 357.735351562 c 0
EndSplineSet
EndChar

StartChar: q
Encoding: 113 113 77
Width: 471
Flags: W
HStem: 54.4795 21G<265.897 285.942>
VStem: 287.226 92.3174<181.214 359.015> 290.096 112.334<-98.0575 51.1272>
LayerCount: 2
Fore
SplineSet
287.225585938 346.541015625 m 1xc0
 278.799804688 369.8203125 255.052734375 359.938476562 225.784179688 334.380859375 c 0
 194.5703125 306.130859375 159.008789062 244.403320312 166.259765625 224.724609375 c 0
 168.810546875 217.919921875 181.75390625 204.603515625 194.790039062 194.52734375 c 0
 212.637695312 180.126953125 225.678710938 176.264648438 244.416015625 177.720703125 c 0
 253.622070312 178.483398438 262.827148438 179.24609375 272.033203125 180.0078125 c 1
 275.271484375 205.732421875 278.510742188 231.45703125 281.75 257.181640625 c 0
 287.494140625 300.456054688 288.161132812 337.870117188 287.225585938 346.541015625 c 1xc0
286.427734375 500.552734375 m 0
 293.006835938 501.862304688 341.107421875 490.967773438 362.759765625 483.049804688 c 0
 371.3359375 479.879882812 383.359375 463.740234375 391.80859375 443.333007812 c 0
 407.173828125 408.181640625 407.264648438 395.700195312 390.20703125 289.098632812 c 0
 386.62890625 265.465820312 381.672851562 204.432617188 379.54296875 153.971679688 c 0xc0
 375.294921875 65.7294921875 376.103515625 57.58984375 393.869140625 8.3095703125 c 0
 402.99609375 -18.0146484375 403.357421875 -79.1337890625 402.4296875 -85.7783203125 c 0
 392.515625 -96.44140625 383.379882812 -102.002929688 373.34375 -105.478515625 c 0
 332.57421875 -120.111328125 291.673828125 -86.5673828125 290.095703125 -81.3525390625 c 0xa0
 289.419921875 -76.55078125 293.751953125 -14.322265625 290.907226562 10.7060546875 c 2
 285.942382812 54.6806640625 l 1
 285.715820312 54.4794921875 l 1
 246.078125 58.560546875 214.689453125 63.5478515625 183.133789062 80.916015625 c 0
 142.001953125 103.002929688 86.8603515625 160.7578125 71.615234375 197.490234375 c 0
 50.0556640625 249.403320312 61.8212890625 318.653320312 102.5078125 373.848632812 c 0
 114.596679688 389.43359375 129.509765625 410.655273438 135.955078125 420.64453125 c 0
 151.65234375 445.616210938 199.895507812 475.154296875 245.500976562 487.309570312 c 0
 266.140625 493.094726562 283.546875 498.373046875 286.427734375 500.552734375 c 0
249.930664062 58.220703125 m 2
 249.930664062 58.220703125 249.893554688 58.2138671875 249.875 58.2138671875 c 1
 249.899414062 58.2138671875 249.924804688 58.2041015625 249.930664062 58.220703125 c 2
249.987304688 58.19921875 m 1
 249.961914062 58.2041015625 249.973632812 58.19921875 249.987304688 58.19921875 c 1
EndSplineSet
EndChar

StartChar: r
Encoding: 114 114 78
Width: 515
Flags: W
VStem: 69.0029 108.554<86.7377 364.694>
LayerCount: 2
Fore
SplineSet
253.608398438 506.52734375 m 0
 300.859375 518.591796875 355.715820312 528.510742188 375.079101562 528.510742188 c 0
 408.28125 529.2421875 412.376953125 527.681640625 431.3203125 504.422851562 c 0
 458.244140625 473.467773438 476.448242188 408.314453125 421.939453125 395.057617188 c 0
 407.204101562 391.276367188 402.338867188 393.15234375 389.078125 408.908203125 c 0
 371.250976562 434.001953125 355.186523438 435.342773438 307.254882812 419.109375 c 0
 244.075195312 398.875 202.116210938 375.868164062 191.170898438 352.833007812 c 0
 185.766601562 342.421875 180.404296875 276.752929688 177.556640625 229.217773438 c 0
 172.5703125 138.228515625 169.2578125 78.7763671875 141.564453125 68.4248046875 c 0
 120.84765625 59.5771484375 75.0849609375 89.5712890625 69.0029296875 116.567382812 c 0
 66.39453125 126.34765625 66.2470703125 246.984375 69.07421875 297.875976562 c 0
 71.9140625 349.032226562 74.048828125 405.758789062 73.33203125 424.430664062 c 0
 72.6298828125 452.702148438 75.861328125 461.7890625 90.3310546875 476.737304688 c 0
 102.970703125 489.93359375 111.095703125 492.549804688 118.055664062 489.522460938 c 0
 137.578125 480.444335938 159.57421875 483.713867188 253.608398438 506.52734375 c 0
EndSplineSet
EndChar

StartChar: s
Encoding: 115 115 79
Width: 511
Flags: W
HStem: 439.725 95.1152<343.237 440.015>
LayerCount: 2
Fore
SplineSet
177.8671875 450.499023438 m 0
 211.895507812 491.223632812 251.791992188 514.331054688 324.409179688 534.83984375 c 0
 362.74609375 545.372070312 413.077148438 541.375976562 428.885742188 526.885742188 c 0
 437.465820312 519.258789062 450.305664062 498.844726562 452.720703125 482.77734375 c 0
 456.017578125 460.836914062 440.245117188 445.0625 404.66015625 439.724609375 c 0
 370.9921875 434.709960938 308.4453125 404.076171875 302.924804688 386.978515625 c 0
 300.752929688 380.25390625 306.877929688 374.354492188 315.000976562 371.655273438 c 0
 320.201171875 369.5078125 341.948242188 352.83984375 360.044921875 335.439453125 c 0
 380.014648438 316.475585938 395.104492188 295.489257812 405.36328125 274.008789062 c 0
 438.029296875 205.611328125 421.776367188 132.655273438 358.584960938 102.638671875 c 0
 328.501953125 88.5771484375 318.467773438 87.26171875 267.614257812 90.80859375 c 0
 192.838867188 96.474609375 145.357421875 105.685546875 106.787109375 122.516601562 c 0
 78.7900390625 135.114257812 75.4814453125 139.592773438 65.615234375 172.009765625 c 0
 53.9580078125 211.754882812 49.220703125 237.130859375 100.430664062 229.815429688 c 0
 237.265625 208.581054688 280.541992188 205.810546875 300.471679688 221.05078125 c 0
 305.80859375 225.045898438 309.198242188 229.440429688 310.029296875 234.30859375 c 0
 313.584960938 255.119140625 271.333007812 272.33203125 202.559570312 283.69140625 c 0
 177.57421875 287.869140625 173.840820312 291.112304688 161.19921875 317.099609375 c 0
 152.197265625 334.407226562 146.572265625 360.348632812 146.572265625 381.223632812 c 0
 146.572265625 412.04296875 149.506835938 418.592773438 177.8671875 450.499023438 c 0
EndSplineSet
EndChar

StartChar: t
Encoding: 116 116 80
Width: 396
Flags: W
HStem: 407.837 108.476<77.2478 126.68>
VStem: 127.755 90.3535<118.75 395.636>
LayerCount: 2
Fore
SplineSet
147.885742188 563.493164062 m 0
 147.885742188 578.000976562 151.436523438 596.294921875 154.7109375 603.498046875 c 0
 163.3671875 618.95703125 201.833007812 620.34765625 216.536132812 604.41796875 c 0
 221.9453125 597.622070312 234.002929688 577.083007812 241.659179688 558.987304688 c 0
 254.466796875 527.6796875 259.249023438 523.404296875 282.265625 523.404296875 c 0
 312.471679688 523.404296875 344.688476562 487.791015625 339.499023438 474.299804688 c 0
 338.03515625 470.397460938 315.784179688 453.611328125 290.278320312 439.44140625 c 0
 255.606445312 420.3359375 242.47265625 409.255859375 239.387695312 393.057617188 c 0
 229.356445312 344.333007812 214.345703125 171.28515625 218.108398438 150.96484375 c 0
 221.51953125 133.224609375 220.342773438 130.698242188 202.369140625 121.020507812 c 0
 173.072265625 105.673828125 158.508789062 107.19140625 142.264648438 125.46484375 c 0
 119.537109375 149.571289062 110.323242188 189.16015625 115.247070312 237.693359375 c 0
 123.275390625 308.09375 127.689453125 348.936523438 127.754882812 372.857421875 c 0
 127.83984375 404.254882812 119.14453125 407.836914062 102.123046875 407.836914062 c 0
 86.3466796875 407.836914062 53.779296875 459.181640625 58.4541015625 479.217773438 c 0
 62.2568359375 494.427734375 96.0283203125 516.3125 117.017578125 516.3125 c 0
 137.493164062 516.3125 147.885742188 533.368164062 147.885742188 563.493164062 c 0
216.487304688 604.479492188 m 1
 216.504882812 604.4609375 216.53125 604.442382812 216.487304688 604.479492188 c 1
216.53515625 604.423828125 m 1
 216.536132812 604.41796875 l 1
 216.53515625 604.423828125 l 1
EndSplineSet
EndChar

StartChar: u
Encoding: 117 117 81
Width: 520
Flags: W
VStem: 72.6553 98.582<218.657 426.457> 356.322 96.4414<314.823 505.569>
LayerCount: 2
Fore
SplineSet
417.220703125 524.83984375 m 1
 442.848632812 496.125976562 452.0546875 459.025390625 452.763671875 374.471679688 c 0
 453.469726562 272.657226562 445.611328125 254.889648438 359.92578125 172.735351562 c 0
 292.548828125 105.908203125 251.169921875 78.7724609375 206.6328125 72.337890625 c 0
 180.1171875 67.994140625 175.9765625 69.63671875 152.743164062 91.4736328125 c 0
 115.143554688 127.302734375 93.2021484375 183.1953125 72.6552734375 299.009765625 c 0
 59.166015625 380.083007812 59.9423828125 445.319335938 74.1591796875 460.993164062 c 0
 89.341796875 477.059570312 105.086914062 476.358398438 129.509765625 454.620117188 c 0
 154.83984375 431.724609375 171.237304688 377.8359375 171.237304688 314.184570312 c 0
 171.237304688 272.008789062 183.012695312 224.068359375 197.719726562 208.87109375 c 0
 209.463867188 196.734375 274.20703125 244.725585938 313.747070312 288.357421875 c 0
 359.58984375 337.797851562 366.997070312 364.748046875 356.322265625 447.469726562 c 0
 347.762695312 513.06640625 347.770507812 513.494140625 362.512695312 524.858398438 c 1
 380.9296875 525.916015625 404.091796875 525.89453125 417.220703125 524.83984375 c 1
EndSplineSet
EndChar

StartChar: v
Encoding: 118 118 82
Width: 509
Flags: W
HStem: 79.043 21G<205.513 228.681>
LayerCount: 2
Fore
SplineSet
338.469726562 536.112304688 m 4
 343.303710938 551.993164062 354.665039062 573.197265625 362.727539062 581.931640625 c 4
 383.19921875 603.768554688 393.086914062 603.290039062 418.780273438 580.375 c 4
 443.807617188 556.737304688 460.380859375 500.842773438 448.896484375 483.615234375 c 4
 378.49609375 380.50390625 271.051757812 163.3359375 271.051757812 124.76953125 c 4
 271.051757812 104.083007812 241.573242188 79.04296875 215.788085938 79.04296875 c 4
 195.237304688 79.04296875 190.9609375 82.279296875 174.384765625 108.388671875 c 4
 156.177734375 137.099609375 151.34375 152.831054688 136.44921875 235.81640625 c 4
 132.87890625 259.379882812 127.448242188 281.180664062 124.778320312 285.629882812 c 4
 123.127929688 288.379882812 115.068359375 312.844726562 108.021484375 338.9140625 c 4
 100.907226562 364.528320312 87.435546875 407.787109375 77.4541015625 434.16796875 c 4
 56.1474609375 490.276367188 55.16015625 506.579101562 70.078125 527.59765625 c 4
 75.501953125 535.403320312 81.990234375 539.978515625 89.0810546875 541.963867188 c 4
 118.25 550.127929688 161.221679688 513.451171875 177.668945312 453.901367188 c 4
 199.418945312 371.520507812 209.205078125 335.766601562 220.5078125 329.8984375 c 4
 228.637695312 325.677734375 234.522460938 336.356445312 240.646484375 349.25 c 4
 245.329101562 360.3046875 268.037109375 400.153320312 289.283203125 437.66796875 c 4
 311.31640625 474.64453125 333.349609375 518.552734375 338.469726562 536.112304688 c 4
EndSplineSet
EndChar

StartChar: w
Encoding: 119 119 83
Width: 723
Flags: W
VStem: 254.272 137.852<355.467 427.639> 565.233 79.6699<440.687 564.031>
LayerCount: 2
Fore
SplineSet
594.877929688 570.15234375 m 4
 616.502929688 579.670898438 615.14453125 579.40625 635.586914062 561.6484375 c 4
 671.126953125 530.741210938 675.815429688 461.495117188 644.903320312 400.075195312 c 4
 610.852539062 332.795898438 597.280273438 301.12109375 588.70703125 271.569335938 c 4
 574.61328125 224.990234375 533.060546875 145.237304688 520.059570312 138.216796875 c 4
 513.005859375 134.168945312 495.647460938 130.42578125 482.7421875 130.42578125 c 4
 461.499023438 130.42578125 453.21875 136.8046875 398.46875 195.985351562 c 4
 365.778320312 230.534179688 334.595703125 260.584960938 326.7265625 260.584960938 c 4
 313.197265625 260.584960938 270.478515625 192.796875 264.168945312 166.49609375 c 4
 254.53125 127.465820312 234.87890625 104.205078125 204.393554688 96.3798828125 c 4
 177.145507812 88.685546875 173.853515625 89.32421875 159.51171875 103.448242188 c 4
 138.7421875 123.970703125 125.4609375 151.6796875 119.846679688 188.977539062 c 4
 107.767578125 264.63671875 87.9375 351.546875 73.619140625 388.943359375 c 4
 54.5322265625 441.145507812 57.107421875 469.521484375 81.27734375 487.1796875 c 4
 103.434570312 504.310546875 128.770507812 499.294921875 154.54296875 470.858398438 c 4
 169.666015625 454.098632812 174.473632812 439.827148438 182.260742188 385.76171875 c 4
 187.165039062 351.208984375 192.366210938 321.756835938 198.284179688 318.352539062 c 4
 210.185546875 312.391601562 249.680664062 379.080078125 254.272460938 399.928710938 c 4
 266.774414062 457.15625 286.629882812 475.674804688 323.411132812 467.3046875 c 4
 351.325195312 461.073242188 392.124023438 407.155273438 392.124023438 376.524414062 c 4
 392.124023438 360.33984375 452.374023438 295.0703125 466.063476562 299.6953125 c 4
 476.180664062 303.448242188 511.631835938 372.525390625 559.380859375 472.26953125 c 4
 562.3671875 479.50390625 565.233398438 491.956054688 565.233398438 501.34765625 c 4
 565.233398438 530.963867188 580.323242188 564.2578125 594.877929688 570.15234375 c 4
EndSplineSet
EndChar

StartChar: x
Encoding: 120 120 84
Width: 532
Flags: W
LayerCount: 2
Fore
SplineSet
68.4541015625 544.755859375 m 4
 80.2001953125 558.767578125 118.173828125 552.072265625 144.252929688 528.456054688 c 4
 167.659179688 506.485351562 210.991210938 445.377929688 231.276367188 420.678710938 c 4
 239.635742188 411.061523438 247.009765625 397.176757812 249.427734375 390.850585938 c 4
 252.1484375 383.989257812 256.385742188 377.375976562 262.05078125 377.375976562 c 4
 268.305664062 377.375976562 300.666992188 415.0078125 337.665039062 458.947265625 c 4
 403.55859375 538.834960938 424.432617188 553.268554688 446.486328125 544.763671875 c 4
 458.625976562 540.390625 470.374023438 510.657226562 473.221679688 468.15625 c 4
 475.979492188 432.258789062 475.624023438 431.337890625 371.057617188 320.224609375 c 4
 355.377929688 303.267578125 339.671875 286.336914062 324.0078125 269.364257812 c 5
 333.400390625 261.229492188 342.790039062 253.091796875 352.181640625 244.956054688 c 4
 385.102539062 217.596679688 398.747070312 191.462890625 398.747070312 157.517578125 c 4
 398.747070312 144.697265625 395.559570312 135.239257812 390.240234375 128.825195312 c 4
 373.681640625 110.158203125 333.17578125 116.854492188 291.9375 154.680664062 c 5
 258.159179688 187.747070312 l 5
 256.39453125 189.377929688 l 5
 244.512695312 175.997070312 232.80078125 162.4453125 220.983398438 149 c 4
 160.034179688 81.8759765625 155.555664062 78.4482421875 137.349609375 83.0498046875 c 4
 107.185546875 90.90625 96.6904296875 106.40625 96.6904296875 143.333007812 c 4
 96.6904296875 173.255859375 100.310546875 179.9609375 138.680664062 227.569335938 c 4
 162.095703125 255.951171875 181.758789062 283.799804688 181.758789062 290.850585938 c 4
 181.758789062 309.48046875 120.380859375 396.978515625 95.6904296875 415.432617188 c 4
 84.7373046875 423.508789062 70.4462890625 439.786132812 67.4375 448.715820312 c 4
 58.3828125 475.592773438 59.0224609375 533.357421875 68.4541015625 544.755859375 c 4
EndSplineSet
EndChar

StartChar: y
Encoding: 121 121 85
Width: 480
Flags: W
VStem: 61 94.29<368.087 412.005>
LayerCount: 2
Fore
SplineSet
89.5498046875 -53.2431640625 m 1
 93.0166015625 -39.08984375 153.198242188 110.779296875 153.198242188 123.403320312 c 0
 153.198242188 130.4453125 141.702148438 159.740234375 127.424804688 189.723632812 c 0
 94.21484375 259.67578125 61 357.833984375 61 384.396484375 c 0
 61 410.2890625 77.9755859375 431.205078125 98.2158203125 431.205078125 c 0
 114.10546875 431.205078125 155.290039062 397.36328125 155.290039062 386.5234375 c 0
 155.290039062 381.282226562 159.80859375 373.948242188 166.15625 367.797851562 c 0
 178.518554688 353.678710938 193.741210938 257.1171875 213.704101562 247.603515625 c 0
 223.997070312 242.655273438 232.229492188 266.220703125 280.025390625 378.034179688 c 0
 288.268554688 397.907226562 297.119140625 423.875976562 299.91796875 437.588867188 c 2
 299.931640625 437.651367188 l 1
 305.95703125 476.184570312 328.151367188 500.344726562 374.602539062 480.862304688 c 0
 390.752929688 474.866210938 419.793945312 425.109375 419.793945312 403.544921875 c 0
 419.793945312 388.84375 363.934570312 261.330078125 300.908203125 134.041992188 c 0
 271.568359375 73.056640625 241.5390625 4.5888671875 232.046875 -17.7373046875 c 2
 206 -79 l 1
 148 -107 l 2
 124.587890625 -118.302734375 95.029296875 -55.517578125 89.5498046875 -53.2431640625 c 1
EndSplineSet
EndChar

StartChar: z
Encoding: 122 122 86
Width: 614
Flags: W
HStem: 113.28 122.659<360.424 527.93> 378.191 132.452<205.572 310.155>
LayerCount: 2
Fore
SplineSet
219.4765625 498.041992188 m 4
 260.48828125 504.53125 291.844726562 508.733398438 295.188476562 510.643554688 c 4
 307.685546875 514.450195312 459.255859375 509.2421875 467.549804688 506.155273438 c 4
 481.4140625 495.8359375 510.294921875 445.864257812 510.294921875 431.740234375 c 4
 510.294921875 396.600585938 431.166992188 305.616210938 345.010742188 243.405273438 c 4
 325.845703125 230.184570312 314.3671875 220.315429688 314.086914062 213.348632812 c 4
 313.909179688 208.923828125 318.217773438 207.571289062 322.057617188 207.571289062 c 4
 325.69140625 207.571289062 359.19140625 213.9609375 399.040039062 221.801757812 c 4
 437.97265625 229.578125 479.990234375 235.939453125 490.809570312 235.939453125 c 4
 512.51953125 235.939453125 533.958007812 215.286132812 546.599609375 178.764648438 c 4
 555.69921875 152.168945312 556.19921875 153.48828125 533.830078125 133.217773438 c 4
 517.814453125 119.290039062 504.278320312 113.280273438 487.97265625 113.280273438 c 4
 473.844726562 113.280273438 411.434570312 102.622070312 348.671875 89.1123046875 c 4
 201.759765625 57.1640625 124.349609375 47.2890625 109.770507812 55.529296875 c 4
 80.734375 70.77734375 65.60546875 96.1357421875 61.4169921875 133.923828125 c 6
 58 171.178710938 l 5
 93.7587890625 198.946289062 l 5
 146.916015625 237.805664062 149.016601562 238.108398438 200.518554688 282.088867188 c 4
 221.404296875 300.120117188 242.280273438 315.150390625 244.821289062 315.833007812 c 4
 251.5703125 316.651367188 265.502929688 329.642578125 280 345.275390625 c 4
 290.392578125 356.247070312 300.786132812 367.21875 311.177734375 378.19140625 c 5
 302.978515625 378.19140625 294.780273438 378.19140625 286.58203125 378.19140625 c 4
 275.46484375 378.19140625 249.100585938 371.740234375 228.034179688 363.864257812 c 4
 193.236328125 351.80078125 188.236328125 351.350585938 172.139648438 360.178710938 c 4
 150.333007812 371.08203125 116.0390625 420.548828125 116.0390625 438.8125 c 4
 116.0390625 445.491210938 122.7734375 460.140625 131.712890625 469.768554688 c 4
 144.60546875 484.6953125 156.2265625 488.787109375 219.4765625 498.041992188 c 4
EndSplineSet
EndChar

StartChar: braceleft
Encoding: 123 123 87
Width: 555
Flags: W
HStem: -63.1621 96.2871<265.654 368.1 390.041 450.005>
LayerCount: 2
Fore
SplineSet
284.708007812 730 m 0
 274.466796875 724.560546875 235.708007812 686.0234375 235.708007812 684 c 0
 235.708007812 678.73828125 215.043945312 655.021484375 206.708007812 640 c 0
 183.54296875 598.255859375 209.728515625 542.123046875 224.708007812 499 c 0
 248.24609375 431.233398438 200.487304688 470.634765625 123.680664062 435.205078125 c 0
 73.373046875 411.999023438 37.69140625 381.873046875 49.15234375 349.997070312 c 0
 66.650390625 301.330078125 67.076171875 308.3984375 96.7080078125 298 c 0
 120.798828125 289.545898438 134.430664062 296.108398438 150.430664062 292.108398438 c 0
 170.430664062 287.108398438 224.065429688 247.328125 210.708007812 236 c 0
 188.640625 217.28515625 161.34765625 100.83203125 161.34765625 48.51171875 c 0
 161.34765625 1.1396484375 196.131835938 -49.3798828125 240.256835938 -66.1572265625 c 0
 255.618164062 -72.7099609375 325.708007812 -75 358.889648438 -70.91015625 c 4
 363.306640625 -70.3662109375 380.025390625 -65.33984375 401.807617188 -63.162109375 c 4
 426.263671875 -60.3662109375 445.54296875 -53.8916015625 453.510742188 -45.4267578125 c 0
 465.671875 -32.505859375 465.641601562 -31.5439453125 456.453125 -3.8056640625 c 0
 446.68359375 22.8740234375 444.5234375 25.322265625 412.09765625 33.125 c 0
 383.16015625 40.9365234375 372.265625 40.96484375 339.10546875 31.0029296875 c 0
 296.200195312 18.7265625 254.65625 17.470703125 264.05859375 48.4677734375 c 0
 281.909179688 103.618164062 272.13671875 157.169921875 321.259765625 223.64453125 c 0
 364.987304688 282.818359375 362.708007812 274.75 362.708007812 304 c 0
 362.708007812 322.375976562 374.708007812 351.719726562 342.708007812 348 c 0
 284.783203125 341.265625 214.69140625 337.373046875 330.708007812 409 c 0
 359.688476562 426.892578125 350.404296875 461.198242188 342.349609375 486.091796875 c 0
 333.0703125 514.770507812 308.450195312 522.274414062 298.084960938 540.893554688 c 0
 291.098632812 553.442382812 285.806640625 590.303710938 291.708007812 609 c 0
 303.78515625 647.263671875 323.657226562 655.134765625 359.708007812 676 c 0
 393.359375 695.4765625 431.791015625 699.418945312 454.014648438 680.78515625 c 0
 470.720703125 666.77734375 521.040039062 699.102539062 512.708007812 713 c 0
 488.319335938 753.678710938 477.708007812 769 408.708007812 770 c 0
 354.713867188 770.782226562 344.46875 761.741210938 284.708007812 730 c 0
453.510742188 -45.4267578125 m 1
 453.510742188 -45.4267578125 453.470703125 -45.4677734375 453.451171875 -45.48828125 c 2
 453.510742188 -45.4267578125 l 1
EndSplineSet
EndChar

StartChar: bar
Encoding: 124 124 88
Width: 243
Flags: W
HStem: -58.1562 21G<62 159.821>
VStem: 62 97.8213<-58.1562 313.568>
LayerCount: 2
Fore
SplineSet
108.662109375 601.421875 m 0
 116.688476562 604.840820312 124.3828125 607.53125 125.581054688 607.771484375 c 0
 133.873046875 603.963867188 176.935546875 552.423828125 181.322265625 540.42578125 c 0
 184.2265625 533.962890625 183.930664062 491.31640625 180.397460938 448.4375 c 0
 166.916992188 289.502929688 160.53125 155.430664062 159.821289062 50.337890625 c 2
 159.821289062 -58.15625 l 1
 62 -58.15625 l 1
 62.693359375 57.390625 l 2
 63.4013671875 120.46484375 67.65625 243.84375 73.328125 331.774414062 c 0
 78.2958984375 419.821289062 81.8505859375 508.39453125 81.1318359375 529.954101562 c 0
 79.7197265625 573.70703125 87.40234375 592.506835938 108.662109375 601.421875 c 0
EndSplineSet
EndChar

StartChar: braceright
Encoding: 125 125 89
Width: 540
Flags: W
HStem: 667.415 96.2871<87.423 271.949>
LayerCount: 2
Fore
SplineSet
135.958007812 763.702148438 m 0
 157.740234375 765.879882812 175.279296875 768.829101562 178.875976562 771.450195312 c 0
 186.733398438 775.729492188 282.147460938 773.25 297.509765625 766.697265625 c 0
 341.634765625 749.919921875 376.41796875 699.400390625 376.41796875 652.028320312 c 0
 376.41796875 599.708007812 340.379882812 449.78125 318.3125 431.06640625 c 0
 305.133789062 419.530273438 310.446289062 401.377929688 331.3828125 412.627929688 c 0
 337.868164062 415.967773438 350.307617188 419.48828125 357.291015625 419.48828125 c 0
 366.309570312 419.48828125 379.061523438 423.885742188 387.334960938 428.431640625 c 0
 397.880859375 435.0625 405.098632812 435.305664062 429.158203125 426.762695312 c 0
 458.790039062 416.364257812 472.346679688 399.634765625 488.61328125 350.54296875 c 0
 500.07421875 318.666992188 486.921875 299.35546875 436.084960938 277.334960938 c 0
 359.196289062 243.846679688 363.158203125 248.329101562 363.857421875 190.787109375 c 0
 365.235351562 136.163085938 355.684570312 98.3388671875 330.23046875 57.94921875 c 0
 321.89453125 42.927734375 313.97265625 29.142578125 313.97265625 23.880859375 c 0
 313.97265625 21.857421875 307.70703125 8.0009765625 295.817382812 1.1005859375 c 2
 171.749023438 -70.91015625 l 1
 99.7705078125 -61.150390625 l 1
 45.3896484375 2.642578125 l 2
 27.9833984375 23.0654296875 66.822265625 33.4931640625 83.7509765625 19.7548828125 c 0
 105.974609375 1.12109375 129.46875 2.17578125 163.120117188 21.65234375 c 0
 199.23828125 42.400390625 213.012695312 55.0888671875 235.944335938 88.0146484375 c 0
 249.1796875 106.7109375 271.15234375 147.09765625 239.681640625 159.646484375 c 0
 219.74609375 167.176757812 204.28515625 185.639648438 195.416992188 214.448242188 c 0
 187.361328125 239.341796875 182.088867188 265.391601562 212.946289062 279.809570312 c 4
 349.842773438 343.7734375 231.510742188 304.548828125 194.80859375 325.36328125 c 4
 166.78515625 341.255859375 166.4375 358.71875 166.4375 377.094726562 c 0
 166.4375 406.344726562 172.0703125 418.250976562 216.505859375 476.895507812 c 0
 252.305664062 525.340820312 263.3984375 588.161132812 266.875976562 618.98046875 c 0
 268.237304688 628.787109375 271.026367188 643.787109375 273.708007812 652.072265625 c 0
 283.109375 683.069335938 241.56640625 681.813476562 198.66015625 669.537109375 c 0
 165.5 659.575195312 154.60546875 659.603515625 125.66796875 667.415039062 c 0
 93.2421875 675.217773438 91.08203125 677.666015625 81.3125 704.345703125 c 0
 72.1240234375 732.083984375 72.09375 733.045898438 84.2548828125 745.966796875 c 0
 92.8212890625 753.825195312 111.501953125 760.90625 135.958007812 763.702148438 c 0
84.2548828125 745.966796875 m 1
 84.2548828125 745.966796875 84.294921875 746.0078125 84.314453125 746.028320312 c 2
 84.2548828125 745.966796875 l 1
EndSplineSet
EndChar

StartChar: asciitilde
Encoding: 126 126 90
Width: 613
Flags: W
VStem: 461.305 95.4795<385.392 440.953>
LayerCount: 2
Fore
SplineSet
471.6796875 445.389648438 m 0
 478.561523438 460.111328125 487.041992188 466.666992188 496.393554688 466.666992188 c 0
 513.579101562 466.666992188 550.4921875 432.7421875 556.784179688 401.596679688 c 0
 568.375 347.515625 473.5 252.024414062 384.850585938 232.946289062 c 0
 337.541015625 223.1640625 309.353515625 231.9453125 254.595703125 273.622070312 c 0
 205.453125 312.255859375 187.459960938 312.375 143.078125 276.40625 c 0
 112.954101562 251.887695312 83.1669921875 247.741210938 64.662109375 262.942382812 c 0
 55.765625 269.931640625 54.2177734375 277.618164062 57.7705078125 304.618164062 c 0
 60.578125 323.572265625 64.26171875 343.745117188 66.1279296875 348.720703125 c 0
 71.078125 360.9609375 121.797851562 397.592773438 152.577148438 408.518554688 c 1
 185.54296875 426.70703125 231.713867188 423.276367188 240.806640625 406.405273438 c 0
 246.244140625 400.536132812 253.333007812 396.1796875 259.681640625 395.681640625 c 0
 262.466796875 395.162109375 281.391601562 380.380859375 298.750976562 362.012695312 c 0
 337.389648438 325.499023438 358.661132812 321.391601562 392.295898438 345.458007812 c 0
 426.22265625 368.743164062 461.3046875 402.022460938 461.3046875 414.893554688 c 0
 461.3046875 419.731445312 466.1015625 433.810546875 471.6796875 445.389648438 c 0
EndSplineSet
EndChar

StartChar: cent
Encoding: 162 162 91
Width: 456
Flags: W
HStem: 116.667 90.0703<278.35 369.901>
VStem: 159.93 91.6201<-10.8253 109.843>
LayerCount: 2
Fore
SplineSet
149.845703125 215.537109375 m 0
 177.224609375 200.936523438 181.444335938 221.083984375 195.00390625 285.274414062 c 0
 206.111328125 337.053710938 209.836914062 380.780273438 178.643554688 346.381835938 c 0
 168.009765625 334.342773438 158.88671875 321.612304688 151.719726562 308.896484375 c 0
 129.665039062 269.768554688 125.462890625 229.215820312 149.845703125 215.537109375 c 0
252.192382812 558.258789062 m 0
 258.275390625 583.604492188 267.84765625 611.215820312 272.99609375 619.927734375 c 0
 277.965820312 627.69140625 289.110351562 634.379882812 296.401367188 634.379882812 c 0
 334.30859375 634.379882812 358.377929688 579.69921875 348.572265625 534.594726562 c 0
 339.989257812 496.686523438 343.278320312 485.541015625 369.576171875 470.200195312 c 0
 385.686523438 460.131835938 416.640625 425.891601562 409.796875 400.361328125 c 0
 406.124023438 386.657226562 389.134765625 380.377929688 358.028320312 388.942382812 c 0
 338.461914062 393.834960938 326.926757812 394.6796875 321.387695312 387.362304688 c 0
 313.17578125 377.287109375 289.0703125 285.751953125 282.22265625 239.40234375 c 0
 280.723632812 230.034179688 279.224609375 220.666015625 277.725585938 211.298828125 c 1
 290.456054688 209.764648438 303.216796875 208.259765625 315.958984375 206.737304688 c 0
 356.751953125 201.814453125 383.971679688 180.850585938 383.971679688 158.15625 c 0
 383.971679688 135.543945312 365.044921875 123.067382812 311.70703125 116.666992188 c 0
 265.568359375 111.034179688 261.37109375 109.510742188 257.056640625 87.791015625 c 0
 254.2578125 76.1298828125 252.236328125 51.998046875 251.549804688 34.1220703125 c 0
 250.51171875 -12.8681640625 222.333984375 -52.697265625 178.655273438 -8.830078125 c 0
 163.765625 5.7236328125 159.9296875 15.3134765625 159.9296875 36.8798828125 c 0
 159.9296875 102.983398438 153.637695312 116.045898438 113.854492188 135.575195312 c 0
 59.875 162.213867188 50 179.879882812 50 248.91796875 c 0
 50.70703125 296.307617188 54.15234375 314.127929688 68.9208984375 347.181640625 c 0
 93.455078125 399.055664062 150.081054688 459.08203125 192.239257812 477.841796875 c 0
 234.1015625 496.424804688 238.541015625 502.10546875 252.192382812 558.258789062 c 0
321.387695312 387.362304688 m 1
 321.387695312 387.362304688 321.36328125 387.331054688 321.3515625 387.315429688 c 2
 321.387695312 387.362304688 l 1
EndSplineSet
EndChar

StartChar: sterling
Encoding: 163 163 92
Width: 543
Flags: W
HStem: 64.8975 86.5029<311.089 477.454> 309.574 84.4873<70.5779 179.571> 362.02 73.7969<326.101 443.765>
LayerCount: 2
Fore
SplineSet
219.411132812 572.728515625 m 0xc0
 255.36328125 610.24609375 271.426757812 621.869140625 304.356445312 633.809570312 c 0
 326.173828125 641.48828125 360.845703125 647.870117188 380.645507812 648.563476562 c 0
 412.170898438 648.563476562 419.575195312 645.4765625 447.083984375 622.904296875 c 0
 485.198242188 590.436523438 495.565429688 569.544921875 488.12109375 541.797851562 c 0
 481.532226562 517.83203125 461.013671875 510.413085938 434.790039062 534.453125 c 0
 407.713867188 560.104492188 384.087890625 570.870117188 363.184570312 564.826171875 c 0
 331.975585938 556.838867188 292.837890625 526.705078125 271.745117188 494.311523438 c 0
 251.764648438 464.68359375 250.3046875 461.108398438 263.555664062 444.526367188 c 0
 276.052734375 428.719726562 280.716796875 428.778320312 335.715820312 435.81640625 c 0
 420.799804688 446.4765625 448.90234375 444.6953125 466.98046875 429.965820312 c 2
 481.916992188 418.140625 l 1
 469.524414062 404.509765625 l 2
 450.848632812 383.758789062 425.275390625 371.198242188 380.793945312 362.01953125 c 0xa0
 321.612304688 349.224609375 318.272460938 345.9375 326.782226562 302.369140625 c 0
 332.276367188 272.838867188 331.645507812 257.282226562 321.274414062 216.223632812 c 0
 314.271484375 188.259765625 308.80859375 163.048828125 308.037109375 159.112304688 c 2
 308.037109375 158.865234375 l 2
 308.037109375 150.90625 341.020507812 150.732421875 375.685546875 151.400390625 c 0
 450.182617188 152.8203125 469.88671875 145.826171875 486.931640625 116.508789062 c 0
 496.6171875 98.5224609375 496.14453125 98.509765625 483.828125 86.193359375 c 0
 473.44921875 76.462890625 453.504882812 71.2919921875 389.560546875 64.8974609375 c 0
 345.37890625 59.9140625 271.28125 47.1513671875 224.02734375 35.767578125 c 0
 113.15625 9.46875 90.48828125 9.865234375 62.44140625 34.4921875 c 0
 43.47265625 51.353515625 41.3994140625 55.458984375 46.1943359375 75.322265625 c 0
 49.0068359375 87.9765625 55.57421875 99.0126953125 59.5302734375 100.49609375 c 0
 66.453125 103.092773438 76.3310546875 114.874023438 82.15625 126.5234375 c 0
 91.0595703125 143.645507812 93.5400390625 144.954101562 113.48828125 141.518554688 c 0
 133.495117188 137.0859375 143.928710938 141.33203125 174.15625 165.423828125 c 0
 216.119140625 199.794921875 241.66796875 247.2578125 238.1015625 287.436523438 c 0
 235.984375 314.15234375 233.51953125 316.7265625 209.215820312 315.26171875 c 0
 195.909179688 314.544921875 168.9609375 311.711914062 149.131835938 309.57421875 c 0
 105.505859375 303.658203125 69.7421875 318.543945312 60.029296875 349.512695312 c 0
 54.384765625 367.5 66.0927734375 377.041992188 121.078125 394.061523438 c 0
 157.188476562 404.73046875 191.850585938 409.715820312 178.05078125 427.73828125 c 0
 174.911132812 432.274414062 167.9609375 447.803710938 163.873046875 461.748046875 c 0
 152.939453125 494.546875 160.317382812 509.471679688 219.411132812 572.728515625 c 0xc0
178.05078125 427.73828125 m 1
 178.05078125 427.73828125 178.026367188 427.76953125 178.014648438 427.786132812 c 2
 178.05078125 427.73828125 l 1
113.48828125 141.518554688 m 1
 113.48828125 141.518554688 113.52734375 141.51171875 113.546875 141.5078125 c 2
 113.48828125 141.518554688 l 1
EndSplineSet
EndChar

StartChar: quoteright
Encoding: 8217 8217 133
Width: 242
Flags: W
VStem: 64.0547 93.707<462.917 549.161>
LayerCount: 2
Fore
SplineSet
102.791015625 623.47265625 m 0
 131.2421875 666.860351562 129.166015625 666.0625 155.107421875 655.823242188 c 0
 192.701171875 641.723632812 203.599609375 578.921875 173.221679688 539.676757812 c 0
 164.401367188 529.845703125 157.76171875 514.639648438 157.76171875 504.96484375 c 0
 157.76171875 495.84765625 153.74609375 485.939453125 151.266601562 483.763671875 c 0
 144.818359375 480.015625 138.119140625 467.600585938 132.435546875 455.297851562 c 0
 123.3203125 432.64453125 121.458984375 431.169921875 105.533203125 435.45703125 c 0
 79.14453125 441.947265625 73.8955078125 447.291015625 64.0546875 479.409179688 c 0
 52.40234375 513.873046875 66.0302734375 564.466796875 102.791015625 623.47265625 c 0
EndSplineSet
EndChar

StartChar: quotedblleft
Encoding: 8220 8220 134
Width: 488
Flags: W
HStem: -53.1562 246.821
VStem: 120.939 87.1318<26.0744 175.052>
LayerCount: 2
Fore
SplineSet
312.887695312 188.008789062 m 0
 316.1953125 196.231445312 319.47265625 198.038085938 340.614257812 193.665039062 c 0
 402.803710938 181.91796875 430.06640625 132.697265625 424.419921875 37.4150390625 c 0
 422.30859375 7.84765625 417.235351562 -24.8974609375 413.241210938 -34.8837890625 c 0
 405.947265625 -53.44921875 407.62109375 -53.15625 339.681640625 -53.15625 c 0
 307.901367188 -53.15625 278.12890625 -51.6455078125 279.615234375 -47.78125 c 0
 283.546875 -42.7158203125 292.055664062 -28.412109375 300.0859375 -15.9306640625 c 0
 321.837890625 15.51171875 329.482421875 89.03515625 317.29296875 139.948242188 c 0
 312.357421875 161.102539062 310.659179688 182.994140625 312.887695312 188.008789062 c 0
120.939453125 120.16796875 m 0
 121.647460938 148.5078125 126.356445312 175.860351562 129.557617188 179.596679688 c 0
 136.48046875 187.672851562 159.724609375 186.127929688 198.635742188 170.391601562 c 0
 220.65625 161.263671875 226.62109375 135.05859375 216.315429688 72.4091796875 c 0
 212.186523438 45.3115234375 208.071289062 20.9716796875 208.071289062 17.3935546875 c 0
 208.071289062 14.9013671875 205.637695312 8.7578125 201.806640625 4.126953125 c 0
 197.376953125 -1.228515625 189.239257812 -15.3681640625 183.000976562 -28.296875 c 2
 172.692382812 -49.66015625 l 1
 130.6328125 -51.0263671875 88.615234375 -52.375 47 -53.7001953125 c 1
 61.5751953125 -34.4609375 l 2
 102.19921875 19.7041015625 119.505859375 65.0126953125 120.939453125 120.16796875 c 0
EndSplineSet
EndChar

StartChar: quotedblright
Encoding: 8221 8221 135
Width: 483
Flags: W
VStem: 62.5234 98.6211<426.617 545.869>
LayerCount: 2
Fore
SplineSet
148.982421875 707.803710938 m 0
 175.126953125 719.20703125 191.723632812 715.171875 212.478515625 694.326171875 c 0
 236.999023438 670.403320312 238.380859375 651.172851562 218.22265625 616.92578125 c 0
 178.364257812 550.586914062 155.318359375 482.041015625 161.14453125 439.71875 c 0
 164.693359375 413.529296875 163.41796875 409.626953125 152.504882812 403.537109375 c 0
 131.331054688 391.607421875 121.639648438 393.318359375 97.138671875 414.176757812 c 0
 63.0439453125 443.080078125 52.7373046875 475.643554688 62.5234375 522.387695312 c 0
 71.7373046875 567.938476562 72.888671875 571.499023438 109.137695312 645.729492188 c 0
 124.709960938 679.547851562 142.055664062 704.805664062 148.982421875 707.803710938 c 0
334.913085938 663.123046875 m 0
 353.52734375 686.66015625 377.21484375 684.327148438 413.138671875 651.907226562 c 0
 438.515625 632.703125 442.984375 607.455078125 425.427734375 584.49609375 c 0
 395.306640625 545.0390625 383.782226562 506.637695312 383.0703125 441.84375 c 0
 382.36328125 406.557617188 378.9375 372.301757812 377.098632812 369.4921875 c 0
 374.547851562 365.072265625 371.14453125 362.26953125 366.963867188 360.694335938 c 0
 343.501953125 352.637695312 297.293945312 382.904296875 284.827148438 422.6875 c 0
 265.336914062 484.631835938 292.624023438 616.715820312 334.913085938 663.123046875 c 0
EndSplineSet
EndChar

StartChar: bullet
Encoding: 8226 8226 136
Width: 339
Flags: W
LayerCount: 2
Fore
SplineSet
106.458984375 347.030273438 m 0
 154.950195312 387.208984375 190.692382812 381.55859375 256.31640625 320.16796875 c 0
 281.01953125 296.836914062 283.948242188 278.495117188 270.475585938 207.58203125 c 0
 267.40625 192.240234375 262.666992188 178.6171875 256.565429688 166.864257812 c 0
 230.7578125 114.25 180.586914062 96.4287109375 126.53515625 126.227539062 c 0
 95.4208984375 141.790039062 75.96875 170.611328125 60.427734375 225.541015625 c 0
 49.8125 260.923828125 50.4501953125 262.955078125 63.1513671875 291.884765625 c 0
 70.689453125 308.33203125 90.4580078125 333.116210938 106.458984375 347.030273438 c 0
EndSplineSet
EndChar

StartChar: Euro
Encoding: 8364 8364 137
Width: 604
Flags: W
HStem: 232.801 81.3291<58.4932 146.219> 254.251 96.4404<317.247 388.918> 355.691 76.5967<112.949 163.624> 390.421 87.9297<362.238 537.204>
LayerCount: 2
Fore
SplineSet
263.571289062 519.647460938 m 0xa0
 299.625 563.41796875 351.731445312 608.665039062 389.670898438 630.4375 c 0
 404.315429688 638.571289062 422.580078125 640.76171875 456.978515625 639.345703125 c 0
 496.634765625 637.9296875 506.171875 634.607421875 520.55078125 620.923828125 c 0
 536.2734375 604.498046875 541.078125 587.783203125 538.970703125 554.06640625 c 0
 537.625 533.880859375 516.340820312 536.383789062 490.442382812 554.51171875 c 0
 473.950195312 566.702148438 464.6875 568.634765625 451.765625 562.553710938 c 0
 429.883789062 552.598632812 361.645507812 497.987304688 361.645507812 487.234375 c 0
 361.645507812 479.275390625 403.182617188 478.350585938 446.4296875 478.350585938 c 0
 538.686523438 478.350585938 558.823242188 470.345703125 558.823242188 442.552734375 c 0
 558.823242188 413.873046875 542.009765625 406.138671875 422.279296875 390.420898438 c 0
 360.862304688 381.892578125 303.961914062 371.536132812 293.268554688 365.314453125 c 0
 268.74609375 352.2890625 290.266601562 351.247070312 325.771484375 350.69140625 c 0
 386.392578125 350.69140625 403.438476562 339.708007812 403.438476562 307.48046875 c 0
 403.438476562 276.063476562 382.116210938 262.846679688 312.284179688 254.250976562 c 0x50
 281.048828125 250.690429688 252.208007812 244.900390625 248.131835938 240.666992188 c 0
 237.455078125 229.713867188 234.259765625 138.619140625 240.743164062 117.330078125 c 0
 248.94921875 90.380859375 270.982421875 88.9326171875 309.791015625 101.431640625 c 0
 334.953125 109.319335938 337.983398438 110.849609375 404.07421875 140.110351562 c 0
 457.951171875 163.646484375 480.65625 161 496.76171875 133.28125 c 0
 513.037109375 105.951171875 507.854492188 93.650390625 472.233398438 75.3544921875 c 0
 385.514648438 29.7568359375 268.671875 1.0126953125 232.568359375 14.0439453125 c 0
 205.697265625 23.6904296875 157.901367188 76.416015625 153.890625 99.98828125 c 0
 151.81640625 111.12890625 148.9609375 145.45703125 148.254882812 174.62890625 c 0
 147.76171875 193.256835938 147.267578125 211.883789062 146.775390625 230.51171875 c 1
 134.909179688 231.274414062 123.043945312 232.038085938 111.178710938 232.80078125 c 0
 71.4541015625 235.609375 44 258.577148438 44 287.444335938 c 0
 44 298.413085938 48.3798828125 310.68359375 52.3701171875 314.129882812 c 0
 58.0888671875 319.314453125 134.999023438 336.365234375 157.103515625 336.365234375 c 0
 162.18359375 336.365234375 164.557617188 341.90625 164.557617188 346.029296875 c 0
 164.557617188 352.654296875 157.411132812 355.69140625 150.719726562 355.69140625 c 0
 132.2109375 355.69140625 100.73828125 383.591796875 100.73828125 398.58203125 c 0
 100.73828125 418.23828125 109.497070312 425.940429688 144.758789062 432.288085938 c 0
 175.331054688 437.298828125 226.08203125 460.502929688 227.250976562 472.137695312 c 0
 228.493164062 475.627929688 244.578125 497.640625 263.571289062 519.647460938 c 0xa0
520.55078125 620.923828125 m 1
 520.55078125 620.923828125 520.578125 620.8984375 520.592773438 620.884765625 c 2
 520.55078125 620.923828125 l 1
EndSplineSet
EndChar

StartChar: quotesingle
Encoding: 39 39 138
Width: 295
Flags: W
VStem: 106.574 130.495<528.403 645.141>
LayerCount: 2
Fore
SplineSet
117.586914062 503.575195312 m 4
 143.771484375 485.220703125 182.87109375 494.37890625 215.767578125 528.39453125 c 4
 242.5859375 557.234375 242.026367188 556.092773438 237.069335938 596.602539062 c 4
 230.741210938 650.85546875 199.33984375 723.66015625 175.66015625 741.287109375 c 4
 145.534179688 763.198242188 107.208984375 759.231445312 77.458984375 730.865234375 c 4
 60.6240234375 713.922851562 35.9365234375 668.983398438 70.224609375 655.358398438 c 4
 98.328125 644.9375 112.28125 603.719726562 106.57421875 554.78515625 c 4
 102.3125 516.52734375 103.58203125 513.936523438 117.586914062 503.575195312 c 4
EndSplineSet
EndChar

StartChar: backslash
Encoding: 92 92 139
Width: 618
Flags: W
LayerCount: 2
Fore
SplineSet
127.529296875 742.291015625 m 0
 102.65234375 764.201171875 75.8974609375 754.5078125 54.796875 711.7734375 c 0
 35.8955078125 674.858398438 36.2373046875 671.92578125 67.30859375 632.583007812 c 0
 82.28515625 613.266601562 106.424804688 578.369140625 119.970703125 554.765625 c 0
 134.13671875 531.154296875 168.036132812 473.084960938 194.946289062 425.809570312 c 0
 308.192382812 226.965820312 480.7890625 -23.2607421875 507.346679688 -32.62890625 c 0
 522.119140625 -38.1611328125 528.467773438 -36.59765625 548.944335938 -19.8740234375 c 0
 583.095703125 6.1953125 581.755859375 20.876953125 537.8515625 80.62109375 c 0
 513.560546875 111.659179688 447.866210938 229.638671875 425.166992188 259.444335938 c 0
 414.594726562 273.205078125 392.58203125 310.008789062 375.264648438 341.330078125 c 0
 275.211914062 528.599609375 139.48828125 731.575195312 127.529296875 742.291015625 c 0
EndSplineSet
EndChar

StartChar: underscore
Encoding: 95 95 140
Width: 513
Flags: W
HStem: 25.3174 107.928
LayerCount: 2
Fore
SplineSet
56 83.2626953125 m 0
 56 96.9453125 60.2587890625 101.576171875 81.412109375 110.7421875 c 0
 126.959960938 128.9609375 255.145507812 131.84375 327.919921875 133.245117188 c 4
 402.354492188 133.954101562 432.633789062 122.66796875 447.606445312 89.3203125 c 4
 454.462890625 74.236328125 454.04296875 71.099609375 442.44140625 59.498046875 c 4
 432.061523438 49.119140625 413.653320312 45.3427734375 346.122070312 38.9453125 c 4
 300.584960938 35.3876953125 255.432617188 29.1552734375 245.454101562 25.3173828125 c 4
 203.666015625 9.83984375 56 52.16015625 56 83.2626953125 c 0
EndSplineSet
EndChar

StartChar: asciicircum
Encoding: 94 94 141
Width: 512
Flags: W
VStem: 60.2627 82.5732<363.009 479.478>
LayerCount: 2
Fore
SplineSet
327.608398438 688.725585938 m 4
 328.134765625 682.462890625 371.45703125 617.583984375 443.631835938 514.15234375 c 4
 467.514648438 479.2421875 466.9453125 460.794921875 444.862304688 443.396484375 c 4
 409.043945312 415.01171875 380.430664062 428.610351562 330.0390625 500.301757812 c 4
 300.985351562 541.733398438 291.15234375 558.165039062 270.610351562 595.438476562 c 4
 255.849609375 623.10546875 242.795898438 638.767578125 222.315429688 606.659179688 c 4
 213.549804688 593.135742188 207.49609375 581.633789062 207.009765625 577.741210938 c 4
 206.418945312 575.076171875 195.233398438 548.963867188 181.737304688 520.6875 c 4
 167.439453125 490.733398438 152.552734375 447.271484375 147.504882812 422.758789062 c 4
 146.180664062 415.28515625 144.637695312 408.545898438 142.8359375 402.314453125 c 4
 131.172851562 361.963867188 110.172851562 347.151367188 80.439453125 355.896484375 c 4
 58.7392578125 361.999023438 59.548828125 360.353515625 60.2626953125 403.810546875 c 4
 60.9638671875 450.844726562 70.64453125 480.57421875 117.478515625 578.765625 c 4
 134.575195312 614.862304688 154.419921875 665.995117188 162.297851562 693.212890625 c 4
 177.888671875 751.319335938 194.521484375 774.8125 222.244140625 782.250976562 c 4
 247.806640625 789.159179688 277.418945312 778.317382812 283.090820312 763.193359375 c 4
 286.1328125 755.586914062 297.452148438 736.577148438 308.1640625 720.865234375 c 4
 318.22265625 705.443359375 327.057617188 690.48828125 327.608398438 688.725585938 c 4
EndSplineSet
EndChar

StartChar: grave
Encoding: 96 96 142
Width: 273
Flags: W
VStem: 110.574 100.495<658.403 748.6>
LayerCount: 2
Fore
SplineSet
121.586914062 633.575195312 m 4
 147.771484375 615.220703125 156.87109375 624.37890625 189.767578125 658.39453125 c 4
 216.5859375 687.234375 216.026367188 686.092773438 211.069335938 726.602539062 c 4
 204.741210938 780.85546875 173.33984375 823.66015625 149.66015625 841.287109375 c 4
 119.534179688 863.198242188 111.208984375 859.231445312 81.458984375 830.865234375 c 4
 64.6240234375 813.922851562 39.9365234375 768.983398438 74.224609375 755.358398438 c 4
 102.328125 744.9375 116.28125 733.719726562 110.57421875 684.78515625 c 4
 106.3125 646.52734375 107.58203125 643.936523438 121.586914062 633.575195312 c 4
EndSplineSet
EndChar
